<?xml version="1.0" encoding="UTF-8" standalone="no"?>
<!DOCTYPE svg PUBLIC "-//W3C//DTD SVG 1.1//EN" "http://www.w3.org/Graphics/SVG/1.1/DTD/svg11.dtd">
<svg width="100%" height="100%" viewBox="0 0 480 109" version="1.1" xmlns="http://www.w3.org/2000/svg" xmlns:xlink="http://www.w3.org/1999/xlink" xml:space="preserve" xmlns:serif="http://www.serif.com/" style="fill-rule:evenodd;clip-rule:evenodd;stroke-linecap:round;stroke-miterlimit:10;">
    <g id="arrhythmias" transform="matrix(0.957304,0,0,1.248834,-1011.45279,-25.788075)">
        <path d="M1047.144,96.81L1045.441,96.718C1055.148,96.718 1056.239,96.924 1060.542,96.924L1060.671,96.924C1061.171,88.204 1062.105,75.4 1064.021,60.246C1067.009,36.506 1068.823,34.704 1069.563,34.704C1072.579,34.785 1076.734,66.305 1078.927,66.44C1080.49,66.545 1080.666,63.247 1082.887,63.088C1088.975,62.568 1090.983,96.718 1107.073,96.718C1116.779,96.718 1117.871,96.924 1122.174,96.924L1122.303,96.924C1122.803,88.204 1123.737,75.4 1125.652,60.246C1128.641,36.506 1130.455,34.704 1131.195,34.704C1134.211,34.785 1138.366,66.305 1140.558,66.44C1142.122,66.545 1142.298,63.247 1144.519,63.088C1150.607,62.568 1152.615,96.718 1168.705,96.718C1178.411,96.718 1179.503,96.924 1183.805,96.924L1183.935,96.924C1184.434,88.204 1185.369,75.4 1187.284,60.246C1190.273,36.506 1192.086,34.704 1192.827,34.704C1195.843,34.785 1199.997,66.305 1202.19,66.44C1203.754,66.545 1203.93,63.247 1206.15,63.088C1212.239,62.568 1214.246,96.718 1230.337,96.718C1240.043,96.718 1241.135,96.924 1245.437,96.924L1291.96,96.718C1301.666,96.718 1302.757,96.924 1307.06,96.924L1307.189,96.924C1307.689,88.204 1308.623,75.4 1310.539,60.246C1313.527,36.506 1315.341,34.704 1316.081,34.704C1319.097,34.785 1323.252,66.305 1325.445,66.44C1327.008,66.545 1327.184,63.247 1329.405,63.088C1335.493,62.568 1337.501,96.718 1353.591,96.718C1363.297,96.718 1364.389,96.924 1368.692,96.924L1368.821,96.924C1369.321,88.204 1370.255,75.4 1372.171,60.246C1375.159,36.506 1376.973,34.704 1377.713,34.704C1380.729,34.785 1384.884,66.305 1387.077,66.44C1388.64,66.545 1388.816,63.247 1391.037,63.088C1397.125,62.568 1399.133,96.718 1415.223,96.718C1424.929,96.718 1426.021,96.924 1430.324,96.924L1430.453,96.924C1430.952,88.204 1431.887,75.4 1433.802,60.246C1436.791,36.506 1438.604,34.704 1439.345,34.704C1442.361,34.785 1446.515,66.305 1448.708,66.44C1450.272,66.545 1450.448,63.247 1452.668,63.088C1458.756,62.568 1458.876,96.968 1474.967,96.968C1475.467,88.235 1476.401,75.417 1478.317,60.249C1481.305,36.51 1483.119,34.707 1483.859,34.707C1486.875,34.788 1491.03,66.309 1493.223,66.444C1494.786,66.548 1494.962,63.25 1497.183,63.091C1503.271,62.571 1505.279,96.722 1521.369,96.722C1531.075,96.722 1553.059,96.928 1557.362,96.928" style="fill:none;stroke:rgb(229,37,33);stroke-width:1.26px;"/>
    </g>
</svg>
