<?xml version="1.0" encoding="UTF-8" standalone="no"?>
<!DOCTYPE svg PUBLIC "-//W3C//DTD SVG 1.1//EN" "http://www.w3.org/Graphics/SVG/1.1/DTD/svg11.dtd">
<svg width="100%" height="100%" viewBox="0 0 480 109" version="1.1" xmlns="http://www.w3.org/2000/svg" xmlns:xlink="http://www.w3.org/1999/xlink" xml:space="preserve" xmlns:serif="http://www.serif.com/" style="fill-rule:evenodd;clip-rule:evenodd;stroke-linecap:round;stroke-linejoin:round;stroke-miterlimit:1.5;">
    <g id="dancing-curve" transform="matrix(0.486881,0,0,0.643489,0,-89.812539)">
        <path d="M0,286.72C0,286.72 23.862,286.482 29.248,286.72C36.533,287.043 54.392,246.443 65.939,247.634C77.484,248.828 78.767,260.743 84.412,263.364C90.057,265.987 95.444,262.649 99.037,266.225C102.628,269.799 108.017,287.676 128.542,286.72C149.066,285.767 166.256,266.464 177.804,244.06C189.348,221.657 184.731,219.989 193.455,220.228C202.178,220.466 205.769,247.396 216.801,250.972C227.835,254.546 227.579,248.111 230.4,253.355C233.221,258.599 232.716,286.754 250.419,286.516C260.505,286.38 278.893,285.529 284.279,264.558C289.668,243.584 295.826,154.928 309.679,155.638C323.535,156.353 323.535,215.934 328.411,218.557C333.284,221.178 338.417,213.551 339.443,217.842C340.469,222.131 337.481,296.988 365.999,286.717C393.832,276.693 414.185,168.488 433.86,179.947C448.05,188.211 449.511,227.137 456.439,229.281C463.367,231.425 467.984,225.707 469.01,231.902C470.036,238.099 491.333,287.673 510.318,286.717C529.304,285.764 539.053,267.652 546.238,256.928C553.422,246.202 560.35,240.243 568.304,240.722C576.257,241.198 575.488,254.305 584.211,255.734C592.935,257.166 593.191,252.875 595.756,255.496C598.321,258.119 607.816,286.241 622.695,286.717C637.577,287.194 622.695,286.681 622.695,286.681C622.695,286.681 646.557,286.443 651.946,286.681C659.23,287.003 677.09,246.404 688.635,247.595C700.179,248.786 701.464,260.704 707.107,263.325C712.753,265.948 718.141,262.61 721.732,266.186C725.323,269.76 730.712,287.634 751.239,286.681C771.764,285.728 788.954,266.424 800.499,244.021C812.046,221.618 807.427,219.95 816.15,220.188C824.873,220.427 828.467,247.357 839.498,250.933C850.53,254.507 850.274,248.072 853.098,253.316C855.919,258.56 855.663,286.919 873.366,286.681C883.452,286.545 901.588,285.49 906.977,264.516C912.365,243.545 918.521,154.886 932.377,155.606C946.233,156.321 946.233,215.901 951.106,218.525C955.982,221.145 961.112,213.519 962.138,217.808C963.166,222.098 958.417,288.115 988.694,286.685" style="fill:none;stroke:rgb(229,37,33);stroke-width:1.26px;"/>
    </g>
</svg>
