<?xml version="1.0" encoding="UTF-8" standalone="no"?>
<!DOCTYPE svg PUBLIC "-//W3C//DTD SVG 1.1//EN" "http://www.w3.org/Graphics/SVG/1.1/DTD/svg11.dtd">
<svg width="100%" height="100%" viewBox="0 0 60 109" version="1.1" xmlns="http://www.w3.org/2000/svg" xmlns:xlink="http://www.w3.org/1999/xlink" xml:space="preserve" xmlns:serif="http://www.serif.com/" style="fill-rule:evenodd;clip-rule:evenodd;stroke-linecap:square;stroke-miterlimit:10;">
    <g id="high-contractility" transform="matrix(1.276786,0,0,1.438404,-0.46858,-44.988082)">
        <path d="M0.737,97.505C0.927,88.379 0.914,75.495 1.643,59.646C2.782,34.839 3.475,32.954 3.755,32.954C4.906,33.037 6.488,65.977 7.324,66.119C7.919,66.228 7.987,62.783 8.835,62.616C11.158,62.074 10.362,97.446 16.495,97.446C20.195,97.446 22.048,97.517 23.69,97.517C23.69,97.517 24.411,75.481 25.14,59.646C26.279,34.839 26.972,32.954 27.251,32.954C28.402,33.037 29.985,65.977 30.82,66.119C31.415,66.228 31.484,62.783 32.331,62.616C34.654,62.074 35.296,97.555 41.429,97.555C45.128,97.555 45.545,97.499 47.187,97.499" style="fill:none;stroke:rgb(229,37,33);stroke-width:1.06px;"/>
    </g>
</svg>
