<?xml version="1.0" encoding="UTF-8" standalone="no"?>
<!DOCTYPE svg PUBLIC "-//W3C//DTD SVG 1.1//EN" "http://www.w3.org/Graphics/SVG/1.1/DTD/svg11.dtd">
<svg width="100%" height="100%" viewBox="0 0 60 109" version="1.1" xmlns="http://www.w3.org/2000/svg" xmlns:xlink="http://www.w3.org/1999/xlink" xml:space="preserve" xmlns:serif="http://www.serif.com/" style="fill-rule:evenodd;clip-rule:evenodd;stroke-linecap:square;stroke-miterlimit:10;">
    <g id="iabp" transform="matrix(0.873807,0,0,1.9249,0.431765,-91.518001)">
        <path d="M68.171,96.991C63.133,95.723 56.806,94.195 52.971,92.014C52.59,91.797 51.974,91.441 51.596,91.22C48.577,89.45 45.623,87.545 42.945,85.298C42.609,85.017 42.342,84.782 42.342,84.782C40.772,83.197 40.017,81.944 39.332,80.662C39.125,80.276 38.819,79.632 38.583,79.263C38.568,79.24 38.552,79.217 38.537,79.194C38.293,78.834 37.621,78.464 37.206,78.565C36.786,78.667 36.178,79.072 35.897,79.406C35.665,79.682 35.478,80.004 35.317,80.341C35.129,80.736 34.878,81.402 34.738,81.818C34.592,82.254 34.458,82.695 34.316,83.133C34.182,83.549 33.955,84.225 33.755,84.615C33.666,84.787 33.392,85.323 32.976,85.383C32.208,85.069 31.903,84.798 31.635,84.451C31.595,84.399 31.555,84.347 31.517,84.294C31.26,83.939 30.886,83.333 30.697,82.938C30.474,82.471 30.296,81.981 30.138,81.486C30.004,81.068 29.807,80.385 29.694,79.961C29.446,79.029 29.234,78.086 29.039,77.14C28.95,76.71 28.881,76.362 28.881,76.362C28.125,72.43 27.636,69.257 27.116,66.089C27.045,65.657 26.929,64.956 26.857,64.523C26.342,61.437 25.805,58.352 25.045,55.319C24.938,54.894 24.757,54.207 24.638,53.785C24.402,52.943 24.138,52.108 23.819,51.294C23.659,50.886 23.374,50.235 23.174,49.845C22.974,49.453 22.747,49.075 22.473,48.74C22.197,48.401 21.616,47.882 21.187,47.904C21.128,47.907 20.713,48.022 20.43,48.346C20.374,48.41 20.111,48.746 19.906,49.133C19.632,49.651 19.441,50.216 19.275,50.788C19.153,51.209 19.064,51.553 19.064,51.553C18.589,53.466 18.37,54.624 18.174,55.786C18.102,56.218 17.989,56.92 17.923,57.353C17.695,58.848 17.497,60.348 17.313,61.849C17.259,62.284 17.175,62.99 17.124,63.426C16.728,66.83 16.398,70.242 15.984,73.644C15.931,74.079 15.842,74.784 15.786,75.218C15.682,76.024 15.569,76.83 15.42,77.628C15.339,78.059 15.198,78.757 15.065,79.174C15.001,79.373 14.885,79.683 14.762,79.827L14.584,79.931L14.207,79.755L13.805,79.256C13.361,78.453 13.306,78.339 13.253,78.224C13.068,77.827 12.792,77.172 12.626,76.766C12.143,75.583 11.701,74.383 11.23,73.194C11.069,72.787 10.934,72.458 10.934,72.458C10.226,70.733 9.794,69.745 9.189,68.878C8.938,68.518 8.483,67.955 8.111,67.726C7.824,67.549 7.225,67.53 6.937,67.715C6.357,68.299 6.132,68.61 5.911,68.988C5.229,70.155 4.796,71.462 4.416,72.773C4.294,73.194 4.103,73.879 3.991,74.302C3.449,76.35 3.029,78.428 2.656,80.514C2.578,80.945 2.457,81.646 2.384,82.078C1.53,87.151 0.789,91.923 0.213,97.035" style="fill:none;stroke:rgb(229,37,33);stroke-width:0.96px;"/>
    </g>
</svg>
