<?xml version="1.0" encoding="UTF-8" standalone="no"?>
<!DOCTYPE svg PUBLIC "-//W3C//DTD SVG 1.1//EN" "http://www.w3.org/Graphics/SVG/1.1/DTD/svg11.dtd">
<svg width="100%" height="100%" viewBox="0 0 60 109" version="1.1" xmlns="http://www.w3.org/2000/svg" xmlns:xlink="http://www.w3.org/1999/xlink" xml:space="preserve" xmlns:serif="http://www.serif.com/" style="fill-rule:evenodd;clip-rule:evenodd;stroke-linecap:square;stroke-miterlimit:10;">
    <g id="underdamped" transform="matrix(1.108647,0,0,1.108647,-200.740547,-5.679138)">
        <path d="M2070,90.945C2070,90.945 2072.965,62.873 2077.873,48.683C2081.433,56.607 2081.029,57.587 2089.921,58.465C2096.404,59.105 2101.66,69.894 2101.66,69.894C2101.66,69.894 2105.368,67.02 2108.148,67.99C2110.928,68.96 2110.002,88.187 2113.709,89.686C2117.416,91.185 2121.432,91.04 2122.358,90.945M2017.648,91C2017.648,91 2020.613,62.928 2025.521,48.738C2029.081,56.662 2028.677,57.642 2037.569,58.52C2044.052,59.16 2049.308,69.948 2049.308,69.948C2049.308,69.948 2053.016,67.075 2055.796,68.045C2058.576,69.015 2057.649,88.241 2061.357,89.741C2065.064,91.24 2069.08,91.095 2070.006,91M1965.286,91C1965.286,91 1968.252,62.928 1973.159,48.738C1976.72,56.662 1976.316,57.642 1985.208,58.52C1991.69,59.16 1996.947,69.948 1996.947,69.948C1996.947,69.948 2000.654,67.075 2003.435,68.045C2006.215,69.015 2005.288,88.241 2008.995,89.741C2012.703,91.24 2016.718,91.095 2017.645,91M1912.275,91C1912.275,91 1915.241,62.928 1920.148,48.738C1923.709,56.662 1923.305,57.642 1932.196,58.52C1938.679,59.16 1943.936,69.948 1943.936,69.948C1943.936,69.948 1947.643,67.075 1950.424,68.045C1953.204,69.015 1952.277,88.241 1955.984,89.741C1959.691,91.24 1963.707,91.095 1964.634,91M1859.924,91C1859.924,91 1862.89,62.928 1867.797,48.738C1871.358,56.662 1870.954,57.642 1879.845,58.52C1886.328,59.16 1891.585,69.948 1891.585,69.948C1891.585,69.948 1895.292,67.075 1898.072,68.045C1900.853,69.015 1899.926,88.241 1903.633,89.741C1907.34,91.24 1911.356,91.095 1912.283,91M1807.563,91.055C1807.563,91.055 1810.528,62.983 1815.436,48.792C1818.996,56.716 1818.592,57.697 1827.484,58.575C1833.967,59.215 1839.224,70.003 1839.224,70.003C1839.224,70.003 1842.931,67.13 1845.711,68.1C1848.491,69.07 1847.564,88.296 1851.272,89.796C1854.979,91.295 1858.995,91.15 1859.921,91.055M1755.211,91.055C1755.211,91.055 1758.176,62.983 1763.084,48.792C1766.644,56.716 1766.24,57.697 1775.132,58.575C1781.615,59.215 1786.871,70.003 1786.871,70.003C1786.871,70.003 1790.579,67.13 1793.359,68.1C1796.139,69.07 1795.212,88.296 1798.92,89.796C1802.627,91.295 1806.642,91.15 1807.569,91.055M181.524,90.903C181.524,90.903 184.49,44.943 189.397,30.752C192.958,38.676 192.553,39.657 201.445,40.535C207.928,41.175 213.185,51.963 213.185,51.963C213.185,51.963 216.892,49.09 219.672,50.06C222.452,51.03 221.526,88.296 225.233,89.796C228.94,91.295 234.261,90.908 235.188,90.813" style="fill:none;stroke:rgb(229,37,33);stroke-width:1.26px;"/>
    </g>
</svg>
