<?xml version="1.0" encoding="UTF-8"?>
<!-- Created with Inkscape (http://www.inkscape.org/) -->
<svg width="17.039mm" height="6.641mm" version="1.1" viewBox="0 0 17.039 6.641" xmlns="http://www.w3.org/2000/svg">
 <g transform="translate(-172.97 -117.92)">
  <path class="st7" d="m175.56 124.56c-0.3175 0-0.58208-0.26458-0.635-0.60854h1.27c-0.0529 0.34396-0.3175 0.60854-0.635 0.60854zm-2.3283-0.92604c-0.15875 0-0.26458-0.15875-0.26458-0.3175 0-0.0794 0.0265-0.15875 0.0794-0.21166l0.0529-0.0529c0.23812-0.3175 0.66146-0.82021 0.66146-2.2754 0-1.0319 0.60854-1.8785 1.4552-2.0902l0.10584-0.0264v-0.42334c0-0.18521 0.10583-0.3175 0.26458-0.3175 0.13229 0 0.26458 0.13229 0.26458 0.3175v0.44979l0.10584 0.0265c0.84666 0.21167 1.4552 1.0583 1.4552 2.0902 0 1.4552 0.42333 1.9844 0.66145 2.2754l0.0529 0.0529c0.0529 0.0529 0.0794 0.1323 0.0794 0.21167 0 0.15875-0.10584 0.3175-0.26459 0.3175h-4.7096zm0.84667-2.831c0 0.9525-0.15875 1.6669-0.50271 2.196l-0.15875 0.26459h4.3127l-0.15875-0.26459c-0.34396-0.52916-0.50271-1.27-0.50271-2.196v-0.0265c0-0.97896-0.66146-1.7727-1.4817-1.7727s-1.5081 0.79375-1.5081 1.7992z" fill="#ccc" stroke-width=".26458"/>
  <g fill="none" stroke="#b3b3b3" stroke-miterlimit="10">
   <polygon class="st12" transform="matrix(.26458 0 0 .26458 -18.058 102.89)" points="781 60.9 785.9 59.1 785.9 77.4 781 77.4"/>
   <polygon class="st12" transform="matrix(.26458 0 0 .26458 -18.058 102.89)" points="772.2 65.3 777 63.5 777 77.4 772.2 77.4"/>
   <polygon class="st12" transform="matrix(.26458 0 0 .26458 -18.058 102.89)" points="763.3 68.8 768.1 67.1 768.1 77.4 763.3 77.4"/>
  </g>
  <polygon class="st13" transform="matrix(.26458 0 0 .26458 -18.058 102.89)" points="755.3 71.5 760.1 69.7 760.1 77.4 755.3 77.4" fill="#b3b3b3" stroke="#b3b3b3" stroke-miterlimit="10"/>
 </g>
</svg>
