<?xml version="1.0" encoding="UTF-8"?>
<!-- Created with Inkscape (http://www.inkscape.org/) -->
<svg width="13.6mm" height="9.3398mm" version="1.1" viewBox="0 0 13.6 9.3398" xmlns="http://www.w3.org/2000/svg">
 <g transform="translate(-174.65 -122.79)">
  <path class="st7" d="m183.88 127.52c0 2.54-2.0638 4.6038-4.6038 4.6038s-4.6302-2.0638-4.6302-4.6038c0-1.6404 0.84667-3.0956 2.1431-3.9158 0.10584-0.0794 0.23813-0.0265 0.3175 0.0794l0.21167 0.39688c0.0529 0.10583 0.0265 0.23812-0.0794 0.29104-1.0319 0.66146-1.7198 1.8256-1.7198 3.1485 0 2.0638 1.6669 3.7306 3.7306 3.7306s3.7306-1.6669 3.7306-3.7306c0-1.3229-0.68791-2.4871-1.7198-3.1485-0.10583-0.0529-0.13229-0.18521-0.0794-0.29104l0.21166-0.39688c0.0529-0.10583 0.21167-0.15875 0.3175-0.0794 1.2965 0.84667 2.1696 2.2754 2.1696 3.9158zm-4.3921 0.60854h-0.44979c-0.13229 0-0.21166-0.10583-0.21166-0.21166v-4.9212c0-0.13229 0.10583-0.21167 0.21166-0.21167h0.44979c0.1323 0 0.21167 0.10583 0.21167 0.21167v4.9212c0 0.10583-0.10583 0.21166-0.21167 0.21166z" fill="#ccc" stroke-width=".26458"/>
  <line class="st10" x1="185.21" x2="188.25" y1="131.26" y2="131.26" fill="#fff" stroke="#0f0" stroke-miterlimit="10" stroke-width="1.0583"/>
 </g>
</svg>
