<?xml version="1.0" encoding="UTF-8" standalone="no"?>
<!-- Created with Inkscape (http://www.inkscape.org/) -->

<svg
   width="4773.543"
   height="510.23599"
   viewBox="0 0 1262.9999 134.99994"
   version="1.1"
   id="svg841"
   sodipodi:docname="pac-curves.svg"
   inkscape:export-filename="arterial-curves.png"
   inkscape:export-xdpi="96"
   inkscape:export-ydpi="96"
   inkscape:version="1.4.2 (ebf0e940, 2025-05-08)"
   xmlns:inkscape="http://www.inkscape.org/namespaces/inkscape"
   xmlns:sodipodi="http://sodipodi.sourceforge.net/DTD/sodipodi-0.dtd"
   xmlns="http://www.w3.org/2000/svg"
   xmlns:svg="http://www.w3.org/2000/svg">
  <sodipodi:namedview
     id="namedview1"
     pagecolor="#ffffff"
     bordercolor="#000000"
     borderopacity="0.25"
     inkscape:showpageshadow="2"
     inkscape:pageopacity="0.0"
     inkscape:pagecheckerboard="0"
     inkscape:deskcolor="#d1d1d1"
     inkscape:document-units="mm"
     inkscape:zoom="0.352"
     inkscape:cx="5406.25"
     inkscape:cy="494.31818"
     inkscape:window-width="1728"
     inkscape:window-height="995"
     inkscape:window-x="124"
     inkscape:window-y="212"
     inkscape:window-maximized="0"
     inkscape:current-layer="svg841"
     showguides="true"
     showgrid="false">
    <sodipodi:guide
       position="11.663841,27.145413"
       orientation="0,-1"
       id="guide1"
       inkscape:locked="false" />
    <inkscape:grid
       id="grid1"
       units="mm"
       originx="0"
       originy="0"
       spacingx="0.99999999"
       spacingy="1"
       empcolor="#0099e5"
       empopacity="0.30196078"
       color="#0099e5"
       opacity="0.14901961"
       empspacing="5"
       enabled="true"
       visible="false" />
  </sodipodi:namedview>
  <defs
     id="defs838" />
  <path
     id="normal"
     vector-effect="non-scaling-stroke"
     style="display:inline;fill:none;stroke:#e52521;stroke-width:2;stroke-linecap:round;stroke-miterlimit:10;stroke-dasharray:none"
     d="m 1049.224,86.476338 c 0.5312,-9.080145 1.5273,-22.409923 3.5609,-38.179879 3.1792,-24.684151 5.1132,-26.559953 5.8934,-26.559953 3.2124,0.08314 7.6283,32.859649 9.9607,33.000719 1.6601,0.107906 1.851,-3.319981 4.2167,-3.485991 6.4827,-0.539472 8.616,34.967814 25.7318,34.967814 10.3259,0 11.4879,0.21584 16.0698,0.21584 h 0.1412 c 0.5313,-9.080152 1.5273,-22.409927 3.561,-38.179882 3.1791,-24.684152 5.1131,-26.559954 5.8934,-26.559954 3.2123,0.08314 7.6282,32.859646 9.9607,33.000748 1.6601,0.107905 1.851,-3.320014 4.2166,-3.485992 6.4828,-0.5395 8.616,34.96778 25.7318,34.96778 10.3176,0 11.4797,0.21584 16.0616,0.21584 h 0.1493 c 0.5312,-9.080146 1.5273,-22.409924 3.5609,-38.17988 3.1875,-24.684151 5.1132,-26.55995 5.8934,-26.55995 3.2124,0.08314 7.6366,32.859646 9.9607,33.000748 1.6601,0.107905 1.851,-3.320014 4.2167,-3.485992 6.4828,-0.539503 8.6243,34.967774 25.7318,34.967774 10.3176,0 11.4796,0.21584 16.0615,0.21584 h 0.1494 c 0.5312,-9.080141 1.5356,-22.409918 3.5609,-38.179874 3.1874,-24.684151 5.1132,-26.559953 5.8934,-26.559953 3.2123,0.08314 7.6365,32.859648 9.9607,33.000751 1.6601,0.107905 1.851,-3.320013 4.2167,-3.485995 6.4827,-0.5395 8.6243,34.967781 25.7317,34.967781 10.3176,0 11.488,0.21584 16.0616,0.21584 h 0.1494 c 0.5312,-9.080148 1.5356,-22.409925 3.5609,-38.179877 3.1874,-24.684155 5.1132,-26.559954 5.8934,-26.559954 3.2123,0.08314 7.6365,32.859645 9.9607,33.000748 1.6601,0.107904 1.851,-3.320014 4.2167,-3.485992 6.491,-0.5395 8.6243,34.967785 25.7317,34.967785 10.3176,0 11.488,0.21583 16.0616,0.21583 h 0.1494 c 0.5312,-9.080173 1.5355,-22.409919 3.5609,-38.179907 3.1874,-24.684151 5.1131,-26.559919 5.8934,-26.559919 3.2123,0.08314 7.6365,32.859615 9.9607,33.000716 1.6601,0.107906 1.851,-3.319981 4.2166,-3.485991 6.4911,-0.539503 8.6243,34.967771 25.7318,34.967771 10.3176,0 11.488,0.21585 16.0616,0.21585 h 0.1493 c 0.5312,-9.08018 1.5356,-22.409925 3.5693,-38.179912 3.1791,-24.684152 5.1048,-26.559923 5.885,-26.559923 3.2124,0.08314 7.6366,32.859617 9.9607,33.00072 1.6601,0.107905 1.8511,-3.319982 4.2167,-3.485992 6.4911,-0.539503 8.6243,34.96781 25.7318,34.96781 10.3259,0 11.4879,0.215837 16.0699,0.215837 h 0.1411 c 0.5313,-9.080145 1.5356,-22.409922 3.5694,-38.179906 3.1791,-24.684123 5.1048,-26.559923 5.885,-26.559923 3.2123,0.08314 7.6366,32.859614 9.9608,33.000717 1.6601,0.107904 1.851,-3.319982 4.2167,-3.485992 6.4909,-0.5395 8.6241,34.967817 25.7317,34.967817 10.3259,0 11.488,0.215837 16.0699,0.215837 h 0.1412 c 0.5395,-9.080149 1.5355,-22.409926 3.5691,-38.179914 3.1792,-24.684119 5.1049,-26.559919 5.8851,-26.559919 3.2207,0.08314 7.6366,32.859614 9.9608,33.000716 1.6601,0.107906 1.8594,-3.319981 4.2166,-3.485991 6.491,-0.539503 8.6243,34.967811 25.7318,34.967811 10.3259,0 11.488,0.215847 16.0698,0.215847 h 0.1412 c 0.5397,-9.080157 1.5356,-22.40993 3.5694,-38.179886 3.1791,-24.684152 5.1048,-26.559955 5.8851,-26.559955 3.2206,0.08314 7.6365,32.859618 9.9606,33.00072 1.6602,0.107906 1.8594,-3.319984 4.2167,-3.485995 6.4911,-0.5395 8.6243,34.967819 25.7318,34.967819 10.3259,0 11.488,0.215797 16.0699,0.215797 h 0.1411 c 0.5396,-9.080139 1.5356,-22.409916 3.5693,-38.179872 3.1791,-24.684151 5.1048,-26.559951 5.8851,-26.559951 3.2206,0.08314 7.6365,32.859614 9.9606,33.000717 1.6602,0.107904 1.8594,-3.319982 4.2168,-3.485992 6.491,-0.5395 8.6242,34.967821 25.7317,34.967821 10.3259,0 11.488,0.215827 16.0699,0.215827 h 0.1412 c 0.5312,-9.080143 1.5273,-22.40992 3.5609,-38.179876 3.1791,-24.684151 5.1049,-26.559954 5.8851,-26.559954 3.2207,0.08314 7.6366,32.859617 9.9607,33.000719 1.6601,0.107905 1.8593,-3.319981 4.2167,-3.485991 6.491,-0.539503 8.6243,34.967815 25.7317,34.967815 10.326,0 11.4879,0.21584 16.0699,0.21584 h 0.1493 c 0.5312,-9.080154 1.5274,-22.409927 3.5609,-38.179883 3.1791,-24.684152 5.1131,-26.559954 5.8851,-26.559954 3.2206,0.08314 7.6365,32.859646 9.9607,33.000719 1.6601,0.107906 1.8593,-3.319984 4.2167,-3.485995 6.491,-0.539467 8.6243,34.967813 25.7317,34.967813 10.326,0 11.4879,0.21584 16.0699,0.21584 h 0.1411 c 0.5314,-9.080147 1.5274,-22.409924 3.5611,-38.179881 3.179,-24.684151 5.1131,-26.559951 5.8849,-26.559951 3.2207,0.08314 7.6366,32.859647 9.9608,33.000748 1.6601,0.107906 1.8593,-3.320012 4.2167,-3.48599 6.4911,-0.539504 8.6243,34.967784 25.7317,34.967784 10.326,0 11.488,0.21584 16.0699,0.21584 h 0.1412 c 0.5313,-9.080151 1.5273,-22.409929 3.561,-38.179885 3.1791,-24.684151 5.1131,-26.559954 5.885,-26.559954 3.2207,0.08314 7.6366,32.85965 9.9608,33.000752 1.66,0.107905 1.8593,-3.320014 4.2166,-3.485995 6.4911,-0.5395 8.6243,34.967782 25.7318,34.967782 10.3259,0 11.4879,0.21584 16.0698,0.21584 h 0.1413 c 0.5312,-9.080149 1.5273,-22.409926 3.5609,-38.179879 3.1791,-24.684154 5.1131,-26.559954 5.8851,-26.559954 3.2206,0.08314 7.6364,32.859647 9.9607,33.000748 1.6601,0.107906 1.8593,-3.320013 4.2166,-3.485991 6.4911,-0.5395 8.6244,34.967776 25.7318,34.967776 10.3259,0 11.4879,0.21584 16.0699,0.21584 M 0.20688,87.139685 C 0.73811,78.05954 1.73418,64.729762 3.76782,48.959806 6.94695,24.275655 8.88099,22.399853 9.66121,22.399853 c 3.21233,0.08314 7.62822,32.859649 9.96068,33.000719 1.66013,0.107906 1.85103,-3.319981 4.21671,-3.485991 6.48272,-0.539472 8.61597,34.967814 25.73174,34.967814 10.32591,0 11.48797,0.21584 16.06988,0.21584 h 0.14118 c 0.53126,-9.080152 1.52732,-22.409927 3.56096,-38.179882 3.17911,-24.684152 5.11314,-26.559954 5.8934,-26.559954 3.21229,0.08314 7.62822,32.859646 9.96068,33.000748 1.66009,0.107905 1.85102,-3.320014 4.21667,-3.485992 6.48276,-0.5395 8.61601,34.96778 25.73175,34.96778 10.31759,0 11.47969,0.21584 16.0616,0.21584 h 0.14934 c 0.53121,-9.080146 1.52728,-22.409924 3.56092,-38.17988 3.18742,-24.684151 5.11314,-26.55995 5.89339,-26.55995 3.21234,0.08314 7.63654,32.859646 9.96068,33.000748 1.66013,0.107905 1.85103,-3.320014 4.21669,-3.485992 6.48275,-0.539503 8.62428,34.967774 25.73177,34.967774 10.3176,0 11.47966,0.21584 16.06157,0.21584 h 0.14933 c 0.53123,-9.080141 1.53561,-22.409918 3.56093,-38.179874 3.18742,-24.684151 5.11317,-26.559953 5.8934,-26.559953 3.21233,0.08314 7.63653,32.859648 9.96068,33.000751 1.66013,0.107905 1.85102,-3.320013 4.21671,-3.485995 6.48272,-0.5395 8.62428,34.967781 25.73174,34.967781 10.3176,0 11.48797,0.21584 16.0616,0.21584 h 0.14933 c 0.53126,-9.080148 1.53561,-22.409925 3.56093,-38.179877 3.18742,-24.684155 5.11318,-26.559954 5.89343,-26.559954 3.2123,0.08314 7.6365,32.859645 9.96068,33.000748 1.66009,0.107904 1.85103,-3.320014 4.21667,-3.485992 6.49105,-0.5395 8.6243,34.967785 25.73175,34.967785 10.3176,0 11.488,0.21583 16.0616,0.21583 h 0.14933 c 0.53123,-9.080173 1.53557,-22.409919 3.56093,-38.179907 3.18742,-24.684151 5.11315,-26.559919 5.8934,-26.559919 3.21233,0.08314 7.63654,32.859615 9.96068,33.000716 1.66012,0.107906 1.85102,-3.319981 4.21667,-3.485991 6.49105,-0.539503 8.62429,34.967771 25.73178,34.967771 10.3176,0 11.48797,0.21585 16.06156,0.21585 h 0.14934 c 0.53123,-9.08018 1.53561,-22.409925 3.56924,-38.179912 3.17911,-24.684152 5.10484,-26.559923 5.88509,-26.559923 3.21233,0.08314 7.63653,32.859617 9.96068,33.00072 1.66012,0.107905 1.85102,-3.319982 4.21671,-3.485992 6.49102,-0.539503 8.62428,34.96781 25.73173,34.96781 10.32592,0 11.48797,0.215837 16.06989,0.215837 h 0.14117 c 0.53123,-9.080145 1.53562,-22.409922 3.56925,-38.179906 3.17911,-24.684123 5.10485,-26.559923 5.88512,-26.559923 3.21229,0.08314 7.6365,32.859614 9.96068,33.000717 1.66009,0.107904 1.85102,-3.319982 4.21668,-3.485992 6.49102,-0.5395 8.62427,34.967817 25.73173,34.967817 10.32592,0 11.48801,0.215837 16.06992,0.215837 h 0.14117 c 0.53955,-9.080149 1.5356,-22.409926 3.56926,-38.179914 3.17913,-24.684119 5.10485,-26.559919 5.88511,-26.559919 3.22061,0.08314 7.63652,32.859614 9.96067,33.000716 1.66013,0.107906 1.85934,-3.319981 4.21668,-3.485991 6.49104,-0.539503 8.62429,34.967811 25.73178,34.967811 10.32587,0 11.48797,0.215847 16.06987,0.215847 h 0.14119 c 0.53953,-9.080157 1.5356,-22.40993 3.56924,-38.179886 3.1791,-24.684152 5.10483,-26.559955 5.88508,-26.559955 3.22064,0.08314 7.63653,32.859618 9.96067,33.00072 1.66014,0.107906 1.85935,-3.319984 4.21671,-3.485995 6.49105,-0.5395 8.62429,34.967819 25.73175,34.967819 10.32587,0 11.48797,0.215797 16.06988,0.215797 h 0.14118 c 0.53953,-9.080139 1.5356,-22.409916 3.56925,-38.179872 3.1791,-24.684151 5.10485,-26.559951 5.88508,-26.559951 3.22064,0.08314 7.63652,32.859614 9.96067,33.000717 1.66013,0.107904 1.85934,-3.319982 4.21671,-3.485992 6.49104,-0.5395 8.62429,34.967821 25.73175,34.967821 10.32591,0 11.48797,0.215827 16.06988,0.215827 h 0.14118 c 0.53125,-9.080143 1.52732,-22.40992 3.56096,-38.179876 3.1791,-24.684151 5.10482,-26.559954 5.88508,-26.559954 3.22065,0.08314 7.63653,32.859617 9.96067,33.000719 1.6601,0.107905 1.8594,-3.319981 4.2167,-3.485991 6.4911,-0.539503 8.6243,34.967815 25.7318,34.967815 10.3259,0 11.4879,0.21584 16.0699,0.21584 h 0.1493 c 0.5312,-9.080154 1.5273,-22.409927 3.5609,-38.179883 3.1791,-24.684152 5.1132,-26.559954 5.8851,-26.559954 3.2206,0.08314 7.6365,32.859646 9.9607,33.000719 1.6601,0.107906 1.8593,-3.319984 4.2167,-3.485995 6.491,-0.539467 8.6243,34.967813 25.7317,34.967813 10.326,0 11.4879,0.21584 16.0699,0.21584 h 0.1411 c 0.5314,-9.080147 1.5274,-22.409924 3.5611,-38.179881 3.179,-24.684151 5.1131,-26.559951 5.885,-26.559951 3.2207,0.08314 7.6365,32.859647 9.9607,33.000748 1.6601,0.107906 1.8593,-3.320012 4.2167,-3.48599 6.4911,-0.539504 8.6243,34.967784 25.7318,34.967784 10.3259,0 11.4879,0.21584 16.0698,0.21584 h 0.1412 c 0.5313,-9.080151 1.5273,-22.409929 3.561,-38.179885 3.1791,-24.684151 5.1132,-26.559954 5.8851,-26.559954 3.2206,0.08314 7.6365,32.85965 9.9607,33.000752 1.66,0.107905 1.8593,-3.320014 4.2166,-3.485995 6.4911,-0.5395 8.6243,34.967782 25.7318,34.967782 10.3259,0 11.488,0.21584 16.0698,0.21584 h 0.1413 c 0.5312,-9.080149 1.5273,-22.409926 3.5609,-38.179879 3.1791,-24.684154 5.1131,-26.559954 5.8851,-26.559954 3.2207,0.08314 7.63645,32.859647 9.96075,33.000748 1.6601,0.107906 1.8593,-3.320013 4.2166,-3.485991 6.4911,-0.5395 8.6244,34.967776 25.7318,34.967776 10.3259,0 11.4879,0.21584 16.0699,0.21584" />
  <path
     id="RV"
     style="display:inline;fill:none;stroke:#fffb00;stroke-width:2;stroke-dasharray:none"
     d="m 5612.0491,106.0649 35.4913,-97.4866645 18.0028,97.4866645 17.4881,-87.694799 17.4887,87.694799 36.5199,-97.7746605 33.9482,97.7746605 18.517,-92.590732 18.5173,92.590732 17.4882,-92.446734 18.5174,92.446734 18.0029,-87.694799 17.4883,87.550799 17.4883,-92.59073 18.003,92.59073 18.0025,-92.734728 17.4885,92.878728 17.4888,-92.590732 18.517,92.590732 m -750.9737,-0.144 35.4912,-97.4866625 18.003,97.4866625 17.4884,-87.694797 17.4882,87.694797 36.52,-97.7746585 33.9485,97.7746585 18.517,-92.59073 18.5169,92.59073 17.4883,-92.446732 18.5173,92.446732 18.003,-87.694797 17.4883,87.550797 17.4886,-92.590728 18.0026,92.590728 18.0026,-92.734726 17.4886,92.878726 17.4883,-92.59073 18.5171,92.59073 m 2.0576,0.144 35.4913,-97.4866645 18.0028,97.4866645 17.4881,-87.694799 17.4887,87.694799 36.5199,-97.7746605 33.9482,97.7746605 18.517,-92.590732 18.5173,92.590732 17.4882,-92.446734 18.5174,92.446734 18.0029,-87.694799 17.4883,87.550799 17.4883,-92.59073 18.003,92.59073 18.0025,-92.734728 17.4885,92.878728 17.4888,-92.590732 18.517,92.590732 m -750.9737,-0.144 35.4912,-97.4866625 18.003,97.4866625 17.4884,-87.694797 17.4882,87.694797 36.52,-97.7746585 33.9485,97.7746585 18.517,-92.59073 18.5169,92.59073 17.4883,-92.446732 18.5173,92.446732 18.003,-87.694797 17.4883,87.550797 17.4886,-92.590728 18.0026,92.590728 18.0026,-92.734726 17.4886,92.878726 17.4883,-92.59073 18.5171,92.59073 m -750.4591,0.144 35.4913,-97.4866645 18.0029,97.4866645 17.4883,-87.694799 17.4886,87.694799 36.5196,-97.7746605 33.9483,97.7746605 18.5173,-92.590732 18.5169,92.590732 17.4886,-92.446734 18.5171,92.446734 18.0025,-87.694799 17.4886,87.550799 17.4883,-92.59073 18.003,92.59073 18.0029,-92.734728 17.4883,92.878728 17.4885,-92.590732 18.5172,92.590732 m -750.9737,-0.144 35.4913,-97.4866625 18.0026,97.4866625 17.4886,-87.694797 17.4886,87.694797 36.52,-97.7746585 33.9477,97.7746585 18.5174,-92.59073 18.517,92.59073 17.4886,-92.446732 18.5169,92.446732 18.0031,-87.694797 17.4882,87.550797 17.4884,-92.590728 18.0028,92.590728 18.0027,-92.734726 17.4886,92.878726 17.4886,-92.59073 18.5171,92.59073 m -748.3317,-0.46233 35.4912,-97.4866715 18.0028,97.4866715 17.4882,-87.694806 17.4889,87.694806 36.5197,-97.7746675 33.9482,97.7746675 18.517,-92.590739 18.5169,92.590739 17.489,-92.446741 18.517,92.446741 18.0026,-87.694806 17.4886,87.550806 17.4883,-92.590737 18.0026,92.590737 18.0029,-92.734735 17.4887,92.878735 17.4882,-92.590739 18.5173,92.590739 m -750.9739,-0.144 35.4915,-97.4866695 18.0027,97.4866695 17.4886,-87.694804 17.4883,87.694804 36.5202,-97.7746655 33.9479,97.7746655 18.5174,-92.590737 18.5169,92.590737 17.4883,-92.446739 18.5173,92.446739 18.003,-87.694804 17.4883,87.550804 17.4882,-92.590735 18.003,92.590735 18.0026,-92.734733 17.4884,92.878733 17.4885,-92.590737 18.5173,92.590737 m 2.0574,0.144 35.4912,-97.4866715 18.0028,97.4866715 17.4882,-87.694806 17.4889,87.694806 36.5197,-97.7746675 33.9482,97.7746675 18.517,-92.590739 18.5169,92.590739 17.489,-92.446741 18.517,92.446741 18.0026,-87.694806 17.4886,87.550806 17.4883,-92.590737 18.0026,92.590737 18.0029,-92.734735 17.4887,92.878735 17.4882,-92.590739 18.5173,92.590739 m -750.9739,-0.144 35.4915,-97.4866695 18.0027,97.4866695 17.4886,-87.694804 17.4883,87.694804 36.5202,-97.7746655 33.9479,97.7746655 18.5174,-92.590737 18.5169,92.590737 17.4883,-92.446739 18.5173,92.446739 18.003,-87.694804 17.4883,87.550804 17.4882,-92.590735 18.003,92.590735 18.0026,-92.734733 17.4884,92.878733 17.4885,-92.590737 18.5173,92.590737 m -750.4593,0.144 35.4913,-97.4866715 18.0026,97.4866715 17.4886,-87.694806 17.4883,87.694806 36.5199,-97.7746675 33.9483,97.7746675 18.5173,-92.590739 18.5169,92.590739 17.4886,-92.446741 18.517,92.446741 18.0026,-87.694806 17.4886,87.550806 17.4887,-92.590737 18.0026,92.590737 18.0029,-92.734735 17.4883,92.878735 17.4884,-92.590739 18.517,92.590739 m -750.9736,-0.144 35.4913,-97.4866695 18.0029,97.4866695 17.4884,-87.694804 17.4884,87.694804 36.5199,-97.7746655 33.9481,97.7746655 18.5172,-92.590737 18.5172,92.590737 17.4883,-92.446739 18.5172,92.446739 18.0028,-87.694804 17.4885,87.550804 17.4884,-92.590735 18.0028,92.590735 18.0027,-92.734733 17.4886,92.878733 17.4883,-92.590737 18.5172,92.590737 m -748.7427,0.35055 35.4912,-97.4866675 18.0027,97.4866675 17.4886,-87.694802 17.4883,87.694802 36.52,-97.7746635 33.948,97.7746635 18.5172,-92.590735 18.5172,92.590735 17.4884,-92.446737 18.5171,92.446737 18.0028,-87.694802 17.4884,87.550802 17.4885,-92.590733 18.0028,92.590733 18.0028,-92.734731 17.4883,92.878731 17.4886,-92.590735 18.5171,92.590735 m -750.9736,-0.144 35.4913,-97.4866655 18.0027,97.4866655 17.4884,-87.6948 17.4886,87.6948 36.5199,-97.7746615 33.9481,97.7746615 18.5171,-92.590733 18.5172,92.590733 17.4884,-92.446735 18.5172,92.446735 18.0028,-87.6948 17.4883,87.5508 17.4885,-92.590731 18.0028,92.590731 18.0028,-92.734729 17.4883,92.878729 17.4886,-92.590733 18.5172,92.590733 m 2.0574,0.144 35.4912,-97.4866675 18.0027,97.4866675 17.4886,-87.694802 17.4883,87.694802 36.52,-97.7746635 33.948,97.7746635 18.5172,-92.590735 18.5172,92.590735 17.4884,-92.446737 18.5171,92.446737 18.0028,-87.694802 17.4884,87.550802 17.4885,-92.590733 18.0028,92.590733 18.0028,-92.734731 17.4883,92.878731 17.4886,-92.590735 18.5171,92.590735 m -750.9736,-0.144 35.4913,-97.4866655 18.0027,97.4866655 17.4884,-87.6948 17.4886,87.6948 36.5199,-97.7746615 33.9481,97.7746615 18.5171,-92.590733 18.5172,92.590733 17.4884,-92.446735 18.5172,92.446735 18.0028,-87.6948 17.4883,87.5508 17.4885,-92.590731 18.0028,92.590731 18.0028,-92.734729 17.4883,92.878729 17.4886,-92.590733 18.5172,92.590733 m -750.4593,0.144 35.4912,-97.4866675 18.0027,97.4866675 17.4885,-87.694802 17.4884,87.694802 36.52,-97.7746635 33.948,97.7746635 18.5172,-92.590735 18.5172,92.590735 17.4884,-92.446737 18.5171,92.446737 18.0028,-87.694802 17.4885,87.550802 17.4884,-92.590733 18.0028,92.590733 18.0029,-92.734731 17.4884,92.878731 17.4883,-92.590735 18.5172,92.590735 m -750.9736,-0.144 35.4913,-97.4866655 18.0027,97.4866655 17.4886,-87.6948 17.4883,87.6948 36.52,-97.7746615 33.9481,97.7746615 18.5171,-92.590733 18.5172,92.590733 17.4884,-92.446735 18.5172,92.446735 18.0027,-87.6948 17.4886,87.5508 17.4883,-92.590731 18.0028,92.590731 18.0028,-92.734729 17.4883,92.878729 17.4886,-92.590733 18.5171,92.590733 m -748.3316,-0.46233 35.4912,-97.4866745 18.0028,97.4866745 17.4884,-87.694809 17.4884,87.694809 36.5199,-97.7746705 33.9482,97.7746705 18.517,-92.590742 18.5172,92.590742 17.4886,-92.446744 18.5171,92.446744 18.0028,-87.694809 17.4884,87.550809 17.4883,-92.59074 18.003,92.59074 18.0027,-92.734738 17.4884,92.878738 17.4884,-92.590742 18.5172,92.590742 m -750.97358,-0.144 35.49125,-97.4866725 18.00275,97.4866725 17.48841,-87.694807 17.48846,87.694807 36.51994,-97.7746683 33.94813,97.7746683 18.51711,-92.59074 18.5172,92.59074 17.48848,-92.446742 18.51712,92.446742 18.00283,-87.694807 17.48835,87.550807 17.48845,-92.590738 18.0028,92.590738 18.0028,-92.734736 17.4884,92.878736 17.4885,-92.59074 18.5171,92.59074 m 2.0575,0.144 35.4912,-97.4866745 18.0028,97.4866745 17.4884,-87.694809 17.4884,87.694809 36.5199,-97.7746705 33.9482,97.7746705 18.517,-92.590742 18.5172,92.590742 17.4886,-92.446744 18.5171,92.446744 18.0028,-87.694809 17.4884,87.550809 17.4883,-92.59074 18.003,92.59074 18.0027,-92.734738 17.4884,92.878738 17.4884,-92.590742 18.5172,92.590742 m -750.97358,-0.144 35.49125,-97.4866725 18.00275,97.4866725 17.48841,-87.694807 17.48846,87.694807 36.51994,-97.7746683 33.94813,97.7746683 18.51711,-92.59074 18.5172,92.59074 17.48848,-92.446742 18.51712,92.446742 18.00283,-87.694807 17.48835,87.550807 17.48845,-92.590738 18.0028,92.590738 18.0028,-92.734736 17.4884,92.878736 17.4885,-92.59074 18.5171,92.59074 m -750.45924,0.144 35.49123,-97.4866745 18.00281,97.4866745 17.48841,-87.694809 17.48841,87.694809 36.51995,-97.7746705 33.94813,97.7746705 18.51715,-92.590742 18.51715,92.590742 17.48844,-92.446744 18.51712,92.446744 18.00283,-87.694809 17.48841,87.550809 17.48843,-92.59074 18.00279,92.59074 18.00283,-92.734738 17.48842,92.878738 17.4884,-92.590742 18.51716,92.590742 M -26.111552,104.91479 9.3796642,7.4281175 27.382456,104.91479 44.87088,17.219983 62.359311,104.91479 98.879252,7.1401217 132.82737,104.91479 l 18.51716,-92.59074 18.51717,92.59074 17.48841,-92.446742 18.51716,92.446742 18.00278,-87.694807 17.48844,87.550807 17.48843,-92.590738 18.00279,92.590738 18.00279,-92.734736 17.48842,92.878736 17.48841,-92.59074 18.51718,92.59074"
     inkscape:label="RV" />
  <path
     id="RA"
     style="display:inline;fill:none;stroke:#fffb00;stroke-width:2;stroke-dasharray:none"
     inkscape:label="RA"
     d="m 990.7584,104.02237 8.8526,3.17734 8.8525,-6.35467 8.8525,5.08374 8.8525,-3.8128 8.8525,-2.54188 8.8526,9.53202 8.8525,-14.615756 8.8526,15.886696 8.8525,-9.53202 8.8526,3.17733 8.8525,-6.354666 8.8526,9.532006 8.8525,-6.35467 8.8525,6.35467 8.8525,-12.709346 8.8525,12.709346 8.8526,-6.35467 8.8525,3.17733 8.8526,-1.90639 8.8525,-2.54188 8.8526,9.53202 8.8525,-14.615756 8.8525,15.886696 8.8526,-9.53202 8.8525,3.17733 8.8526,-6.354666 8.8524,9.532006 8.8526,-6.35467 8.8525,6.35467 8.8525,-12.709346 8.8526,12.709346 8.8525,-6.35467 8.8526,3.17733 8.8525,-1.90639 8.8526,-2.54188 8.8525,9.53202 8.8525,-14.615756 8.8526,15.886696 8.8524,-9.53202 8.8526,3.17733 m -708.25442,0.0431 8.85253,3.17734 8.85254,-6.35468 8.85253,5.08374 8.85254,-3.8128 8.85254,-2.54187 8.85253,9.53201 8.85253,-14.615756 8.85253,15.886696 8.85254,-9.53202 8.85254,3.17734 8.85253,-6.354676 8.85254,9.532016 8.85253,-6.35468 8.85253,6.35468 8.85254,-12.709356 8.85253,12.709356 8.85254,-6.35468 8.85253,3.17734 8.85254,-1.9064 8.85253,-2.54187 8.85253,9.53201 8.85254,-14.615756 8.85254,15.886696 8.85253,-9.53202 8.85254,3.17734 8.85253,-6.354676 8.85253,9.532016 8.85253,-6.35468 8.85255,6.35468 8.85253,-12.709356 8.85253,12.709356 8.85254,-6.35468 8.85253,3.17734 8.85253,-1.9064 8.85254,-2.54187 8.85254,9.53201 8.85253,-14.615756 8.85253,15.886696 8.85254,-9.53202 8.85257,3.17734 m -707.13188,0.41623 8.85254,3.17734 8.85253,-6.35467 8.85254,5.08373 8.85253,-3.8128 8.85253,-2.54187 8.85253,9.53201 8.85255,-14.615756 8.85253,15.886696 8.85253,-9.53201 8.85254,3.17733 8.85253,-6.354676 8.85253,9.532016 8.85255,-6.35467 8.85253,6.35467 8.85253,-12.709356 8.85253,12.709356 8.85254,-6.35467 8.85253,3.17733 8.85254,-1.9064 8.85254,-2.54187 8.85253,9.53201 8.85253,-14.615756 8.85254,15.886696 8.85253,-9.53201 8.85254,3.17733 8.85253,-6.354676 8.85254,9.532016 8.85253,-6.35467 8.85253,6.35467 8.85254,-12.709356 8.85253,12.709356 8.85254,-6.35467 8.85254,3.17733 8.85253,-1.9064 8.85253,-2.54187 8.85253,9.53201 8.85254,-14.615756 8.85254,15.886696 8.85253,-9.53201 8.85254,3.17733 m -708.375156,0.012 8.852532,3.17734 8.852542,-6.35468 8.852531,5.08374 8.852532,-3.81281 8.852532,-2.54187 8.85254,9.53202 8.8525314,-14.615766 8.85253234,15.886706 8.85254196,-9.53202 8.8525323,3.17734 8.852531,-6.354686 8.852542,9.532026 8.852532,-6.35468 8.852531,6.35468 8.852532,-12.709366 8.852541,12.709366 8.852532,-6.35468 8.852538,3.17734 8.85253,-1.90641 8.85254,-2.54187 8.85254,9.53202 8.85254,-14.615766 8.85253,15.886706 8.85254,-9.53202 8.85253,3.17734 8.85253,-6.354686 8.85253,9.532026 8.85255,-6.35468 8.85253,6.35468 8.85253,-12.709366 8.85254,12.709366 8.85253,-6.35468 8.85253,3.17734 8.85255,-1.90641 8.85253,-2.54187 8.85253,9.53202 8.85253,-14.615766 8.85254,15.886706 8.85254,-9.53202 8.85254,3.17734 m 2126.02974,-0.47127 8.8525,3.17734 8.8526,-6.35468 8.8525,5.08374 8.8526,-3.8128 8.8525,-2.54187 8.8525,9.53201 8.8526,-14.615756 8.8524,15.886696 8.8526,-9.53202 8.8525,3.17734 8.8525,-6.354676 8.8526,9.532016 8.8525,-6.35468 8.8526,6.35468 8.8525,-12.709356 8.8526,12.709356 8.8525,-6.35468 8.8526,3.17734 8.8525,-1.9064 8.8524,-2.54187 8.8526,9.53201 8.8525,-14.615756 8.8525,15.886696 8.8526,-9.53202 8.8525,3.17734 8.8526,-6.354676 8.8525,9.532016 8.8526,-6.35468 8.8525,6.35468 8.8525,-12.709356 8.8526,12.709356 8.8524,-6.35468 8.8526,3.17734 8.8525,-1.9064 8.8526,-2.54187 8.8525,9.53201 8.8525,-14.615756 8.8526,15.886696 8.8525,-9.53202 8.8526,3.17734 m -708.2545,0.0431 8.8526,3.17734 8.8525,-6.35467 8.8526,5.08374 8.8525,-3.8128 8.8526,-2.54188 8.8525,9.53202 8.8525,-14.615766 8.8526,15.886706 8.8525,-9.53202 8.8526,3.17733 8.8524,-6.354666 8.8526,9.532006 8.8525,-6.35467 8.8525,6.35467 8.8526,-12.709356 8.8525,12.709356 8.8526,-6.35467 8.8525,3.17733 8.8526,-1.90639 8.8525,-2.54188 8.8525,9.53202 8.8526,-14.615766 8.8524,15.886706 8.8526,-9.53202 8.8525,3.17733 8.8526,-6.354666 8.8525,9.532006 8.8525,-6.35467 8.8526,6.35467 8.8525,-12.709356 8.8526,12.709356 8.8525,-6.35467 8.8526,3.17733 8.8525,-1.90639 8.8524,-2.54188 8.8526,9.53202 8.8525,-14.615766 8.8526,15.886706 8.8525,-9.53202 8.8526,3.17733 m -707.1318,0.41624 8.8524,3.17734 8.8526,-6.35468 8.8525,5.08374 8.8525,-3.8128 8.8526,-2.54188 8.8525,9.53202 8.8526,-14.615766 8.8525,15.886706 8.8526,-9.53202 8.8525,3.17734 8.8525,-6.354676 8.8526,9.532016 8.8524,-6.35468 8.8526,6.35468 8.8525,-12.709366 8.8526,12.709366 8.8525,-6.35468 8.8525,3.17734 8.8526,-1.9064 8.8525,-2.54188 8.8526,9.53202 8.8525,-14.615766 8.8526,15.886706 8.8525,-9.53202 8.8524,3.17734 8.8526,-6.354676 8.8525,9.532016 8.8526,-6.35468 8.8525,6.35468 8.8526,-12.709366 8.8525,12.709366 8.8525,-6.35468 8.8526,3.17734 8.8525,-1.9064 8.8526,-2.54188 8.8525,9.53202 8.8525,-14.615766 8.8525,15.886706 8.8525,-9.53202 8.8526,3.17734 m -708.3751,0.012 8.8525,3.17734 8.8525,-6.35467 8.8525,5.08373 8.8526,-3.8128 8.8525,-2.54187 8.8526,9.53201 8.8525,-14.615756 8.8525,15.886696 8.8526,-9.53201 8.8525,3.17733 8.8526,-6.354676 8.8525,9.532016 8.8526,-6.35467 8.8524,6.35467 8.8525,-12.709356 8.8526,12.709356 8.8525,-6.35467 8.8526,3.17733 8.8525,-1.9064 8.8526,-2.54187 8.8525,9.53201 8.8526,-14.615756 8.8525,15.886696 8.8525,-9.53201 8.8526,3.17733 8.8524,-6.354676 8.8526,9.532016 8.8525,-6.35467 8.8526,6.35467 8.8525,-12.709356 8.8525,12.709356 8.8526,-6.35467 8.8525,3.17733 8.8526,-1.9064 8.8525,-2.54187 8.8526,9.53201 8.8525,-14.615756 8.8524,15.886696 8.8526,-9.53201 8.8525,3.17733" />
  <path
     id="PA"
     style="display:inline;fill:none;stroke:#f6ee1c;stroke-width:2;stroke-linecap:round;stroke-miterlimit:10;stroke-opacity:1;stroke-dasharray:none"
     inkscape:label="PA"
     d="m 4140.3277,74.216761 h -15.3236 c -11.2347,0 -21.195,-15.852068 -26.3888,-26.892921 -1.1212,-2.398291 -2.4196,1.082141 -4.0327,-0.584974 -3.8147,-3.933724 -3.5003,-10.558292 -7.7346,-10.558292 -2.9193,0 -2.9516,9.827116 -6.3633,22.666689 a 51.560066,93.489124 0 0 1 -4.7664,15.369498 h -15.2429 c -11.2347,0 -21.1951,-15.852068 -26.3891,-26.892921 -1.129,-2.398291 -2.4194,1.082141 -4.0325,-0.584974 -3.8146,-3.933724 -3.5002,-10.558292 -7.7342,-10.558292 -2.9196,0 -2.952,9.827116 -6.3636,22.666689 a 51.560066,93.489124 0 0 1 -4.7663,15.369498 h -15.7672 c -11.2346,0 -21.1951,-15.852068 -26.389,-26.892921 -1.1211,-2.398291 -2.4195,1.082141 -4.0326,-0.584974 -3.8148,-3.933724 -3.4923,-10.558292 -7.7344,-10.558292 -2.9115,0 -2.9518,9.827116 -6.3552,22.666689 a 52.076235,94.425042 0 0 1 -4.7746,15.369498 h -15.2429 c -11.2348,0 -21.1952,-15.852068 -26.3891,-26.892921 -1.121,-2.398291 -2.4196,1.082141 -4.0325,-0.584974 -3.8148,-3.933724 -3.4922,-10.558292 -7.7344,-10.558292 -2.9115,0 -2.9519,9.827116 -6.3552,22.666689 a 52.076235,94.425042 0 0 1 -4.8068,15.369498 h -15.3238 c -11.2345,0 -21.1868,-15.852068 -26.3809,-26.892921 -1.129,-2.398291 -2.4195,1.082141 -4.0324,-0.584974 -3.8148,-3.933724 -3.5003,-10.558292 -7.7425,-10.558292 -2.9116,0 -2.9519,9.827116 -6.3554,22.666689 a 51.560066,93.489124 0 0 1 -4.7664,15.369498 h -15.243 c -11.2345,0 -21.1869,-15.852068 -26.3808,-26.892921 -1.1291,-2.398291 -2.4195,1.082141 -4.0326,-0.584974 -3.8147,-3.933724 -3.4921,-10.558292 -7.7344,-10.558292 -2.9115,0 -2.9519,9.827116 -6.3552,22.666689 a 51.560066,93.489124 0 0 1 -4.7665,15.369498 h -15.7835 c -11.2345,0 -21.1949,-15.852068 -26.3889,-26.892921 -1.1211,-2.398291 -2.4195,1.082141 -4.0325,-0.584974 -3.8148,-3.933724 -3.5002,-10.558292 -7.7343,-10.558292 -2.9196,0 -2.952,9.827116 -6.3635,22.666689 a 51.560066,93.489124 0 0 1 -4.7664,15.369498 h -15.2429 c -11.2348,0 -21.1951,-15.852068 -26.3889,-26.892921 -1.1212,-2.398291 -2.4197,1.082141 -4.0327,-0.584974 -3.8148,-3.933724 -3.5002,-10.558292 -7.7344,-10.558292 -2.9196,0 -2.9518,9.827116 -6.3633,22.666689 a 51.560066,93.489124 0 0 1 -4.7665,15.369498 l -0.1211,1.213732 h -15.3802 c -11.2346,0 -21.1869,-15.85201 -26.3808,-26.892904 -1.1292,-2.398248 -2.4194,1.082141 -4.0325,-0.584929 -3.8148,-3.93377 -3.5002,-10.558281 -7.7345,-10.558281 -2.9196,0 -2.9517,9.827101 -6.3632,22.666675 a 51.213269,92.860304 0 0 1 -4.7666,15.369439 h -15.2429 c -11.2347,0 -21.187,-15.85201 -26.381,-26.892904 -1.1291,-2.398248 -2.4194,1.082141 -4.0324,-0.584929 -3.8148,-3.93377 -3.5003,-10.558281 -7.7426,-10.558281 -2.9114,0 -2.9518,9.827101 -6.3553,22.666675 a 51.213269,92.860304 0 0 1 -4.7663,15.369439 h -15.7351 c -11.2345,0 -21.1951,-15.85201 -26.389,-26.892904 -1.1211,-2.398248 -2.4195,1.082141 -4.0325,-0.584929 -3.8149,-3.93377 -3.5003,-10.558281 -7.7345,-10.558281 -2.9115,0 -2.9518,9.827101 -6.3552,22.666675 a 51.721371,93.781599 0 0 1 -4.7745,15.369439 h -15.2431 c -11.2346,0 -21.1951,-15.85201 -26.3889,-26.892904 -1.1211,-2.398248 -2.4196,1.082141 -4.0325,-0.584929 -3.8149,-3.93377 -3.5003,-10.558281 -7.7346,-10.558281 -2.9115,0 -2.9518,9.827101 -6.3553,22.666675 a 51.721371,93.781599 0 0 1 -4.7744,15.369439 h -15.3478 c -11.2348,0 -21.1951,-15.85201 -26.381,-26.892904 -1.1291,-2.398248 -2.4195,1.082141 -4.0324,-0.584929 -3.8149,-3.93377 -3.4924,-10.558281 -7.7346,-10.558281 -2.9114,0 -2.9516,9.827101 -6.3553,22.666675 a 51.810085,93.942459 0 0 1 -4.7664,15.369439 h -15.2511 c -11.2346,0 -21.195,-15.85201 -26.3808,-26.892904 -1.1291,-2.398248 -2.4195,1.082141 -4.0326,-0.584929 -3.8147,-3.93377 -3.4921,-10.558281 -7.7343,-10.558281 -2.9115,0 -2.9519,9.827101 -6.3553,22.666675 a 51.810085,93.942459 0 0 1 -4.7665,15.369439 h -15.7673 c -11.2345,0 -21.1949,-15.85201 -26.3889,-26.892904 -1.129,-2.398248 -2.4195,1.082141 -4.0324,-0.584929 -3.8148,-3.93377 -3.5003,-10.558281 -7.7345,-10.558281 -2.9196,0 -2.9518,9.827101 -6.3634,22.666675 a 51.213269,92.860304 0 0 1 -4.7665,15.369439 h -15.243 c -11.2265,0 -21.1869,-15.85201 -26.3807,-26.892904 -1.1292,-2.398248 -2.4196,1.082141 -4.0327,-0.584929 -3.8148,-3.93377 -3.5002,-10.558281 -7.7344,-10.558281 -2.9196,0 -2.9519,9.827101 -6.3633,22.666675 a 51.213269,92.860304 0 0 1 -4.7584,15.369439 m 0,0 h -15.3236 c -11.2347,0 -21.1951,-15.852068 -26.3889,-26.89292 -1.1212,-2.398292 -2.4197,1.082141 -4.0328,-0.584975 -3.8146,-3.933724 -3.5001,-10.558292 -7.7344,-10.558292 -2.9194,0 -2.9517,9.827116 -6.3633,22.66669 a 51.560066,93.489124 0 0 1 -4.7664,15.369497 h -15.243 c -11.2347,0 -21.195,-15.852068 -26.3889,-26.89292 -1.1293,-2.398292 -2.4195,1.082141 -4.0325,-0.584975 -3.8148,-3.933724 -3.5002,-10.558292 -7.7345,-10.558292 -2.9195,0 -2.9518,9.827116 -6.3633,22.66669 a 51.560066,93.489124 0 0 1 -4.7666,15.369497 h -15.7671 c -11.2348,0 -21.1951,-15.852068 -26.3891,-26.89292 -1.121,-2.398292 -2.4194,1.082141 -4.0325,-0.584975 -3.8147,-3.933724 -3.4922,-10.558292 -7.7344,-10.558292 -2.9115,0 -2.9519,9.827116 -6.3552,22.66669 a 52.076235,94.425042 0 0 1 -4.7746,15.369497 h -15.2429 c -11.2347,0 -21.1951,-15.852068 -26.3891,-26.89292 -1.121,-2.398292 -2.4194,1.082141 -4.0326,-0.584975 -3.8146,-3.933724 -3.4921,-10.558292 -7.7344,-10.558292 -2.9114,0 -2.9517,9.827116 -6.3552,22.66669 a 52.076235,94.425042 0 0 1 -4.8068,15.369497 h -15.3236 c -11.2347,0 -21.1871,-15.852068 -26.3808,-26.89292 -1.1292,-2.398292 -2.4197,1.082141 -4.0326,-0.584975 -3.8149,-3.933724 -3.5003,-10.558292 -7.7425,-10.558292 -2.9116,0 -2.9519,9.827116 -6.3553,22.66669 a 51.560066,93.489124 0 0 1 -4.7665,15.369497 h -15.2431 c -11.2345,0 -21.1868,-15.852068 -26.3807,-26.89292 -1.1293,-2.398292 -2.4196,1.082141 -4.0326,-0.584975 -3.8147,-3.933724 -3.4922,-10.558292 -7.7344,-10.558292 -2.9114,0 -2.9518,9.827116 -6.3553,22.66669 a 51.560066,93.489124 0 0 1 -4.7664,15.369497 h -15.7834 c -11.2347,0 -21.195,-15.852068 -26.3889,-26.89292 -1.1212,-2.398292 -2.4195,1.082141 -4.0326,-0.584975 -3.8147,-3.933724 -3.5002,-10.558292 -7.7345,-10.558292 -2.9194,0 -2.9518,9.827116 -6.3632,22.66669 a 51.560066,93.489124 0 0 1 -4.7665,15.369497 h -15.243 c -11.2347,0 -21.1951,-15.852068 -26.3889,-26.89292 -1.1212,-2.398292 -2.4196,1.082141 -4.0326,-0.584975 -3.8148,-3.933724 -3.5002,-10.558292 -7.7345,-10.558292 -2.9195,0 -2.9518,9.827116 -6.3634,22.66669 a 51.560066,93.489124 0 0 1 -4.7664,15.369497 l -0.1211,1.213733 h -15.3801 c -11.2346,0 -21.187,-15.85201 -26.3808,-26.892905 -1.1291,-2.398247 -2.4197,1.082141 -4.0325,-0.584928 -3.8149,-3.93377 -3.5003,-10.558282 -7.7345,-10.558282 -2.9196,0 -2.9519,9.827102 -6.3634,22.666676 a 51.213269,92.860304 0 0 1 -4.7664,15.369439 h -15.2431 c -11.2345,0 -21.1869,-15.85201 -26.3808,-26.892905 -1.1291,-2.398247 -2.4195,1.082141 -4.0325,-0.584928 -3.8148,-3.93377 -3.5002,-10.558282 -7.7425,-10.558282 -2.9114,0 -2.9518,9.827102 -6.3553,22.666676 a 51.213269,92.860304 0 0 1 -4.7664,15.369439 h -15.7351 c -11.2347,0 -21.1951,-15.85201 -26.3889,-26.892905 -1.1211,-2.398247 -2.4196,1.082141 -4.0326,-0.584928 -3.8148,-3.93377 -3.5003,-10.558282 -7.7342,-10.558282 -2.9117,0 -2.952,9.827102 -6.3553,22.666676 a 51.721371,93.781599 0 0 1 -4.7748,15.369439 h -15.2429 c -11.2347,0 -21.195,-15.85201 -26.3889,-26.892905 -1.121,-2.398247 -2.4196,1.082141 -4.0327,-0.584928 -3.8146,-3.93377 -3.5002,-10.558282 -7.7342,-10.558282 -2.9116,0 -2.9519,9.827102 -6.3553,22.666676 a 51.721371,93.781599 0 0 1 -4.7746,15.369439 h -15.3478 c -11.2347,0 -21.1951,-15.85201 -26.3809,-26.892905 -1.1291,-2.398247 -2.4196,1.082141 -4.0326,-0.584928 -3.8147,-3.93377 -3.4921,-10.558282 -7.7344,-10.558282 -2.9114,0 -2.9519,9.827102 -6.3552,22.666676 a 51.810085,93.942459 0 0 1 -4.7666,15.369439 h -15.251 c -11.2347,0 -21.1949,-15.85201 -26.3809,-26.892905 -1.129,-2.398247 -2.4194,1.082141 -4.0325,-0.584928 -3.8148,-3.93377 -3.4922,-10.558282 -7.7343,-10.558282 -2.9117,0 -2.9519,9.827102 -6.3553,22.666676 a 51.810085,93.942459 0 0 1 -4.7666,15.369439 h -15.7672 c -11.2347,0 -21.1951,-15.85201 -26.3889,-26.892905 -1.1291,-2.398247 -2.4197,1.082141 -4.0325,-0.584928 -3.8149,-3.93377 -3.5004,-10.558282 -7.7344,-10.558282 -2.9197,0 -2.9518,9.827102 -6.3634,22.666676 a 51.213269,92.860304 0 0 1 -4.7665,15.369439 h -15.2431 c -11.2265,0 -21.1869,-15.85201 -26.3808,-26.892905 -1.129,-2.398247 -2.4195,1.082141 -4.0325,-0.584928 -3.8149,-3.93377 -3.5002,-10.558282 -7.7344,-10.558282 -2.9196,0 -2.9519,9.827102 -6.3634,22.666676 a 51.213269,92.860304 0 0 1 -4.7584,15.369439 m 0.023,-0.264205 h -15.3236 c -11.2347,0 -21.1949,-15.852068 -26.3888,-26.892921 -1.1211,-2.398291 -2.4195,1.082141 -4.0327,-0.584974 -3.8146,-3.933724 -3.5003,-10.558292 -7.7344,-10.558292 -2.9195,0 -2.9517,9.827116 -6.3633,22.666689 a 51.560066,93.489124 0 0 1 -4.7666,15.369498 h -15.2429 c -11.2347,0 -21.1951,-15.852068 -26.3891,-26.892921 -1.1289,-2.398291 -2.4194,1.082141 -4.0325,-0.584974 -3.8146,-3.933724 -3.5002,-10.558292 -7.7341,-10.558292 -2.9197,0 -2.952,9.827116 -6.3636,22.666689 a 51.560066,93.489124 0 0 1 -4.7664,15.369498 h -15.7671 c -11.2346,0 -21.1952,-15.852068 -26.3891,-26.892921 -1.121,-2.398291 -2.4195,1.082141 -4.0325,-0.584974 -3.8149,-3.933724 -3.4923,-10.558292 -7.7345,-10.558292 -2.9115,0 -2.9518,9.827116 -6.3552,22.666689 a 52.076235,94.425042 0 0 1 -4.7745,15.369498 h -15.243 c -11.2347,0 -21.1952,-15.852068 -26.389,-26.892921 -1.1211,-2.398291 -2.4197,1.082141 -4.0325,-0.584974 -3.8149,-3.933724 -3.4922,-10.558292 -7.7344,-10.558292 -2.9116,0 -2.9518,9.827116 -6.3552,22.666689 a 52.076235,94.425042 0 0 1 -4.8068,15.369498 h -15.3238 c -11.2345,0 -21.1869,-15.852068 -26.381,-26.892921 -1.1289,-2.398291 -2.4194,1.082141 -4.0324,-0.584974 -3.8148,-3.933724 -3.5002,-10.558292 -7.7425,-10.558292 -2.9115,0 -2.9519,9.827116 -6.3553,22.666689 a 51.560066,93.489124 0 0 1 -4.7665,15.369498 h -15.2428 c -11.2347,0 -21.1871,-15.852068 -26.3809,-26.892921 -1.1291,-2.398291 -2.4196,1.082141 -4.0326,-0.584974 -3.8148,-3.933724 -3.4922,-10.558292 -7.7344,-10.558292 -2.9116,0 -2.9519,9.827116 -6.3552,22.666689 a 51.560066,93.489124 0 0 1 -4.7666,15.369498 h -15.7834 c -11.2346,0 -21.195,-15.852068 -26.3889,-26.892921 -1.121,-2.398291 -2.4196,1.082141 -4.0325,-0.584974 -3.8149,-3.933724 -3.5003,-10.558292 -7.7343,-10.558292 -2.9197,0 -2.952,9.827116 -6.3635,22.666689 a 51.560066,93.489124 0 0 1 -4.7665,15.369498 h -15.2429 c -11.2348,0 -21.195,-15.852068 -26.389,-26.892921 -1.121,-2.398291 -2.4195,1.082141 -4.0326,-0.584974 -3.8147,-3.933724 -3.5001,-10.558292 -7.7343,-10.558292 -2.9196,0 -2.9518,9.827116 -6.3633,22.666689 a 51.560066,93.489124 0 0 1 -4.7665,15.369498 l -0.1212,1.213732 h -15.3801 c -11.2346,0 -21.1869,-15.85201 -26.3809,-26.892904 -1.1291,-2.398248 -2.4194,1.082141 -4.0325,-0.584929 -3.8147,-3.93377 -3.5001,-10.558281 -7.7344,-10.558281 -2.9196,0 -2.9517,9.827101 -6.3632,22.666675 a 51.213269,92.860304 0 0 1 -4.7666,15.369439 h -15.243 c -11.2347,0 -21.187,-15.85201 -26.3809,-26.892904 -1.1291,-2.398248 -2.4195,1.082141 -4.0325,-0.584929 -3.8148,-3.93377 -3.5003,-10.558281 -7.7426,-10.558281 -2.9114,0 -2.9516,9.827101 -6.3552,22.666675 a 51.213269,92.860304 0 0 1 -4.7664,15.369439 h -15.735 c -11.2346,0 -21.1951,-15.85201 -26.389,-26.892904 -1.121,-2.398248 -2.4195,1.082141 -4.0327,-0.584929 -3.8147,-3.93377 -3.5001,-10.558281 -7.7343,-10.558281 -2.9115,0 -2.9519,9.827101 -6.3553,22.666675 a 51.721371,93.781599 0 0 1 -4.7745,15.369439 h -15.243 c -11.2347,0 -21.1951,-15.85201 -26.3889,-26.892904 -1.1212,-2.398248 -2.4196,1.082141 -4.0326,-0.584929 -3.8148,-3.93377 -3.5002,-10.558281 -7.7345,-10.558281 -2.9115,0 -2.9518,9.827101 -6.3552,22.666675 a 51.721371,93.781599 0 0 1 -4.7746,15.369439 h -15.3479 c -11.2346,0 -21.1949,-15.85201 -26.3807,-26.892904 -1.1293,-2.398248 -2.4196,1.082141 -4.0325,-0.584929 -3.8148,-3.93377 -3.4924,-10.558281 -7.7346,-10.558281 -2.9113,0 -2.9517,9.827101 -6.3553,22.666675 a 51.810085,93.942459 0 0 1 -4.7663,15.369439 h -15.2511 c -11.2347,0 -21.1952,-15.85201 -26.3809,-26.892904 -1.1291,-2.398248 -2.4195,1.082141 -4.0325,-0.584929 -3.8147,-3.93377 -3.4922,-10.558281 -7.7345,-10.558281 -2.9113,0 -2.9518,9.827101 -6.3553,22.666675 a 51.810085,93.942459 0 0 1 -4.7665,15.369439 h -15.7672 c -11.2345,0 -21.1949,-15.85201 -26.3889,-26.892904 -1.1291,-2.398248 -2.4195,1.082141 -4.0325,-0.584929 -3.8148,-3.93377 -3.5002,-10.558281 -7.7345,-10.558281 -2.9195,0 -2.9518,9.827101 -6.3633,22.666675 a 51.213269,92.860304 0 0 1 -4.7664,15.369439 h -15.243 c -11.2267,0 -21.1871,-15.85201 -26.3809,-26.892904 -1.1291,-2.398248 -2.4196,1.082141 -4.0325,-0.584929 -3.8149,-3.93377 -3.5004,-10.558281 -7.7344,-10.558281 -2.9197,0 -2.9518,9.827101 -6.3633,22.666675 a 51.213269,92.860304 0 0 1 -4.7587,15.369439 m 0,0 h -15.3235 c -11.2348,0 -21.19507,-15.852068 -26.38891,-26.89292 -1.12102,-2.398292 -2.41966,1.082141 -4.0327,-0.584975 -3.81465,-3.933724 -3.50015,-10.558292 -7.73427,-10.558292 -2.91958,0 -2.9518,9.827116 -6.36337,22.66669 a 51.560066,93.489124 0 0 1 -4.76648,15.369497 h -15.243 c -11.23467,0 -21.19504,-15.852068 -26.38896,-26.89292 -1.12911,-2.398292 -2.41951,1.082141 -4.03253,-0.584975 -3.81479,-3.933724 -3.50025,-10.558292 -7.73442,-10.558292 -2.91955,0 -2.95182,9.827116 -6.36336,22.66669 a 51.560066,93.489124 0 0 1 -4.76646,15.369497 h -15.76722 c -11.23468,0 -21.19504,-15.852068 -26.38896,-26.89292 -1.12105,-2.398292 -2.41953,1.082141 -4.03254,-0.584975 -3.81479,-3.933724 -3.49219,-10.558292 -7.73442,-10.558292 -2.9115,0 -2.95182,9.827116 -6.35528,22.66669 a 52.076235,94.425042 0 0 1 -4.77454,15.369497 h -15.24301 c -11.23466,0 -21.195,-15.852068 -26.38895,-26.89292 -1.12102,-2.398292 -2.4195,1.082141 -4.03254,-0.584975 -3.81474,-3.933724 -3.49217,-10.558292 -7.7344,-10.558292 -2.9115,0 -2.95179,9.827116 -6.35529,22.66669 a 52.076235,94.425042 0 0 1 -4.80677,15.369497 h -15.32367 c -11.23466,0 -21.18695,-15.852068 -26.3809,-26.89292 -1.12908,-2.398292 -2.41951,1.082141 -4.03253,-0.584975 -3.81478,-3.933724 -3.50026,-10.558292 -7.74246,-10.558292 -2.91152,0 -2.95184,9.827116 -6.35527,22.66669 a 51.560066,93.489124 0 0 1 -4.76649,15.369497 h -15.243 c -11.23466,0 -21.18699,-15.852068 -26.38087,-26.89292 -1.12912,-2.398292 -2.41954,1.082141 -4.03257,-0.584975 -3.81477,-3.933724 -3.49217,-10.558292 -7.73439,-10.558292 -2.91152,0 -2.95184,9.827116 -6.35529,22.66669 a 51.560066,93.489124 0 0 1 -4.76647,15.369497 h -15.78334 c -11.23467,0 -21.19505,-15.852068 -26.38896,-26.89292 -1.12107,-2.398292 -2.41955,1.082141 -4.03255,-0.584975 -3.81479,-3.933724 -3.50024,-10.558292 -7.73441,-10.558292 -2.91955,0 -2.95186,9.827116 -6.36334,22.66669 a 51.560066,93.489124 0 0 1 -4.76647,15.369497 h -15.24301 c -11.23467,0 -21.19505,-15.852068 -26.38892,-26.89292 -1.12106,-2.398292 -2.41955,1.082141 -4.03257,-0.584975 -3.8148,-3.933724 -3.50023,-10.558292 -7.7344,-10.558292 -2.9196,0 -2.95185,9.827116 -6.36337,22.66669 a 51.560066,93.489124 0 0 1 -4.76645,15.369497 l -0.1211,1.213733 h -15.37963 c -11.23465,0 -21.18698,-15.85201 -26.38091,-26.892905 -1.12908,-2.398247 -2.4195,1.082141 -4.0325,-0.584928 -3.8148,-3.93377 -3.50026,-10.558282 -7.73446,-10.558282 -2.91954,0 -2.95177,9.827102 -6.3633,22.666676 a 51.213269,92.860304 0 0 1 -4.76649,15.369439 h -15.24311 c -11.23465,0 -21.18698,-15.85201 -26.38085,-26.892905 -1.12913,-2.398247 -2.41955,1.082141 -4.03255,-0.584928 -3.81479,-3.93377 -3.50026,-10.558282 -7.7425,-10.558282 -2.91146,0 -2.95178,9.827102 -6.3553,22.666676 a 51.213269,92.860304 0 0 1 -4.76643,15.369439 h -15.73495 c -11.23468,0 -21.19507,-15.85201 -26.38897,-26.892905 -1.12107,-2.398247 -2.41954,1.082141 -4.03255,-0.584928 -3.81478,-3.93377 -3.50025,-10.558282 -7.73441,-10.558282 -2.91152,0 -2.95185,9.827102 -6.35528,22.666676 a 51.721371,93.781599 0 0 1 -4.77454,15.369439 H 308.276 c -11.23469,0 -21.19507,-15.85201 -26.38895,-26.892905 -1.12107,-2.398247 -2.41954,1.082141 -4.03254,-0.584928 -3.81481,-3.93377 -3.50026,-10.558282 -7.73441,-10.558282 -2.91154,0 -2.95185,9.827102 -6.3553,22.666676 a 51.721371,93.781599 0 0 1 -4.77452,15.369439 h -15.34785 c -11.23468,0 -21.19504,-15.85201 -26.38089,-26.892905 -1.12911,-2.398247 -2.41954,1.082141 -4.03254,-0.584928 -3.81477,-3.93377 -3.49218,-10.558282 -7.73444,-10.558282 -2.91148,0 -2.95182,9.827102 -6.35525,22.666676 a 51.810085,93.942459 0 0 1 -4.76648,15.369439 h -15.25105 c -11.23466,0 -21.19503,-15.85201 -26.38089,-26.892905 -1.1291,-2.398247 -2.4195,1.082141 -4.03255,-0.584928 -3.81478,-3.93377 -3.49215,-10.558282 -7.73439,-10.558282 -2.91149,0 -2.95182,9.827102 -6.3553,22.666676 a 51.810085,93.942459 0 0 1 -4.76646,15.369439 h -15.76721 c -11.23467,0 -21.195047,-15.85201 -26.38896,-26.892905 -1.129084,-2.398247 -2.419531,1.082141 -4.032517,-0.584928 -3.814778,-3.93377 -3.500275,-10.558282 -7.734436,-10.558282 -2.919576,0 -2.951822,9.827102 -6.363348,22.666676 A 51.213269,92.860304 0 0 1 64.799041,78.807486 H 49.556043 c -11.226587,0 -21.186964,-15.85201 -26.380877,-26.892905 -1.129112,-2.398247 -2.41951,1.082141 -4.032555,-0.584928 -3.814778,-3.93377 -3.500235,-10.558282 -7.734397,-10.558282 -2.9195858,0 -2.9518215,9.827102 -6.3633478,22.666676 A 51.213269,92.860304 0 0 1 0.28643998,78.807486" />
  <path
     id="CVP"
     vector-effect="non-scaling-stroke"
     style="display:inline;fill:none;stroke:#2597c5;stroke-width:2;stroke-linecap:round;stroke-miterlimit:10;stroke-dasharray:none;stroke-opacity:1"
     d="m 2267.5646,97.772441 c 0.4175,-9.070046 1.2001,-22.385013 2.798,-38.137421 2.4978,-24.656727 4.0175,-26.530421 4.6306,-26.530421 2.5239,0.08289 5.9936,32.823093 7.8263,32.964042 1.3043,0.107871 1.4545,-3.316313 3.3131,-3.48211 5.0937,-0.538898 6.7699,34.92891 20.2181,34.92891 8.1134,0 9.0265,0.215424 12.6266,0.215424 h 0.1119 c 0.4173,-9.056211 1.1999,-22.357372 2.7978,-38.095964 2.498,-24.656727 4.0176,-26.530422 4.6305,-26.530422 2.5242,0.08289 5.9938,32.823094 7.8266,32.964043 1.3043,0.107871 1.4543,-3.316313 3.3131,-3.48211 5.0937,-0.538888 6.7699,34.92891 20.2181,34.92891 8.1132,0 9.0263,0.215434 12.6264,0.215434 h 0.1118 c 0.4176,-9.056221 1.2002,-22.357372 2.7981,-38.095974 2.4978,-24.656727 4.0174,-26.530422 4.6305,-26.530422 2.5239,0.08289 5.9936,32.823093 7.8264,32.964042 1.3045,0.107881 1.4544,-3.316312 3.3131,-3.482109 5.0936,-0.538889 6.7698,34.928909 20.2181,34.928909 8.1134,0 9.0264,0.215435 12.6266,0.215435 h 0.1118 c 0.4173,-9.056211 1.2001,-22.357373 2.7978,-38.095965 2.4981,-24.656726 4.0177,-26.530431 4.6308,-26.530431 2.5239,0.08289 5.9936,32.823093 7.8263,32.964042 1.3043,0.107881 1.4543,-3.316303 3.3132,-3.4821 5.0936,-0.538898 6.7698,34.9289 20.2181,34.9289 8.1133,0 9.0264,0.215434 12.6266,0.215434 h 0.1118 c 0.4173,-9.056211 1.1999,-22.357372 2.7978,-38.095964 2.4978,-24.656727 4.0175,-26.530421 4.6306,-26.530421 2.5241,0.08289 5.9938,32.823093 7.8263,32.964042 1.3045,0.107871 1.4545,-3.316313 3.3133,-3.48211 5.0935,-0.538898 6.7697,34.92891 20.2179,34.92891 8.1134,0 9.0265,0.215424 12.6266,0.215424 h 0.1119 c 0.4175,-9.056211 1.2001,-22.357372 2.798,-38.095964 2.4978,-24.656727 4.0174,-26.530422 4.6305,-26.530422 2.524,0.08289 5.9936,32.823093 7.8264,32.964042 1.3043,0.107882 1.4545,-3.316312 3.3131,-3.482109 5.0937,-0.538889 6.7698,34.92891 20.2181,34.92891 8.1134,0 9.0265,0.215424 12.6266,0.215424 h 0.1119 c 0.4172,-9.056211 1.1999,-22.357362 2.7978,-38.095965 2.498,-24.656726 4.0176,-26.530421 4.6305,-26.530421 2.5241,0.08289 5.9938,32.823093 7.8266,32.964042 1.3042,0.107881 1.4542,-3.316312 3.3131,-3.48211 5.0936,-0.538888 6.7698,34.92892 20.2181,34.92892 8.1132,0 9.0262,0.215424 12.6264,0.215424 h 0.1118 c 0.4175,-9.056211 1.2001,-22.357372 2.798,-38.095964 2.4979,-24.656727 4.0175,-26.530431 4.6306,-26.530431 2.5241,0.08289 5.9938,32.823093 7.8263,32.964042 1.3045,0.107881 1.4545,-3.316303 3.3131,-3.4821 5.0937,-0.538898 6.7699,34.9289 20.2182,34.9289 8.1133,0 9.0264,0.215434 12.6266,0.215434 h 0.1118 c 0.4173,-9.056211 1.2001,-22.357372 2.7978,-38.095964 2.498,-24.656727 4.0177,-26.530422 4.6308,-26.530422 2.5239,0.08289 5.9936,32.823094 7.8263,32.964043 1.3043,0.107871 1.4543,-3.316313 3.3131,-3.48211 5.0937,-0.538898 6.7699,34.9289 20.2181,34.9289 8.1134,0 9.0265,0.215434 12.6264,0.215434 h 0.1119 c 0.4175,-9.056211 1.2001,-22.357372 2.798,-38.095964 2.4978,-24.656727 4.0174,-26.530422 4.6305,-26.530422 2.524,0.08289 5.9936,32.823083 7.8264,32.964042 1.3043,0.107871 1.4545,-3.316312 3.3131,-3.482109 5.0937,-0.538899 6.7698,34.928909 20.2181,34.928909 8.1134,0 9.0265,0.215425 12.6266,0.215425 h 0.1097 c 0.4175,-9.056211 1.2001,-22.357372 2.7978,-38.095965 2.498,-24.656726 4.0176,-26.530421 4.6307,-26.530421 2.5239,0.08289 5.9936,32.823093 7.8264,32.964042 1.3042,0.107871 1.4542,-3.316313 3.3131,-3.48211 5.0936,-0.538888 6.7698,34.9289 20.2181,34.9289 8.1134,0 9.0265,0.215434 12.6264,0.215434 h 0.1118 c 0.4175,-9.056211 1.2001,-22.357372 2.798,-38.095964 2.4979,-24.656727 4.0177,-26.530421 4.6306,-26.530421 2.5239,0.08289 5.9938,32.823093 7.8263,32.964042 1.3045,0.107871 1.4545,-3.316313 3.3131,-3.48211 5.0939,-0.538888 6.7699,34.92891 20.2182,34.92891 8.1133,0 9.0264,0.215424 12.6266,0.215424 h 0.1118 c 0.4175,-9.056211 1.2001,-22.357372 2.798,-38.095964 2.4978,-24.656727 4.0175,-26.530422 4.6306,-26.530422 2.5241,0.08289 5.9936,32.823094 7.8263,32.964043 1.3045,0.107881 1.4543,-3.316313 3.3131,-3.48211 5.0937,-0.538889 6.7699,34.92891 20.2181,34.92891 8.1134,0 9.0265,0.215424 12.6266,0.215424 h 0.1119 c 0.4175,-9.056211 1.2001,-22.357372 2.798,-38.095965 2.4978,-24.656726 4.0174,-26.530421 4.6306,-26.530421 2.5239,0.08289 5.9935,32.823093 7.8263,32.964042 1.3043,0.107881 1.4543,-3.316312 3.3131,-3.48211 5.0937,-0.538888 6.7699,34.92891 20.2181,34.92891 8.1134,0 9.0265,0.215434 12.6266,0.215434 h 0.1097 c 0.4175,-9.056221 1.1999,-22.357382 2.7978,-38.095974 2.498,-24.656726 4.0176,-26.530421 4.6307,-26.530421 2.524,0.08289 5.9936,32.823093 7.8264,32.964042 1.3043,0.107881 1.4543,-3.316313 3.3131,-3.48211 5.0937,-0.538888 6.7698,34.92891 20.2181,34.92891 8.1132,0 9.0263,0.215424 12.6264,0.215424 h 0.1118 c 0.4178,-9.056211 1.2002,-22.357362 2.7981,-38.095964 2.4978,-24.656727 4.0174,-26.530421 4.6305,-26.530421 2.5241,0.08289 5.9938,32.823093 7.8263,32.964042 1.3045,0.107881 1.4545,-3.316313 3.3134,-3.48211 5.0936,-0.538888 6.7696,34.92891 20.2179,34.92891 8.1134,0 9.0264,0.215434 12.6266,0.215434 h 0.1118 c 0.4175,-9.056211 1.1999,-22.357372 2.7978,-38.095974 2.4981,-24.656727 4.0177,-26.530422 4.6308,-26.530422 2.5239,0.08289 5.9936,32.823093 7.8263,32.964042 1.3043,0.107881 1.4543,-3.316312 3.3131,-3.482109 5.0937,-0.538889 6.7699,34.92891 20.2182,34.92891 8.1133,0 9.0264,0.215434 12.6266,0.215434 h 0.1118 c 0.4175,-9.056221 1.1999,-22.357372 2.7978,-38.095965 2.498,-24.656726 4.0174,-26.530431 4.6306,-26.530431 2.5241,0.08289 5.9935,32.823093 7.8263,32.964042 1.3045,0.107881 1.4545,-3.316302 3.3131,-3.4821 5.0937,-0.538898 6.7699,34.9289 20.2181,34.9289 8.1134,0 9.0265,0.215434 12.6266,0.215434 h 0.1119 c 0.4175,-9.056211 1.2001,-22.357372 2.7978,-38.095964 2.498,-24.656737 4.0176,-26.530431 4.6307,-26.530431 2.524,0.08289 5.9936,32.823103 7.8264,32.964052 1.3043,0.107871 1.4542,-3.316313 3.3131,-3.48211 5.0937,-0.538898 6.7698,34.9289 20.2181,34.9289 8.1134,0 9.0265,0.215434 12.6264,0.215434 h 0.1118 c 0.4178,-9.056211 1.2002,-22.357372 2.798,-38.095964 2.4979,-24.656727 4.0175,-26.530422 4.6306,-26.530422 2.5239,0.08289 5.9936,32.823084 7.8263,32.964043 1.3045,0.107871 1.4545,-3.316313 3.3132,-3.48211 5.0936,-0.538898 6.7698,34.9289 20.2181,34.9289 8.1133,0 9.0264,0.215434 12.6266,0.215434 h 0.1118 c 0.4175,-9.056211 1.1999,-22.357372 2.7978,-38.095965 2.4978,-24.656726 4.0177,-26.530431 4.6306,-26.530431 2.5241,0.08289 5.9938,32.823093 7.8263,32.964052 1.3045,0.107871 1.4545,-3.316312 3.3133,-3.48211 5.0937,-0.538888 6.7697,34.92891 20.2181,34.92891 8.1132,0 9.0263,0.215424 12.6264,0.215424 h 0.1119 c 0.4175,-9.05621 1.2001,-22.357372 2.798,-38.095964 2.4978,-24.656726 4.0174,-26.530421 4.6305,-26.530421 2.5242,0.08289 5.9936,32.823093 7.8264,32.964042 1.3045,0.107871 1.4545,-3.316313 3.3131,-3.48211 5.0937,-0.538898 6.7698,34.92891 20.2183,34.92891 8.1132,0 9.0263,0.215424 12.6264,0.215424 h 0.1119 c 0.4175,-9.056211 1.2001,-22.357372 2.7978,-38.095964 2.498,-24.656727 4.0176,-26.530421 4.6307,-26.530421 2.5239,0.08289 5.9936,32.823093 7.8264,32.964042 1.3043,0.107881 1.4542,-3.316313 3.3131,-3.48211 5.0936,-0.538888 6.7698,34.92891 20.2181,34.92891 8.1134,0 9.0265,0.215434 12.6266,0.215434 h 0.1096 c 0.4176,-9.056221 1.1999,-22.357372 2.7978,-38.095974 2.4981,-24.656727 4.0175,-26.530422 4.6306,-26.530422 2.5241,0.08289 5.9938,32.823093 7.8263,32.964042 1.3045,0.107882 1.4545,-3.316302 3.3134,-3.482109 5.0936,-0.538889 6.7698,34.92891 20.2181,34.92891 8.1131,0 9.0262,0.215434 12.6264,0.215434 h 0.1118 c 0.4175,-9.056211 1.2001,-22.357372 2.798,-38.095965 2.4979,-24.656726 4.0175,-26.530421 4.6306,-26.530421 2.5239,0.08289 5.9938,32.823083 7.8263,32.964042 1.3045,0.107871 1.4545,-3.316312 3.3131,-3.48211 5.0937,-0.538888 6.7699,34.9289 20.2181,34.9289 8.1134,0 9.0265,0.215434 12.6267,0.215434 h 0.1118 c 0.4175,-9.056211 1.2001,-22.357372 2.798,-38.095964 2.4978,-24.656727 4.0175,-26.530421 4.6306,-26.530421 2.5239,0.08289 5.9936,32.823093 7.8263,32.964042 1.3043,0.107871 1.4543,-3.316313 3.3131,-3.48211 5.0937,-0.538898 6.7699,34.92891 20.2181,34.92891 8.1134,0 9.0265,0.215424 12.6266,0.215424 h 0.1119 c 0.4175,-9.056211 1.1999,-22.357372 2.7978,-38.095964 2.498,-24.656727 4.0176,-26.530422 4.6307,-26.530422 2.524,0.08289 5.9936,32.823094 7.8262,32.964043 1.3045,0.107881 1.4545,-3.316313 3.3131,-3.48211 5.0936,-0.538888 6.7698,34.92891 20.2181,34.92891 8.1134,0 9.0265,0.215424 12.6266,0.215424 h 0.1096 c 0.4176,-9.056211 1.1999,-22.357362 2.7981,-38.095964 2.4978,-24.656727 4.0174,-26.530422 4.6305,-26.530422 2.5239,0.08289 5.9936,32.823093 7.8264,32.964042 1.3042,0.107881 1.4542,-3.316302 3.3131,-3.48211 5.0936,-0.538888 6.7698,34.92892 20.2181,34.92892 8.1134,0 9.0264,0.215424 12.6264,0.215424 h 0.1118 c 0.4177,-9.05621 1.2001,-22.357372 2.798,-38.095964 2.4979,-24.656726 4.0175,-26.530421 4.6306,-26.530421 2.5239,0.08289 5.9936,32.823083 7.8263,32.964042 1.3045,0.107871 1.4545,-3.316313 3.3134,-3.48211 5.0934,-0.538898 6.7696,34.92891 20.2178,34.92891 8.1134,0 9.0265,0.215424 12.6267,0.215424 h 0.1118 c 0.4175,-9.056211 1.1999,-22.357372 2.7978,-38.095964 2.498,-24.656727 4.0177,-26.530421 4.6305,-26.530421 2.5242,0.08289 5.9939,32.823093 7.8266,32.964042 1.3043,0.107871 1.4543,-3.316313 3.3131,-3.48211 5.0937,-0.538888 6.7696,34.9289 20.2181,34.9289 8.1132,0 9.0263,0.215434 12.6264,0.215434 h 0.1119 c 0.4175,-9.056211 1.2001,-22.357372 2.798,-38.095964 2.4978,-24.656727 4.0174,-26.530422 4.6305,-26.530422 2.5239,0.08289 5.9936,32.823093 7.8264,32.964042 1.3042,0.107872 1.4545,-3.316312 3.3131,-3.482109 5.0936,-0.538899 6.7698,34.92891 20.2181,34.92891 8.1134,0 9.0265,0.215424 12.6266,0.215424 h 0.1118 c 0.4175,-9.056211 1.1999,-22.357372 2.7978,-38.095965 2.4981,-24.656726 4.0177,-26.530421 4.6308,-26.530421 2.5239,0.08289 5.9936,32.823093 7.8263,32.964042 1.3043,0.107881 1.4543,-3.316312 3.3132,-3.48211 5.0936,-0.538888 6.7698,34.9289 20.2181,34.9289 8.1134,0 9.0262,0.215434 12.6264,0.215434 h 0.1118 c 0.4177,-9.056211 1.2001,-22.357372 2.798,-38.095964 2.4978,-24.656727 4.0177,-26.530421 4.6306,-26.530421 2.5241,0.08289 5.9938,32.823093 7.8263,32.964042 1.3045,0.107881 1.4545,-3.316313 3.3131,-3.48211 5.0939,-0.538888 6.7699,34.92891 20.2184,34.92891 8.1131,0 9.0262,0.215434 12.6263,0.215434 h 0.1119 c 0.4175,-9.056221 1.2001,-22.357382 2.798,-38.095974 2.4978,-24.656727 4.0174,-26.530421 4.6306,-26.530421 2.5239,0.08289 5.9935,32.823093 7.8263,32.964042 1.3045,0.107881 1.4543,-3.316313 3.3131,-3.48211 5.0937,-0.538888 6.7699,34.92891 20.2181,34.92891 8.1134,0 9.0265,0.215424 12.6266,0.215424 h 0.1119 c 0.4175,-9.056211 1.2001,-22.357362 2.7978,-38.095964 2.498,-24.656727 4.0176,-26.530422 4.6307,-26.530422 2.524,0.08289 5.9936,32.823093 7.8264,32.964042 1.3043,0.107881 1.4542,-3.316312 3.3131,-3.482109 5.0937,-0.538889 6.7698,34.928919 20.2181,34.928919 8.1132,0 9.0262,0.215425 12.6264,0.215425 h 0.1118 c 0.4178,-9.056221 1.2002,-22.357382 2.798,-38.095975 2.4979,-24.656726 4.0175,-26.530421 4.6306,-26.530421 2.5239,0.08289 5.9938,32.823093 7.8263,32.964042 1.3045,0.107881 1.4545,-3.316312 3.3134,-3.48211 5.0936,-0.538888 6.7698,34.92891 20.2181,34.92891 8.1131,0 9.0262,0.215424 12.6266,0.215424 h 0.1118 c 0.4175,-9.056211 1.1999,-22.357362 2.7976,-38.095954 2.4981,-24.656737 4.0179,-26.530431 4.631,-26.530431 2.5237,0.08289 5.9936,32.823093 7.8263,32.964042 1.3043,0.107881 1.4543,-3.316303 3.3132,-3.4821 5.0936,-0.538898 6.7696,34.9289 20.2178,34.9289 8.1134,0 9.0265,0.215434 12.6267,0.215434 h 0.1118 c 0.4175,-9.056211 1.2001,-22.357372 2.7978,-38.095974 2.498,-24.656727 4.0177,-26.530422 4.6305,-26.530422 2.5242,0.08289 5.9939,32.823094 7.8266,32.964053 1.3043,0.107871 1.4541,-3.316313 3.3129,-3.48211 5.0937,-0.538899 6.7698,34.9289 20.2183,34.9289 8.1132,0 9.0263,0.215434 12.6264,0.215434 h 0.1119 c 0.4177,-9.056211 1.2003,-22.357372 2.798,-38.095965 2.498,-24.656726 4.0176,-26.530421 4.6305,-26.530421 2.5242,0.08289 5.9938,32.823083 7.8266,32.964042 1.3043,0.107871 1.4543,-3.316312 3.3129,-3.48211 5.0936,-0.538898 6.7701,34.9289 20.2183,34.9289 8.1132,0 9.0263,0.215434 12.6266,0.215434 h 0.1119 c 0.4177,-9.056211 1.2003,-22.357372 2.7978,-38.095964 2.4982,-24.656726 4.0178,-26.530431 4.6307,-26.530431 2.5242,0.08289 5.9936,32.823093 7.8268,32.964052 1.3043,0.107871 1.4541,-3.316313 3.3127,-3.48211 5.0937,-0.538898 6.7701,34.92891 20.2181,34.92891 8.1136,0 9.0267,0.215424 12.6268,0.215424 h 0.1119 c 0.4175,-9.056211 1.2001,-22.357372 2.798,-38.095964 2.4978,-24.656727 4.0174,-26.530421 4.6305,-26.530421 2.5239,0.08289 5.9936,32.823093 7.8264,32.964042 1.3043,0.107871 1.4542,-3.316313 3.3131,-3.48211 5.0937,-0.538898 6.7698,34.9289 20.2181,34.9289 8.1132,0 9.0262,0.215434 12.6266,0.215434 h 0.1118 c 0.4176,-9.056211 1.2004,-22.357372 2.7983,-38.095964 2.4978,-24.656727 4.0174,-26.530422 4.6305,-26.530422 2.524,0.08289 5.9936,32.823093 7.8262,32.964042 1.3045,0.107881 1.4547,-3.316312 3.3133,-3.482109 5.0937,-0.538889 6.7698,34.92891 20.2181,34.92891 8.1132,0 9.0262,0.215424 12.6266,0.215424 h 0.1118 c 0.4176,-9.056211 1.2002,-22.357372 2.7978,-38.095965 2.4981,-24.656726 4.0179,-26.530421 4.6308,-26.530421 2.5239,0.08289 5.9936,32.823093 7.8264,32.964042 1.3045,0.107881 1.4544,-3.316312 3.3131,-3.48211 5.0936,-0.538888 6.7698,34.92891 20.2181,34.92891 8.1131,0 9.0262,0.215424 12.6264,0.215424 h 0.1118 c 0.4175,-9.056201 1.2001,-22.357362 2.798,-38.095964 2.4979,-24.656727 4.0175,-26.530421 4.6304,-26.530421 2.5241,0.08289 5.9938,32.823093 7.8265,32.964042 1.3045,0.107881 1.4543,-3.316313 3.3131,-3.48211 5.0937,-0.538888 6.7701,34.92891 20.2184,34.92891 8.1131,0 9.0262,0.215434 12.6261,0.215434 h 0.1119 M 0.52764131,97.819076 C 0.94504624,88.749027 1.7276806,75.434055 3.3255614,59.68165 5.8234769,35.024923 7.3430906,33.151227 7.9561559,33.151227 c 2.5240071,0.08292 5.9936891,32.823092 7.8263631,32.964042 1.30439,0.107877 1.454396,-3.31631 3.313155,-3.48211 5.093661,-0.538891 6.769802,34.92891 20.218098,34.92891 8.113329,0 9.026401,0.215431 12.626532,0.215431 h 0.11089 c 0.417405,-9.056212 1.20004,-22.357372 2.79792,-38.095966 2.497917,-24.656728 4.017538,-26.530423 4.630603,-26.530423 2.523999,0.08291 5.99368,32.823091 7.826355,32.964042 1.304389,0.107877 1.454394,-3.31631 3.313159,-3.482108 5.093654,-0.53889 6.769802,34.928905 20.218095,34.928905 8.113327,0 9.026405,0.215441 12.626524,0.215441 h 0.11089 c 0.41741,-9.056222 1.20005,-22.35738 2.79793,-38.095974 2.49791,-24.656727 4.01753,-26.530424 4.6306,-26.530424 2.524,0.08292 5.99369,32.823092 7.82636,32.964043 1.30439,0.107877 1.4544,-3.31631 3.31316,-3.48211 5.09366,-0.538892 6.7698,34.928905 20.21809,34.928905 8.11333,0 9.0264,0.215441 12.62653,0.215441 h 0.11089 c 0.4174,-9.056219 1.20004,-22.357377 2.79792,-38.095972 2.49791,-24.656727 4.01753,-26.530424 4.63059,-26.530424 2.52401,0.08292 5.99369,32.823092 7.82636,32.964043 1.30439,0.107877 1.4544,-3.316309 3.31316,-3.482108 5.09366,-0.53889 6.7698,34.9289 20.2181,34.9289 8.11333,0 9.02639,0.215441 12.62653,0.215441 h 0.11085 c 0.4174,-9.056217 1.20002,-22.357375 2.7979,-38.095969 2.49793,-24.656727 4.01752,-26.530423 4.6306,-26.530423 2.524,0.08292 5.99369,32.823092 7.82635,32.964042 1.3044,0.107877 1.45443,-3.31631 3.31318,-3.48211 5.09363,-0.53889 6.76979,34.92891 20.21809,34.92891 8.11334,0 9.0264,0.215431 12.62653,0.215431 h 0.11095 c 0.4174,-9.056214 1.20004,-22.357372 2.79791,-38.095966 2.49794,-24.656728 4.01755,-26.530424 4.6306,-26.530424 2.524,0.08292 5.9937,32.823093 7.82636,32.964043 1.30439,0.107877 1.45442,-3.31631 3.31318,-3.482108 5.09365,-0.538893 6.76978,34.928905 20.21806,34.928905 8.11334,0 9.02645,0.215431 12.62655,0.215431 h 0.11074 c 0.4174,-9.056212 1.20004,-22.35737 2.79793,-38.095964 2.4979,-24.656727 4.01753,-26.530424 4.6306,-26.530424 2.524,0.08292 5.99368,32.823093 7.82638,32.964042 1.30437,0.107877 1.45436,-3.316309 3.31312,-3.482109 5.09369,-0.538891 6.76982,34.928914 20.21811,34.928914 8.11331,0 9.0264,0.215431 12.62655,0.215431 h 0.11073 c 0.4174,-9.056218 1.20006,-22.357377 2.79793,-38.095971 2.49792,-24.656727 4.01753,-26.530424 4.6306,-26.530424 2.52403,0.08292 5.99368,32.823093 7.82636,32.964043 1.30437,0.107877 1.45438,-3.31631 3.31316,-3.482107 5.09367,-0.538894 6.7698,34.928899 20.21811,34.928899 8.11334,0 9.02638,0.215441 12.6265,0.215441 h 0.11074 c 0.4174,-9.056217 1.20004,-22.357374 2.79791,-38.095969 2.49794,-24.656727 4.01753,-26.530423 4.63059,-26.530423 2.52399,0.08292 5.99371,32.823092 7.82635,32.964042 1.30443,0.107877 1.45442,-3.316313 3.31317,-3.48211 5.09365,-0.53889 6.76981,34.9289 20.21811,34.9289 8.11332,0 9.02641,0.215441 12.62649,0.215441 h 0.11074 c 0.41753,-9.056217 1.20001,-22.357375 2.79786,-38.095969 2.49789,-24.656728 4.01755,-26.530424 4.63059,-26.530424 2.52406,0.08292 5.99369,32.823092 7.82641,32.964043 1.30435,0.107877 1.45438,-3.31631 3.31311,-3.482108 5.09367,-0.538894 6.76981,34.928908 20.21816,34.928908 8.11329,0 9.02633,0.215431 12.62648,0.215431 h 0.11074 c 0.41753,-9.056215 1.20008,-22.357376 2.79795,-38.095968 2.4979,-24.656726 4.01755,-26.530423 4.6306,-26.530423 2.52403,0.08292 5.99368,32.823092 7.82632,32.964042 1.30443,0.107877 1.45447,-3.316312 3.31318,-3.48211 5.09369,-0.53889 6.76985,34.928898 20.21813,34.928898 8.11334,0 9.02644,0.215441 12.6265,0.215441 h 0.11096 c 0.41751,-9.056215 1.20006,-22.357373 2.79795,-38.095968 2.4979,-24.656726 4.01753,-26.530422 4.63057,-26.530422 2.52397,0.08291 5.99371,32.823091 7.82635,32.964042 1.30441,0.107877 1.45446,-3.31631 3.31315,-3.482108 5.09369,-0.538893 6.76985,34.928906 20.21809,34.928906 8.11332,0 9.0264,0.215431 12.62657,0.215431 h 0.11074 c 0.41753,-9.056213 1.20008,-22.357373 2.79795,-38.095965 2.49787,-24.656727 4.01755,-26.530427 4.6306,-26.530427 2.52403,0.08292 5.99368,32.823096 7.82634,32.964047 1.30444,0.107876 1.45436,-3.316314 3.31316,-3.482111 5.09369,-0.538891 6.76982,34.928906 20.21808,34.928906 8.11339,0 9.0264,0.215431 12.62658,0.215431 h 0.11073 c 0.41753,-9.056214 1.20006,-22.357371 2.79793,-38.095966 2.49792,-24.656727 4.01751,-26.530424 4.63062,-26.530424 2.52396,0.08292 5.99371,32.823092 7.82634,32.964042 1.30442,0.107878 1.45438,-3.316308 3.31316,-3.482106 5.09367,-0.538894 6.76974,34.928904 20.21806,34.928904 8.11332,0 9.02643,0.215441 12.62658,0.215441 h 0.11073 c 0.41756,-9.056221 1.20008,-22.357382 2.79796,-38.095977 2.49789,-24.656727 4.0175,-26.530423 4.63059,-26.530423 2.52396,0.08292 5.99371,32.823095 7.82634,32.964045 1.30437,0.107878 1.45438,-3.316312 3.31318,-3.48211 5.0936,-0.538891 6.76983,34.928904 20.21807,34.928904 8.11331,0 9.0264,0.215431 12.62657,0.215431 h 0.11073 c 0.41754,-9.056212 1.20008,-22.357369 2.79794,-38.095964 2.49791,-24.656727 4.0175,-26.530423 4.63061,-26.530423 2.52397,0.08292 5.99371,32.823093 7.82637,32.964042 1.30441,0.107877 1.45435,-3.31631 3.31313,-3.482107 5.09369,-0.538893 6.76976,34.928902 20.21809,34.928902 8.11332,0 9.0264,0.215441 12.62648,0.215441 h 0.11074 c 0.41755,-9.056219 1.20001,-22.35738 2.79789,-38.095974 2.49796,-24.656728 4.01755,-26.530424 4.63066,-26.530424 2.52396,0.08292 5.99364,32.823096 7.82632,32.964046 1.30437,0.107877 1.4544,-3.316313 3.3132,-3.482111 5.0936,-0.538891 6.76974,34.928903 20.21804,34.928903 8.11334,0 9.02645,0.215441 12.62657,0.215441 h 0.11074 c 0.41753,-9.05622 1.19999,-22.357378 2.79793,-38.095973 2.49792,-24.656726 4.01749,-26.530423 4.63055,-26.530423 2.52401,0.08292 5.99366,32.823092 7.82639,32.964043 1.30435,0.107876 1.4544,-3.31631 3.31311,-3.482108 5.09367,-0.538893 6.76983,34.9289 20.21813,34.9289 8.11332,0 9.0264,0.215441 12.62651,0.215441 h 0.11073 c 0.41756,-9.056216 1.20004,-22.357378 2.79789,-38.095972 2.49796,-24.656727 4.01757,-26.530423 4.6306,-26.530423 2.52405,0.08291 5.9937,32.823095 7.82643,32.964045 1.30437,0.107877 1.45435,-3.316313 3.31315,-3.482111 5.09361,-0.53889 6.76976,34.928901 20.21809,34.928901 8.11332,0 9.0264,0.215441 12.62646,0.215441 h 0.11096 c 0.41755,-9.056218 1.20001,-22.357376 2.79789,-38.09597 2.49795,-24.656727 4.01753,-26.530423 4.63059,-26.530423 2.52403,0.08291 5.99368,32.823092 7.82641,32.964043 1.30435,0.107877 1.45438,-3.316311 3.31309,-3.482111 5.09371,-0.538891 6.76981,34.928901 20.21811,34.928901 8.1133,0 9.0264,0.215441 12.6265,0.215441 h 0.1108 c 0.4175,-9.056215 1.2,-22.357376 2.7978,-38.095971 2.4979,-24.656727 4.0176,-26.530424 4.6306,-26.530424 2.5241,0.08292 5.9937,32.823093 7.8264,32.964046 1.3044,0.107878 1.4544,-3.316312 3.3131,-3.48211 5.0937,-0.538891 6.7699,34.928909 20.2182,34.928909 8.1133,0 9.0264,0.215431 12.6265,0.215431 h 0.1107 c 0.4176,-9.056216 1.2001,-22.357373 2.798,-38.095969 2.4979,-24.656727 4.0175,-26.530423 4.6306,-26.530423 2.524,0.08292 5.9936,32.823092 7.8263,32.964042 1.3045,0.107878 1.4545,-3.316308 3.3132,-3.48211 5.0936,-0.538891 6.7698,34.928909 20.2181,34.928909 8.1133,0 9.0264,0.215431 12.6265,0.215431 h 0.111 c 0.4175,-9.05621 1.2,-22.357371 2.7979,-38.095966 2.4979,-24.656727 4.0176,-26.530422 4.6306,-26.530422 2.524,0.08292 5.9937,32.823091 7.8263,32.964042 1.3045,0.107877 1.4544,-3.31631 3.3132,-3.482108 5.0937,-0.53889 6.7698,34.928904 20.2181,34.928904 8.1134,0 9.0264,0.215441 12.6265,0.215441 h 0.1108 c 0.4175,-9.05622 1.2001,-22.357378 2.7979,-38.095973 2.4979,-24.656728 4.0175,-26.530424 4.6306,-26.530424 2.524,0.08292 5.9937,32.823093 7.8264,32.964044 1.3044,0.107877 1.4543,-3.316311 3.3131,-3.482111 5.0937,-0.538891 6.7699,34.928904 20.2181,34.928904 8.1133,0 9.0264,0.215441 12.6266,0.215441 h 0.1107 c 0.4176,-9.056218 1.2001,-22.357376 2.798,-38.09597 2.4978,-24.656728 4.0174,-26.530424 4.6305,-26.530424 2.524,0.08291 5.9937,32.823091 7.8264,32.964042 1.3044,0.107877 1.4544,-3.316309 3.3132,-3.482108 5.0936,-0.538889 6.7698,34.928899 20.218,34.928899 8.1134,0 9.0265,0.215441 12.6266,0.215441 h 0.1107 c 0.4176,-9.056215 1.2001,-22.357373 2.798,-38.095967 2.4979,-24.656727 4.0174,-26.530424 4.6305,-26.530424 2.524,0.08292 5.9938,32.823092 7.8264,32.964043 1.3044,0.107877 1.4544,-3.316311 3.3132,-3.482111 5.0936,-0.538891 6.7697,34.928909 20.2181,34.928909 8.1132,0 9.0264,0.215431 12.6265,0.215431 h 0.1107 c 0.4176,-9.056213 1.2001,-22.357371 2.7979,-38.095965 2.498,-24.656727 4.0176,-26.530423 4.6307,-26.530423 2.5239,0.08292 5.9936,32.823091 7.8263,32.964042 1.3044,0.107877 1.4544,-3.31631 3.3132,-3.482108 5.0936,-0.538893 6.7698,34.928904 20.2181,34.928904 8.1133,0 9.0264,0.215431 12.6265,0.215431 h 0.1108 c 0.4175,-9.056211 1.2,-22.357368 2.7979,-38.095963 2.4979,-24.656727 4.0175,-26.530424 4.6305,-26.530424 2.524,0.08292 5.9937,32.823092 7.8265,32.964043 1.3043,0.107878 1.4543,-3.31631 3.313,-3.48211 5.0937,-0.538891 6.7699,34.928914 20.2182,34.928914 8.1133,0 9.0264,0.215431 12.6265,0.215431 h 0.1109 c 0.4176,-9.056218 1.2,-22.357376 2.7979,-38.095971 2.498,-24.656726 4.0176,-26.530423 4.6306,-26.530423 2.524,0.08292 5.9937,32.823092 7.8264,32.964042 1.3044,0.107877 1.4544,-3.316309 3.3132,-3.482108 5.0936,-0.538893 6.7697,34.928909 20.218,34.928909 8.1134,0 9.0265,0.215431 12.6265,0.215431 h 0.111 c 0.4175,-9.056216 1.2,-22.357373 2.7979,-38.095968 2.4979,-24.656727 4.0175,-26.530423 4.6306,-26.530423 2.524,0.08292 5.9936,32.823092 7.8264,32.964043 1.3043,0.107877 1.4544,-3.316313 3.3131,-3.482111 5.0936,-0.53889 6.7698,34.928899 20.2181,34.928899 8.1133,0 9.0264,0.215441 12.6265,0.215441 h 0.111 c 0.4175,-9.056216 1.2,-22.357374 2.7978,-38.095968 2.4979,-24.656728 4.0176,-26.530424 4.6306,-26.530424 2.5241,0.08292 5.9937,32.823093 7.8264,32.964043 1.3044,0.107877 1.4544,-3.31631 3.3131,-3.482108 5.0937,-0.538893 6.7699,34.928907 20.2182,34.928907 8.1133,0 9.0264,0.215431 12.6265,0.215431 h 0.1107 c 0.4176,-9.056213 1.2001,-22.357374 2.798,-38.095965 2.4979,-24.656728 4.0175,-26.530425 4.6306,-26.530425 2.524,0.08292 5.9937,32.823092 7.8263,32.964043 1.3045,0.107877 1.4545,-3.316312 3.3132,-3.48211 5.0937,-0.538892 6.7698,34.928897 20.2181,34.928897 8.1134,0 9.0264,0.215441 12.6265,0.215441 h 0.111 c 0.4175,-9.056215 1.2001,-22.357373 2.7979,-38.095968 2.4979,-24.656726 4.0176,-26.530423 4.6306,-26.530423 2.5241,0.08292 5.9937,32.823093 7.8264,32.964043 1.3044,0.107877 1.4543,-3.31631 3.3131,-3.482107 5.0937,-0.538894 6.7699,34.928904 20.2182,34.928904 8.1133,0 9.0263,0.215441 12.6265,0.215441 h 0.1109 c 0.4176,-9.056222 1.2001,-22.357382 2.798,-38.095974 2.4979,-24.656728 4.0175,-26.530426 4.6306,-26.530426 2.5239,0.08292 5.9936,32.823095 7.8263,32.964045 1.3044,0.107878 1.4544,-3.316313 3.3132,-3.48211 5.0936,-0.538891 6.7698,34.928905 20.218,34.928905 8.1134,0 9.0265,0.215431 12.6266,0.215431 h 0.111 c 0.4175,-9.056213 1.2,-22.35737 2.7979,-38.095965 2.4979,-24.656727 4.0175,-26.530424 4.6306,-26.530424 2.524,0.08292 5.9937,32.823094 7.8263,32.964044 1.3045,0.107877 1.4544,-3.31631 3.3132,-3.482107 5.0937,-0.538895 6.7699,34.928912 20.2181,34.928912 8.1133,0 9.0264,0.215431 12.6265,0.215431 h 0.111 c 0.4175,-9.05622 1.2001,-22.357381 2.7979,-38.095976 2.4979,-24.656726 4.0175,-26.530423 4.6306,-26.530423 2.524,0.08292 5.9937,32.823095 7.8264,32.964045 1.3045,0.107878 1.4545,-3.316312 3.3132,-3.482111 5.0937,-0.538889 6.7699,34.928904 20.2182,34.928904 8.113,0 9.0263,0.215431 12.6265,0.215431 h 0.1109 c 0.4175,-9.05621 1.2,-22.357368 2.7978,-38.095962 2.4979,-24.656727 4.0178,-26.530424 4.6308,-26.530424 2.5238,0.08292 5.9936,32.823093 7.8264,32.964043 1.3044,0.107877 1.4544,-3.316311 3.3131,-3.482108 5.0937,-0.538893 6.7697,34.928901 20.218,34.928901 8.1134,0 9.0263,0.215441 12.6265,0.215441 h 0.1109 c 0.4177,-9.056218 1.2001,-22.357379 2.7979,-38.095973 2.498,-24.656728 4.0177,-26.530423 4.6305,-26.530423 2.5241,0.08291 5.9938,32.823095 7.8266,32.964045 1.3044,0.107877 1.4541,-3.316313 3.3129,-3.48211 5.0937,-0.53889 6.7699,34.928901 20.2183,34.928901 8.1133,0 9.0264,0.215441 12.6265,0.215441 h 0.111 c 0.4177,-9.056218 1.2003,-22.357376 2.7979,-38.09597 2.4981,-24.656728 4.0176,-26.530424 4.6306,-26.530424 2.5242,0.08291 5.9939,32.823091 7.8264,32.964042 1.3044,0.107877 1.4544,-3.316309 3.313,-3.482107 5.0937,-0.538895 6.7701,34.928899 20.2183,34.928899 8.1132,0 9.0263,0.215441 12.6267,0.215441 h 0.1109 c 0.4177,-9.056216 1.2003,-22.357377 2.7979,-38.095973 2.4982,-24.656726 4.0179,-26.530423 4.6307,-26.530423 2.5241,0.08292 5.9936,32.823093 7.8267,32.964046 1.3043,0.107877 1.454,-3.316312 3.3128,-3.48211 5.0937,-0.538891 6.7699,34.928909 20.2181,34.928909 8.1135,0 9.0266,0.215431 12.6267,0.215431 h 0.111 c 0.4175,-9.056217 1.2001,-22.357374 2.7981,-38.095969 2.4977,-24.656728 4.0174,-26.530423 4.6304,-26.530423 2.524,0.08292 5.9937,32.823092 7.8264,32.964043 1.3044,0.107877 1.4544,-3.31631 3.3132,-3.482111 5.0936,-0.53889 6.7698,34.9289 20.2181,34.9289 8.1132,0 9.0263,0.215441 12.6266,0.215441 h 0.111 c 0.4175,-9.056214 1.2003,-22.357374 2.7981,-38.095969 2.4979,-24.656728 4.0175,-26.530425 4.6306,-26.530425 2.524,0.08292 5.9937,32.823094 7.8263,32.964047 1.3044,0.107877 1.4545,-3.316313 3.3131,-3.48211 5.0937,-0.538892 6.7699,34.928907 20.2181,34.928907 8.1133,0 9.0264,0.215431 12.6267,0.215431 h 0.111 c 0.4175,-9.056215 1.2001,-22.357372 2.7979,-38.095968 2.4979,-24.656726 4.0178,-26.530423 4.6306,-26.530423 2.524,0.08292 5.9936,32.823092 7.8264,32.964042 1.3046,0.107878 1.4544,-3.316308 3.3132,-3.482111 5.0936,-0.538889 6.7698,34.928909 20.2181,34.928909 8.1132,0 9.0263,0.215431 12.6264,0.215431 h 0.1118 c 0.4175,-9.056208 1.2002,-22.357369 2.7981,-38.095965 2.4978,-24.656726 4.0174,-26.530423 4.6303,-26.530423 2.5241,0.08292 5.9938,32.823093 7.8265,32.964043 1.3045,0.107878 1.4543,-3.31631 3.3132,-3.482107 5.0936,-0.538891 6.77,34.928902 20.2183,34.928902 8.1132,0 9.0262,0.215441 12.6262,0.215441 h 0.1118"
     inkscape:label="CVP" />
  <path
     id="RA-blue"
     style="display:inline;fill:none;stroke:#1a9cd9;stroke-width:2;stroke-dasharray:none"
     d="m 4504.3671,97.988082 10.7289,4.043238 10.729,-8.086464 10.7289,6.469174 10.7289,-4.851883 10.7289,-3.234568 10.7289,12.129691 10.729,-18.598862 10.7289,20.216162 10.7289,-12.129714 10.7289,4.043226 10.7289,-8.086442 10.729,12.12968 10.7289,-8.086464 10.7289,8.086464 10.7289,-16.172912 10.7289,16.172912 10.729,-8.086464 10.7289,4.043226 10.7289,-2.425935 10.7289,-3.234568 10.729,12.129691 10.7289,-18.598862 10.7288,20.216162 10.729,-12.129714 10.7289,4.043226 10.729,-8.086442 10.7288,12.12968 10.729,-8.086464 10.7289,8.086464 10.7289,-16.172912 10.7289,16.172912 10.7289,-8.086464 10.7291,4.043226 10.7287,-2.425935 10.7291,-3.234568 10.7289,12.129691 10.7289,-18.598862 10.7289,20.216162 10.7289,-12.129714 10.729,4.043226 m -858.3763,0.0549 10.7289,4.043238 10.7289,-8.086464 10.7289,6.469174 10.729,-4.851883 10.7289,-3.234577 10.7289,12.1297 10.7289,-18.598861 10.7289,20.216161 10.729,-12.129714 10.7289,4.043226 10.7289,-8.086441 10.7289,12.129679 10.729,-8.086464 10.7289,8.086464 10.7289,-16.172911 10.7289,16.172911 10.7289,-8.086464 10.729,4.043226 10.7289,-2.425935 10.7289,-3.234577 10.7289,12.1297 10.7289,-18.598861 10.729,20.216161 10.7289,-12.129714 10.7289,4.043226 10.7289,-8.086441 10.7289,12.129679 10.729,-8.086464 10.7289,8.086464 10.7289,-16.172911 10.7289,16.172911 10.7289,-8.086464 10.729,4.043226 10.7289,-2.425935 10.7289,-3.234577 10.7289,12.1297 10.729,-18.598861 10.7289,20.216161 10.7289,-12.129714 10.7289,4.043226 m -857.0157,0.529667 10.7289,4.043241 10.7289,-8.086477 10.729,6.469167 10.7289,-4.851866 10.7289,-3.234582 10.7289,12.129708 10.729,-18.598867 10.7289,20.216167 10.7289,-12.129727 10.7289,4.043236 10.7289,-8.086454 10.7289,12.129695 10.729,-8.086477 10.7289,8.086477 10.7289,-16.172917 10.7289,16.172917 10.7289,-8.086477 10.729,4.043236 10.7289,-2.425935 10.7289,-3.234582 10.7289,12.129708 10.7289,-18.598867 10.729,20.216167 10.7289,-12.129727 10.7289,4.043236 10.7289,-8.086454 10.729,12.129695 10.7289,-8.086477 10.7289,8.086477 10.7289,-16.172917 10.7289,16.172917 10.729,-8.086477 10.7289,4.043236 10.7289,-2.425935 10.7289,-3.234582 10.7289,12.129708 10.729,-18.598867 10.7289,20.216167 10.7289,-12.129727 10.7289,4.043236 m -858.5225,0.0152 10.7289,4.043241 10.7289,-8.086477 10.7289,6.469167 10.729,-4.851866 10.7289,-3.234582 10.7289,12.129708 10.7289,-18.598866 10.7289,20.216166 10.729,-12.129727 10.7289,4.043236 10.7289,-8.086453 10.7289,12.129694 10.729,-8.086477 10.7289,8.086477 10.7289,-16.172916 10.7289,16.172916 10.7289,-8.086477 10.7289,4.043236 10.729,-2.425935 10.7289,-3.234582 10.7289,12.129708 10.7289,-18.598866 10.729,20.216166 10.7289,-12.129727 10.7289,4.043236 10.7289,-8.086453 10.7289,12.129694 10.729,-8.086477 10.7289,8.086477 10.7289,-16.172916 10.7289,16.172916 10.7289,-8.086477 10.729,4.043236 10.7289,-2.425935 10.7289,-3.234582 10.7289,12.129708 10.7289,-18.598866 10.729,20.216166 10.7289,-12.129727 10.7289,4.043236 m -855.1128,-0.599767 10.7289,4.043238 10.729,-8.086464 10.7289,6.469174 10.7289,-4.851883 10.7289,-3.234568 10.7289,12.129691 10.729,-18.598862 10.7289,20.216162 10.7289,-12.129714 10.7289,4.043226 10.7289,-8.086442 10.729,12.12968 10.7289,-8.086464 10.7289,8.086464 10.7289,-16.172912 10.7289,16.172912 10.729,-8.086464 10.7289,4.043226 10.7289,-2.425935 10.7289,-3.234568 10.729,12.129691 10.7289,-18.598862 10.7288,20.216162 10.729,-12.129714 10.7289,4.043226 10.729,-8.086442 10.7288,12.12968 10.729,-8.086464 10.7289,8.086464 10.7289,-16.172912 10.7289,16.172912 10.7289,-8.086464 10.7291,4.043226 10.7287,-2.425935 10.7291,-3.234568 10.7289,12.129691 10.7289,-18.598862 10.7289,20.216162 10.7289,-12.129714 10.729,4.043226 m -858.3763,0.0549 10.7289,4.043238 10.7289,-8.086464 10.7289,6.469174 10.729,-4.851883 10.7289,-3.234577 10.7289,12.1297 10.7289,-18.598861 10.7289,20.216161 10.729,-12.129714 10.7289,4.043226 10.7289,-8.086441 10.7289,12.129679 10.729,-8.086464 10.7289,8.086464 10.7289,-16.172911 10.7289,16.172911 10.7289,-8.086464 10.729,4.043226 10.7289,-2.425935 10.7289,-3.234577 10.7289,12.1297 10.7289,-18.598861 10.729,20.216161 10.7289,-12.129714 10.7289,4.043226 10.7289,-8.086441 10.7289,12.129679 10.729,-8.086464 10.7289,8.086464 10.7289,-16.172911 10.7289,16.172911 10.7289,-8.086464 10.729,4.043226 10.7289,-2.425935 10.7289,-3.234577 10.7289,12.1297 10.729,-18.598861 10.7289,20.216161 10.7289,-12.129714 10.7289,4.043226 m -857.0157,0.529667 10.7289,4.043241 10.7289,-8.086477 10.729,6.469167 10.7289,-4.851866 10.7289,-3.234582 10.7289,12.129708 10.729,-18.598867 10.7289,20.216167 10.7289,-12.129727 10.7289,4.043236 10.7289,-8.086454 10.7289,12.129695 10.729,-8.086477 10.7289,8.086477 10.7289,-16.172917 10.7289,16.172917 10.7289,-8.086477 10.729,4.043236 10.7289,-2.425935 10.7289,-3.234582 10.7289,12.129708 10.7289,-18.598867 10.729,20.216167 10.7289,-12.129727 10.7289,4.043236 10.7289,-8.086454 10.729,12.129695 10.7289,-8.086477 10.7289,8.086477 10.7289,-16.172917 10.7289,16.172917 10.729,-8.086477 10.7289,4.043236 10.7289,-2.425935 10.7289,-3.234582 10.7289,12.129708 10.729,-18.598867 10.7289,20.216167 10.7289,-12.129727 10.7289,4.043236 m -858.5225,0.0152 10.7289,4.043241 10.7289,-8.086477 10.7289,6.469167 10.729,-4.851866 10.7289,-3.234582 10.7289,12.129708 10.7289,-18.598866 10.7289,20.216166 10.729,-12.129727 10.7289,4.043236 10.7289,-8.086453 10.7289,12.129694 10.729,-8.086477 10.7289,8.086477 10.7289,-16.172916 10.7289,16.172916 10.7289,-8.086477 10.7289,4.043236 10.729,-2.425935 10.7289,-3.234582 10.7289,12.129708 10.7289,-18.598866 10.729,20.216166 10.7289,-12.129727 10.7289,4.043236 10.7289,-8.086453 10.7289,12.129694 10.729,-8.086477 10.7289,8.086477 10.7289,-16.172916 10.7289,16.172916 10.7289,-8.086477 10.729,4.043236 10.7289,-2.425935 10.7289,-3.234582 10.7289,12.129708 10.7289,-18.598866 10.729,20.216166 10.7289,-12.129727 10.7289,4.043236 m -893.2465,-0.599767 10.7289,4.043238 10.729,-8.086464 10.7289,6.469174 10.7289,-4.851883 10.7289,-3.234568 10.7289,12.129691 10.729,-18.598862 10.7289,20.216162 10.7289,-12.129714 10.7289,4.043226 10.7289,-8.086442 10.729,12.12968 10.7289,-8.086464 10.7289,8.086464 10.7289,-16.172912 10.7289,16.172912 10.729,-8.086464 10.7289,4.043226 10.7289,-2.425935 10.7289,-3.234568 10.729,12.129691 10.7289,-18.598862 10.7288,20.216162 10.729,-12.129714 10.7289,4.043226 10.729,-8.086442 10.7288,12.12968 10.729,-8.086464 10.7289,8.086464 10.7289,-16.172912 10.7289,16.172912 10.7289,-8.086464 10.7291,4.043226 10.7287,-2.425935 10.7291,-3.234568 10.7289,12.129691 10.7289,-18.598862 10.7289,20.216162 10.7289,-12.129714 10.729,4.043226 m -858.37627,0.0549 10.72893,4.043238 10.72892,-8.086464 10.72891,6.469174 10.72893,-4.851883 10.72892,-3.234577 10.72893,12.1297 10.72891,-18.598861 10.72891,20.216161 10.72894,-12.129714 10.72891,4.043226 10.72891,-8.086441 10.72894,12.129679 10.72891,-8.086464 10.72891,8.086464 10.72894,-16.172911 10.72891,16.172911 10.72892,-8.086464 10.72892,4.043226 10.72892,-2.425935 10.72892,-3.234577 10.72892,12.1297 10.72892,-18.598861 10.72892,20.216161 10.72892,-12.129714 10.72892,4.043226 10.72893,-8.086441 10.72891,12.129679 10.72892,-8.086464 10.72893,8.086464 10.72891,-16.172911 10.72892,16.172911 10.72893,-8.086464 10.72891,4.043226 10.72892,-2.425935 10.72892,-3.234577 10.72892,12.1297 10.72894,-18.598861 10.7289,20.216161 10.7289,-12.129714 10.7289,4.043226 m -857.01565,0.529667 10.72892,4.043241 10.72892,-8.086477 10.72893,6.469167 10.72892,-4.851866 10.72891,-3.234582 10.72891,12.129708 10.72894,-18.598867 10.72891,20.216167 10.72891,-12.129727 10.72894,4.043236 10.72891,-8.086454 10.72891,12.129695 10.72894,-8.086477 10.72891,8.086477 10.72893,-16.172917 10.72891,16.172917 10.72892,-8.086477 10.72893,4.043236 10.72891,-2.425935 10.72892,-3.234582 10.72893,12.129708 10.72891,-18.598867 10.72893,20.216167 10.72892,-12.129727 10.72891,4.043236 10.72893,-8.086454 10.72892,12.129695 10.72891,-8.086477 10.72893,8.086477 10.72892,-16.172917 10.72891,16.172917 10.72893,-8.086477 10.72892,4.043236 10.72891,-2.425935 10.72893,-3.234582 10.72891,12.129708 10.72894,-18.598867 10.72891,20.216167 10.72891,-12.129727 10.72894,4.043236 m -858.52254,0.0152 10.72892,4.043241 10.72893,-8.086477 10.72891,6.469167 10.72892,-4.851866 10.72892,-3.234582 10.72892,12.129708 10.72892,-18.598866 10.72892,20.216166 10.72893,-12.129727 10.72892,4.043236 10.72891,-8.086453 10.72893,12.129694 10.72892,-8.086477 10.728908,8.086477 10.728924,-16.172916 10.728925,16.172916 10.728916,-8.086477 10.728921,4.043236 10.728921,-2.425935 10.72893,-3.234582 10.728921,12.129708 10.7289201,-18.598866 10.7289194,20.216166 10.7289205,-12.129727 10.728921,4.043236 10.728919,-8.086453 10.728921,12.129694 10.72892,-8.086477 10.72892,8.086477 10.72892,-16.172916 10.72892,16.172916 10.72892,-8.086477 10.728923,4.043236 10.72892,-2.425935 10.72892,-3.234582 10.72892,12.129708 10.72892,-18.598866 10.72892,20.216166 10.72892,-12.129727 10.72892,4.043236"
     inkscape:label="RA-blue" />
  <path
     id="PCW-green"
     style="display:inline;fill:none;stroke:#4baf4f;stroke-width:2;stroke-dasharray:none"
     d="m 3773.6168,86.533089 8.8525,5.103171 8.8524,-10.206339 8.8526,8.165073 8.8524,-6.123807 8.8524,-4.082533 8.8525,15.309507 8.8525,-23.474573 8.8525,25.515836 8.8525,-15.309503 8.8525,5.103168 8.8525,-10.206335 8.8525,15.309506 8.8525,-10.206339 8.8524,10.206339 8.8526,-20.412672 8.8525,20.412672 8.8525,-10.206339 8.8526,5.103168 8.8525,-3.061902 8.8525,-4.082533 8.8524,15.309507 8.8525,-23.474573 8.8525,25.515836 8.8526,-15.309503 8.8524,5.103168 8.8526,-10.206335 8.8525,15.309506 8.8524,-10.206339 8.8525,10.206339 8.8526,-20.412672 8.8525,20.412672 8.8525,-10.206339 8.8526,5.103168 8.8524,-3.061902 8.8525,-4.082533 8.8525,15.309507 8.8525,-23.474573 8.8525,25.515836 8.8524,-15.309503 8.8526,5.103168 m -708.2513,0.0692 8.8525,5.103148 8.8525,-10.206315 8.8525,8.165053 8.8525,-6.123786 8.8525,-4.082535 8.8525,15.30949 8.8525,-23.474555 8.8525,25.515826 8.8525,-15.309493 8.8525,5.103167 8.8525,-10.206335 8.8525,15.309483 8.8525,-10.206315 8.8525,10.206315 8.8525,-20.412648 8.8525,20.412648 8.8525,-10.206315 8.8525,5.103167 8.8525,-3.0619 8.8525,-4.082535 8.8526,15.30949 8.8524,-23.474555 8.8526,25.515826 8.8525,-15.309493 8.8525,5.103167 8.8525,-10.206335 8.8525,15.309483 8.8525,-10.206315 8.8525,10.206315 8.8525,-20.412648 8.8525,20.412648 8.8525,-10.206315 8.8525,5.103167 8.8525,-3.0619 8.8524,-4.082535 8.8525,15.30949 8.8525,-23.474555 8.8524,25.515826 8.8525,-15.309493 8.8524,5.103167 m -707.1291,0.668507 8.8525,5.103149 8.8525,-10.206314 8.8525,8.165054 8.8525,-6.123781 8.8525,-4.082536 8.8525,15.309478 8.8525,-23.474543 8.8525,25.515822 8.8525,-15.309494 8.8525,5.103165 8.8525,-10.206328 8.8526,15.309477 8.8525,-10.206314 8.8524,10.206314 8.8526,-20.412642 8.8525,20.412642 8.8525,-10.206314 8.8525,5.103165 8.8525,-3.061892 8.8525,-4.082536 8.8525,15.309478 8.8525,-23.474543 8.8525,25.515822 8.8525,-15.309494 8.8525,5.103165 8.8525,-10.206328 8.8525,15.309477 8.8525,-10.206314 8.8525,10.206314 8.8525,-20.412642 8.8525,20.412642 8.8525,-10.206314 8.8525,5.103165 8.8525,-3.061892 8.8526,-4.082536 8.8525,15.309478 8.8525,-23.474543 8.8525,25.515822 8.8525,-15.309494 8.8525,5.103165 m -708.3727,0.01918 8.8525,5.103173 8.8525,-10.206339 8.8525,8.165075 8.8525,-6.1238 8.8525,-4.082536 8.8525,15.309499 8.8525,-23.474564 8.8525,25.515838 8.8525,-15.309512 8.8525,5.103166 8.8526,-10.206328 8.8525,15.309501 8.8525,-10.206339 8.8525,10.206339 8.8525,-20.412665 8.8525,20.412665 8.8525,-10.206339 8.8525,5.103166 8.8525,-3.061891 8.8525,-4.082536 8.8525,15.309499 8.8525,-23.474564 8.8525,25.515838 8.8525,-15.309512 8.8525,5.103166 8.8525,-10.206328 8.8525,15.309501 8.8525,-10.206339 8.8525,10.206339 8.8525,-20.412665 8.8525,20.412665 8.8525,-10.206339 8.8525,5.103166 8.8525,-3.061891 8.8525,-4.082536 8.8525,15.309499 8.8525,-23.474564 8.8525,25.515838 8.8525,-15.309512 8.8525,5.103166 m -708.0469,-0.756887 8.8525,5.103171 8.8524,-10.206339 8.8526,8.165073 8.8524,-6.123807 8.8524,-4.082533 8.8525,15.309507 8.8525,-23.474573 8.8525,25.515836 8.8525,-15.309503 8.8525,5.103168 8.8525,-10.206335 8.8525,15.309506 8.8525,-10.206339 8.8524,10.206339 8.8526,-20.412672 8.8525,20.412672 8.8525,-10.206339 8.8526,5.103168 8.8525,-3.061902 8.8525,-4.082533 8.8524,15.309507 8.8525,-23.474573 8.8525,25.515836 8.8526,-15.309503 8.8524,5.103168 8.8526,-10.206335 8.8525,15.309506 8.8524,-10.206339 8.8525,10.206339 8.8526,-20.412672 8.8525,20.412672 8.8525,-10.206339 8.8526,5.103168 8.8524,-3.061902 8.8525,-4.082533 8.8525,15.309507 8.8525,-23.474573 8.8525,25.515836 8.8524,-15.309503 8.8526,5.103168 m -708.2513,0.0692 8.8525,5.103148 8.8525,-10.206315 8.8525,8.165053 8.8525,-6.123786 8.8525,-4.082535 8.8525,15.30949 8.8525,-23.474555 8.8525,25.515826 8.8525,-15.309493 8.8525,5.103167 8.8525,-10.206335 8.8525,15.309483 8.8525,-10.206315 8.8525,10.206315 8.8525,-20.412648 8.8525,20.412648 8.8525,-10.206315 8.8525,5.103167 8.8525,-3.0619 8.8525,-4.082535 8.8526,15.30949 8.8524,-23.474555 8.8526,25.515826 8.8525,-15.309493 8.8525,5.103167 8.8525,-10.206335 8.8525,15.309483 8.8525,-10.206315 8.8525,10.206315 8.8525,-20.412648 8.8525,20.412648 8.8525,-10.206315 8.8525,5.103167 8.8525,-3.0619 8.8524,-4.082535 8.8525,15.30949 8.8525,-23.474555 8.8524,25.515826 8.8525,-15.309493 8.8524,5.103167 m -707.1291,0.668507 8.8525,5.103149 8.8525,-10.206314 8.8525,8.165054 8.8525,-6.123781 8.8525,-4.082536 8.8525,15.309478 8.8525,-23.474543 8.8525,25.515822 8.8525,-15.309494 8.8525,5.103165 8.8525,-10.206328 8.8526,15.309477 8.8525,-10.206314 8.8524,10.206314 8.8526,-20.412642 8.8525,20.412642 8.8525,-10.206314 8.8525,5.103165 8.8525,-3.061892 8.8525,-4.082536 8.8525,15.309478 8.8525,-23.474543 8.8525,25.515822 8.8525,-15.309494 8.8525,5.103165 8.8525,-10.206328 8.8525,15.309477 8.8525,-10.206314 8.8525,10.206314 8.8525,-20.412642 8.8525,20.412642 8.8525,-10.206314 8.8525,5.103165 8.8525,-3.061892 8.8526,-4.082536 8.8525,15.309478 8.8525,-23.474543 8.8525,25.515822 8.8525,-15.309494 8.8525,5.103165 m -708.3727,0.01918 8.8525,5.103173 8.8525,-10.206339 8.8525,8.165075 8.8525,-6.1238 8.8525,-4.082536 8.8525,15.309499 8.8525,-23.474564 8.8525,25.515838 8.8525,-15.309512 8.8525,5.103166 8.8526,-10.206328 8.8525,15.309501 8.8525,-10.206339 8.8525,10.206339 8.8525,-20.412665 8.8525,20.412665 8.8525,-10.206339 8.8525,5.103166 8.8525,-3.061891 8.8525,-4.082536 8.8525,15.309499 8.8525,-23.474564 8.8525,25.515838 8.8525,-15.309512 8.8525,5.103166 8.8525,-10.206328 8.8525,15.309501 8.8525,-10.206339 8.8525,10.206339 8.8525,-20.412665 8.8525,20.412665 8.8525,-10.206339 8.8525,5.103166 8.8525,-3.061891 8.8525,-4.082536 8.8525,15.309499 8.8525,-23.474564 8.8525,25.515838 8.8525,-15.309512 8.8525,5.103166 m -704.31289,-0.756887 8.85251,5.103171 8.8524,-10.206339 8.85253,8.165073 8.85241,-6.123807 8.85239,-4.082533 8.85255,15.309507 8.8525,-23.474573 8.8525,25.515836 8.8525,-15.309503 8.8525,5.103168 8.8525,-10.206335 8.8525,15.309506 8.8525,-10.206339 8.8524,10.206339 8.8526,-20.412672 8.8525,20.412672 8.8525,-10.206339 8.8526,5.103168 8.8525,-3.061902 8.8525,-4.082533 8.8524,15.309507 8.8525,-23.474573 8.8525,25.515836 8.8526,-15.309503 8.8524,5.103168 8.8526,-10.206335 8.8525,15.309506 8.8524,-10.206339 8.8525,10.206339 8.8526,-20.412672 8.8525,20.412672 8.8525,-10.206339 8.8526,5.103168 8.8524,-3.061902 8.8525,-4.082533 8.8525,15.309507 8.8525,-23.474573 8.8525,25.515836 8.8524,-15.309503 8.8526,5.103168 m -708.25135,0.0692 8.8525,5.103148 8.85251,-10.206315 8.8525,8.165053 8.8525,-6.123786 8.85252,-4.082535 8.85249,15.30949 8.8525,-23.474555 8.85252,25.515826 8.85249,-15.309493 8.8525,5.103167 8.85253,-10.206335 8.85249,15.309483 8.85252,-10.206315 8.85249,10.206315 8.85251,-20.412648 8.8525,20.412648 8.8525,-10.206315 8.85252,5.103167 8.85249,-3.0619 8.85251,-4.082535 8.85251,15.30949 8.85249,-23.474555 8.85251,25.515826 8.85251,-15.309493 8.85249,5.103167 8.85251,-10.206335 8.85251,15.309483 8.8525,-10.206315 8.8525,10.206315 8.8525,-20.412648 8.85253,20.412648 8.85248,-10.206315 8.85251,5.103167 8.85255,-3.0619 8.8524,-4.082535 8.85242,15.30949 8.85251,-23.474555 8.85241,25.515826 8.8525,-15.309493 8.85242,5.103167 m -707.12911,0.668507 8.85251,5.103149 8.8525,-10.206314 8.85249,8.165054 8.85252,-6.123781 8.85249,-4.082536 8.85251,15.309478 8.8525,-23.474543 8.85251,25.515822 8.85252,-15.309494 8.85249,5.103165 8.85251,-10.206328 8.85251,15.309477 8.8525,-10.206314 8.85249,10.206314 8.85252,-20.412642 8.85249,20.412642 8.85251,-10.206314 8.85251,5.103165 8.85251,-3.061892 8.8525,-4.082536 8.8525,15.309478 8.85251,-23.474543 8.8525,25.515822 8.85251,-15.309494 8.8525,5.103165 8.85251,-10.206328 8.8525,15.309477 8.8525,-10.206314 8.85253,10.206314 8.85248,-20.412642 8.85251,20.412642 8.85251,-10.206314 8.8525,5.103165 8.8525,-3.061892 8.85251,-4.082536 8.8525,15.309478 8.8525,-23.474543 8.85251,25.515822 8.8525,-15.309494 8.85251,5.103165 m -708.37269,0.01918 8.85253,5.103173 8.852497,-10.206339 8.852503,8.165075 8.852504,-6.1238 8.852505,-4.082536 8.852505,15.309499 8.852504,-23.474564 8.852505,25.515838 8.852505,-15.309512 8.852504,5.103166 8.852504,-10.206328 8.8525055,15.309501 8.85249503,-10.206339 8.85249817,10.206339 8.8525063,-20.412665 8.852494,20.412665 8.852499,-10.206339 8.852506,5.103166 8.852497,-3.061891 8.852505,-4.082536 8.852496,15.309499 8.852506,-23.474564 8.852498,25.515838 8.852497,-15.309512 8.852511,5.103166 8.8525,-10.206328 8.8525,15.309501 8.85252,-10.206339 8.85248,10.206339 8.85252,-20.412665 8.8525,20.412665 8.8525,-10.206339 8.85251,5.103166 8.85249,-3.061891 8.85253,-4.082536 8.85249,15.309499 8.85251,-23.474564 8.85251,25.515838 8.8525,-15.309512 8.85251,5.103166"
     inkscape:label="PCW-green" />
  <path
     id="PCW"
     style="display:inline;fill:none;stroke:#fffb00;stroke-width:2;stroke-dasharray:none"
     inkscape:label="PCW"
     d="m 4265.3271,82.53642 7.9876,6.95766 7.9875,-13.91532 7.9876,11.13226 7.9874,-8.34919 7.9875,-5.56613 7.9876,20.87298 7.9875,-32.00524 7.9877,34.78831 7.9875,-20.87299 7.9876,6.95766 7.9876,-13.91532 7.9875,20.87298 7.9877,-13.91532 7.9875,13.91532 7.9876,-27.83064 7.9876,27.83064 7.9876,-13.91532 7.9875,6.95766 7.9877,-4.17459 7.9875,-5.56613 7.9875,20.87298 7.9877,-32.00524 7.9875,34.78831 7.9876,-20.87299 7.9876,6.95766 7.9876,-13.91532 7.9875,20.87298 7.9876,-13.91532 7.9876,13.91532 7.9876,-27.83064 7.9876,27.83064 7.9875,-13.91532 7.9877,6.95766 7.9875,-4.17459 7.9875,-5.56613 7.9877,20.87298 7.9875,-32.00524 7.9876,34.78831 7.9876,-20.87299 7.9876,6.95766 m -639.0523,0.0943 7.9876,6.95766 7.9875,-13.91532 7.9876,11.13226 7.9876,-8.34919 7.9876,-5.56613 7.9876,20.87298 7.9875,-32.00524 7.9876,34.78831 7.9876,-20.87299 7.9875,6.95766 7.9877,-13.91532 7.9875,20.87298 7.9876,-13.91532 7.9876,13.91532 7.9876,-27.83064 7.9875,27.83064 7.9876,-13.91532 7.9876,6.95766 7.9875,-4.17459 7.9877,-5.56613 7.9875,20.87298 7.9876,-32.00524 7.9876,34.78831 7.9875,-20.87299 7.9876,6.95766 7.9876,-13.91532 7.9876,20.87298 7.9876,-13.91532 7.9876,13.91532 7.9875,-27.83064 7.9876,27.83064 7.9876,-13.91532 7.9875,6.95766 7.9877,-4.17459 7.9875,-5.56613 7.9875,20.87298 7.9876,-32.00524 7.9874,34.78831 7.9876,-20.87299 7.9875,6.95766 m -638.0397,0.91146 7.9876,6.95766 7.9876,-13.91532 7.9876,11.13225 7.9876,-8.34919 7.9876,-5.56613 7.9875,20.87298 7.9876,-32.00524 7.9876,34.78831 7.9875,-20.87298 7.9877,6.95766 7.9875,-13.91533 7.9876,20.87299 7.9876,-13.91532 7.9875,13.91532 7.9876,-27.83065 7.9876,27.83065 7.9876,-13.91532 7.9875,6.95766 7.9877,-4.1746 7.9875,-5.56613 7.9876,20.87298 7.9876,-32.00524 7.9875,34.78831 7.9877,-20.87298 7.9875,6.95766 7.9876,-13.91533 7.9876,20.87299 7.9875,-13.91532 7.9876,13.91532 7.9876,-27.83065 7.9876,27.83065 7.9875,-13.91532 7.9877,6.95766 7.9875,-4.1746 7.9875,-5.56613 7.9877,20.87298 7.9875,-32.00524 7.9876,34.78831 7.9876,-20.87298 7.9876,6.95766 m -639.1618,0.0262 7.9876,6.95766 7.9876,-13.91532 7.9875,11.13225 7.9877,-8.34919 7.9875,-5.56613 7.9876,20.87298 7.9876,-32.00524 7.9875,34.78831 7.9876,-20.87298 7.9876,6.95766 7.9876,-13.91533 7.9875,20.87299 7.9877,-13.91532 7.9875,13.91532 7.9876,-27.83065 7.9876,27.83065 7.9875,-13.91532 7.9876,6.95766 7.9876,-4.1746 7.9876,-5.56613 7.9876,20.87298 7.9875,-32.00524 7.9876,34.78831 7.9876,-20.87298 7.9876,6.95766 7.9875,-13.91533 7.9876,20.87299 7.9876,-13.91532 7.9875,13.91532 7.9877,-27.83065 7.9875,27.83065 7.9876,-13.91532 7.9876,6.95766 7.9875,-4.1746 7.9876,-5.56613 7.9876,20.87298 7.9876,-32.00524 7.9876,34.78831 7.9876,-20.87298 7.9875,6.95766 m -638.0415,0.54896 7.9876,6.95766 7.9875,-13.91532 7.9875,11.13225 7.9876,-8.34919 7.9874,-5.56613 7.9877,20.87299 7.9875,-32.00525 7.9876,34.78831 7.9876,-20.87298 7.9876,6.95766 7.9875,-13.91532 7.9876,20.87298 7.9876,-13.91532 7.9875,13.91532 7.9877,-27.83065 7.9875,27.83065 7.9876,-13.91532 7.9876,6.95766 7.9876,-4.1746 7.9876,-5.56613 7.9875,20.87299 7.9876,-32.00525 7.9876,34.78831 7.9876,-20.87298 7.9875,6.95766 7.9877,-13.91532 7.9875,20.87298 7.9875,-13.91532 7.9877,13.91532 7.9875,-27.83065 7.9876,27.83065 7.9876,-13.91532 7.9876,6.95766 7.9875,-4.1746 7.9876,-5.56613 7.9876,20.87299 7.9876,-32.00525 7.9876,34.78831 7.9875,-20.87298 7.9877,6.95766 m -639.0524,0.0944 7.9876,6.95766 7.9876,-13.91532 7.9875,11.13225 7.9877,-8.34919 7.9875,-5.56613 7.9875,20.87298 7.9877,-32.00524 7.9875,34.78831 7.9876,-20.87298 7.9876,6.95766 7.9876,-13.91532 7.9876,20.87298 7.9875,-13.91532 7.9876,13.91532 7.9876,-27.83065 7.9876,27.83065 7.9875,-13.91532 7.9877,6.95766 7.9875,-4.1746 7.9875,-5.56613 7.9877,20.87298 7.9875,-32.00524 7.9876,34.78831 7.9876,-20.87298 7.9876,6.95766 7.9875,-13.91532 7.9877,20.87298 7.9875,-13.91532 7.9875,13.91532 7.9877,-27.83065 7.9875,27.83065 7.9876,-13.91532 7.9876,6.95766 7.9876,-4.1746 7.9875,-5.56613 7.9875,20.87298 7.9875,-32.00524 7.9876,34.78831 7.9875,-20.87298 7.9876,6.95766 m -638.0397,0.91145 7.9876,6.95766 7.9875,-13.91532 7.9876,11.13226 7.9876,-8.3492 7.9875,-5.56612 7.9877,20.87298 7.9875,-32.00524 7.9876,34.7883 7.9876,-20.87298 7.9875,6.95766 7.9877,-13.91532 7.9875,20.87298 7.9876,-13.91532 7.9876,13.91532 7.9876,-27.83064 7.9875,27.83064 7.9876,-13.91532 7.9876,6.95766 7.9875,-4.1746 7.9877,-5.56612 7.9875,20.87298 7.9876,-32.00524 7.9876,34.7883 7.9875,-20.87298 7.9876,6.95766 7.9876,-13.91532 7.9876,20.87298 7.9876,-13.91532 7.9876,13.91532 7.9875,-27.83064 7.9876,27.83064 7.9876,-13.91532 7.9875,6.95766 7.9877,-4.1746 7.9875,-5.56612 7.9876,20.87298 7.9876,-32.00524 7.9875,34.7883 7.9876,-20.87298 7.9876,6.95766 m -639.1617,0.0262 7.9876,6.95766 7.9875,-13.91532 7.9876,11.13226 7.9876,-8.3492 7.9876,-5.56612 7.9876,20.87298 7.9875,-32.00524 7.9876,34.7883 7.9876,-20.87298 7.9875,6.95766 7.9877,-13.91532 7.9875,20.87298 7.9876,-13.91532 7.9876,13.91532 7.9875,-27.83064 7.9876,27.83064 7.9876,-13.91532 7.9876,6.95766 7.9875,-4.1746 7.9876,-5.56612 7.9876,20.87298 7.9875,-32.00524 7.9876,34.7883 7.9876,-20.87298 7.9876,6.95766 7.9876,-13.91532 7.9875,20.87298 7.9877,-13.91532 7.9875,13.91532 7.9875,-27.83064 7.9877,27.83064 7.9875,-13.91532 7.9876,6.95766 7.9876,-4.1746 7.9876,-5.56612 7.9875,20.87298 7.9876,-32.00524 7.9876,34.7883 7.9875,-20.87298 7.9877,6.95766 m -673.0199,0.6027 8.8511,6.95766 8.8509,-13.91532 8.8511,11.13226 8.8509,-8.3492 8.8509,-5.56612 8.8511,20.87298 8.851,-32.00524 8.8511,34.7883 8.851,-20.87298 8.8511,6.95766 8.851,-13.91532 8.851,20.87298 8.8511,-13.91532 8.851,13.91532 8.8511,-27.83064 8.851,27.83064 8.8511,-13.91532 8.851,6.95766 8.8511,-4.1746 8.851,-5.56612 8.851,20.87298 8.8511,-32.00524 8.851,34.7883 8.8511,-20.87298 8.851,6.95766 8.8511,-13.91532 8.851,20.87298 8.851,-13.91532 8.8511,13.91532 8.851,-27.83064 8.8511,27.83064 8.851,-13.91532 8.8511,6.95766 8.851,-4.1746 8.851,-5.56612 8.8511,20.87298 8.851,-32.00524 8.8511,34.7883 8.851,-20.87298 8.8511,6.95766 m -708.1345,0.0944 8.8511,6.95766 8.851,-13.91532 8.851,11.13226 8.8511,-8.3492 8.851,-5.56613 8.8511,20.87299 8.851,-32.00524 8.8511,34.7883 8.851,-20.87298 8.851,6.95766 8.8511,-13.91532 8.851,20.87298 8.8511,-13.91532 8.851,13.91532 8.8511,-27.83064 8.851,27.83064 8.851,-13.91532 8.8511,6.95766 8.851,-4.1746 8.8511,-5.56613 8.851,20.87299 8.8511,-32.00524 8.851,34.7883 8.851,-20.87298 8.8511,6.95766 8.851,-13.91532 8.8511,20.87298 8.851,-13.91532 8.8511,13.91532 8.851,-27.83064 8.851,27.83064 8.8511,-13.91532 8.851,6.95766 8.8511,-4.1746 8.851,-5.56613 8.8509,20.87299 8.8511,-32.00524 8.8509,34.7883 8.851,-20.87298 8.851,6.95766 m -707.01242,0.91145 8.8511,6.95766 8.851,-13.91532 8.8511,11.13226 8.85102,-8.34919 8.8511,-5.56613 8.851,20.87298 8.851,-32.00524 8.8511,34.78831 8.851,-20.87299 8.8511,6.95766 8.851,-13.91532 8.8511,20.87298 8.851,-13.91532 8.851,13.91532 8.8511,-27.83064 8.851,27.83064 8.8511,-13.91532 8.851,6.95766 8.8511,-4.17459 8.851,-5.56613 8.851,20.87298 8.8511,-32.00524 8.851,34.78831 8.8511,-20.87299 8.851,6.95766 8.8511,-13.91532 8.851,20.87298 8.851,-13.91532 8.8511,13.91532 8.851,-27.83064 8.8511,27.83064 8.851,-13.91532 8.8511,6.95766 8.851,-4.17459 8.851,-5.56613 8.8511,20.87298 8.851,-32.00524 8.8511,34.78831 8.851,-20.87299 8.8511,6.95766 m -708.25582,0.0262 8.851,6.95766 8.8511,-13.91532 8.851,11.13226 8.8511,-8.34919 8.851,-5.56613 8.8511,20.87298 8.851,-32.00524 8.851,34.78831 8.8511,-20.87299 8.851,6.95766 8.8511,-13.91532 8.851,20.87298 8.8511,-13.91532 8.851,13.91532 8.851,-27.83064 8.8511,27.83064 8.851,-13.91532 8.851,6.95766 8.8511,-4.17459 8.8511,-5.56613 8.851,20.87298 8.851,-32.00524 8.8511,34.78831 8.851,-20.87299 8.8511,6.95766 8.851,-13.91532 8.851,20.87298 8.8511,-13.91532 8.851,13.91532 8.8511,-27.83064 8.851,27.83064 8.8511,-13.91532 8.851,6.95766 8.851,-4.17459 8.8511,-5.56613 8.851,20.87298 8.8511,-32.00524 8.851,34.78831 8.8511,-20.87299 8.851,6.95766 m -707.0144,0.54896 8.8511,6.95767 8.8509,-13.91533 8.8511,11.13226 8.8509,-8.34919 8.8509,-5.56613 8.8511,20.87298 8.851,-32.00524 8.8511,34.78831 8.851,-20.87299 8.8511,6.95766 8.851,-13.91532 8.851,20.87299 8.8511,-13.91533 8.851,13.91533 8.8511,-27.83065 8.851,27.83065 8.8511,-13.91533 8.851,6.95766 8.8511,-4.17459 8.851,-5.56613 8.851,20.87298 8.8511,-32.00524 8.851,34.78831 8.8511,-20.87299 8.851,6.95766 8.8511,-13.91532 8.851,20.87299 8.851,-13.91533 8.8511,13.91533 8.851,-27.83065 8.8511,27.83065 8.851,-13.91533 8.8511,6.95766 8.851,-4.17459 8.851,-5.56613 8.8511,20.87298 8.851,-32.00524 8.8511,34.78831 8.851,-20.87299 8.8511,6.95766 m -708.134492,0.0943 8.85105,6.95767 8.85104,-13.91533 8.85104,11.13226 8.85105,-8.34919 8.85104,-5.56613 8.85104,20.87298 8.85105,-32.00524 8.85104,34.78831 8.85104,-20.87299 8.8510396,6.95766 8.85105,-13.91532 8.8510404,20.87299 8.85104,-13.91533 8.85105,13.91533 8.85104,-27.83065 8.85104,27.83065 8.85105,-13.91533 8.85104,6.95766 8.85104,-4.17459 8.85104,-5.56613 8.85105,20.87298 8.851042,-32.00524 8.85104,34.78831 8.85105,-20.87299 8.85104,6.95766 8.85104,-13.91532 8.85105,20.87299 8.85104,-13.91533 8.85104,13.91533 8.85104,-27.83065 8.85105,27.83065 8.85104,-13.91533 8.85104,6.95766 8.85109,-4.17459 8.85094,-5.56613 8.85094,20.87298 8.85107,-32.00524 8.85094,34.78831 8.85099,-20.87299 8.851,6.95766 m -707.01236,0.91146 8.85104,6.95766 8.85105,-13.91532 8.85104,11.13225 8.85104,-8.34919 8.85105,-5.56613 8.85104,20.87299 8.85104,-32.00525 8.85104,34.78831 8.85105,-20.87298 8.85104,6.95766 8.85104,-13.91532 8.85105,20.87298 8.85104,-13.91532 8.85104,13.91532 8.85105,-27.83065 8.85104,27.83065 8.85104,-13.91532 8.85104,6.95766 8.85105,-4.1746 8.85104,-5.56613 8.85104,20.87299 8.85105,-32.00525 8.85104,34.78831 8.85104,-20.87298 8.85105,6.95766 8.85104,-13.91532 8.85104,20.87298 8.85104,-13.91532 8.85105,13.91532 8.85104,-27.83065 8.85104,27.83065 8.85105,-13.91532 8.85104,6.95766 8.85104,-4.1746 8.85105,-5.56613 8.85104,20.87299 8.85104,-32.00525 8.85104,34.78831 8.851048,-20.87298 8.85104,6.95766 m -708.255728,0.0262 8.85105,6.95766 8.85104,-13.91532 8.85105,11.13225 8.85104,-8.34919 8.85104,-5.56613 8.85104,20.87299 8.85105,-32.00525 8.85104,34.78831 8.85104,-20.87298 8.85105,6.95766 8.85104,-13.91532 8.85104,20.87298 8.85104,-13.91532 8.85103,13.91532 8.85105,-27.83065 8.85103,27.83065 8.85104,-13.91532 8.85104,6.95766 8.85103,-4.1746 8.85105,-5.56613 8.85104,20.87299 8.85104,-32.00525 8.85104,34.78831 8.85103,-20.87298 8.85105,6.95766 8.85104,-13.91532 8.85104,20.87298 8.85105,-13.91532 8.85104,13.91532 8.85104,-27.83065 8.85104,27.83065 8.85105,-13.91532 8.85104,6.95766 8.85104,-4.1746 8.85105,-5.56613 8.85104,20.87299 8.85104,-32.00525 8.85105,34.78831 8.85104,-20.87298 8.85104,6.95766" />
</svg>
