<?xml version="1.0" encoding="UTF-8"?>
<!-- Created with Inkscape (http://www.inkscape.org/) -->
<svg width="5.2993mm" height="5.4679mm" version="1.1" viewBox="0 0 5.2993 5.4679" xmlns="http://www.w3.org/2000/svg">
 <g transform="translate(-80.807 -93.617)">
  <path d="m83.986 96.351c0-0.29175-0.23742-0.52917-0.52917-0.52917-0.29175 0-0.52917 0.23742-0.52917 0.52917 0 0.29175 0.23742 0.52917 0.52917 0.52917 0.29175 0 0.52917-0.23742 0.52917-0.52917m0.52917 0c0 0.58349-0.47484 1.0583-1.0583 1.0583-0.58349 0-1.0583-0.47484-1.0583-1.0583 0-0.5835 0.47484-1.0583 1.0583-1.0583 0.58349 0 1.0583 0.47484 1.0583 1.0583m0.5274-0.48507 0.48295-0.27905c-0.08749-0.23671-0.21449-0.45473-0.37289-0.64523l-0.4833 0.27905c-0.35278-0.30198-0.40428-0.33161-0.83961-0.48542v-0.55774c-0.12206-0.02081-0.24306-0.03175-0.37077-0.03175-0.12771 0-0.25294 0.01094-0.375 0.03175v0.55774c-0.43533 0.15381-0.48719 0.18344-0.83961 0.48542l-0.4833-0.27905c-0.16016 0.19262-0.28646 0.41134-0.37289 0.64523l0.48295 0.27905c-0.08396 0.45544-0.08396 0.51506 0 0.97014l-0.48295 0.27905c0.08749 0.23671 0.21449 0.45473 0.37289 0.64523l0.4833-0.27905c0.35242 0.30198 0.40428 0.33161 0.83961 0.48542v0.55774c0.12206 0.02081 0.24306 0.03175 0.37077 0.03175 0.12771 0 0.25294-0.01094 0.375-0.03175v-0.55774c0.43533-0.15381 0.48683-0.18344 0.83961-0.48542l0.4833 0.27905c0.1584-0.1905 0.2854-0.40852 0.37289-0.64523l-0.48295-0.27905c0.08396-0.45544 0.08396-0.51506 0-0.97014m0.58067 0.69462 0.35102 0.20249c0.10407 0.05997 0.15416 0.18239 0.12312 0.29845-0.12559 0.46884-0.37288 0.88794-0.70626 1.2213-0.08432 0.08467-0.21555 0.10195-0.31926 0.04198l-0.35031-0.20249c-0.11324 0.08114-0.23495 0.15169-0.36266 0.2099v0.40499c0 0.11994-0.08114 0.22507-0.19685 0.25612-0.46108 0.12241-0.95003 0.12206-1.4104-3.44e-4 -0.11289-0.02999-0.19685-0.133-0.19685-0.25576v-0.40499c-0.12771-0.05821-0.24942-0.12876-0.36266-0.2099l-0.35031 0.2025c-0.10372 0.05997-0.23495 0.04269-0.31926-0.04198-0.33338-0.33338-0.58067-0.75248-0.70626-1.2213-0.03104-0.11606 0.01905-0.23848 0.12312-0.29845l0.35102-0.2025c-0.0067-0.06985-0.01024-0.13617-0.01024-0.20743 0-0.07126 0.0035-0.14182 0.01024-0.21167l-0.35102-0.20249c-0.10407-0.05997-0.15416-0.18239-0.12312-0.29845 0.12559-0.46884 0.37288-0.88794 0.70626-1.2213 0.08432-0.08467 0.21555-0.10195 0.31926-0.04198l0.35031 0.20249c0.11324-0.08114 0.23495-0.15169 0.36266-0.2099v-0.405c0-0.11994 0.08114-0.22507 0.19685-0.25612 0.46108-0.12241 0.95003-0.12206 1.4104 0 0.11289 0.03034 0.19685 0.13335 0.19685 0.25612v0.40499c0.12771 0.05821 0.24942 0.12876 0.36266 0.2099l0.35031-0.2025c0.10372-0.05997 0.23495-0.04269 0.31926 0.04198 0.33338 0.33338 0.58067 0.75248 0.70626 1.2213 0.03104 0.11606-0.01905 0.23848-0.12312 0.29845l-0.35102 0.2025c0.01376 0.1397 0.01376 0.2794 0 0.4191" fill="#fff"/>
 </g>
</svg>
