<?xml version="1.0" encoding="UTF-8"?>
<!-- Created with Inkscape (http://www.inkscape.org/) -->
<svg width="6.5616mm" height="5.7981mm" version="1.1" viewBox="0 0 6.5616 5.7981" xmlns="http://www.w3.org/2000/svg">
 <g transform="translate(-167.31 -126.78)">
  <path d="m167.44 132.57s0.0265-0.9525 0.58208-1.1377c0.55563-0.18521 1.7462-0.23812 1.6669-0.79375 0-0.10583 0.15875-0.47625-0.13229-0.68791-0.15875-0.10584-0.4498-0.39688-0.42334-1.2965 0.0265-1.1377 0.68792-1.7462 1.561-1.7462m3.0427 5.6621s-0.0265-0.9525-0.58208-1.1377c-0.55563-0.18521-1.7462-0.23812-1.6669-0.79375 0-0.10583-0.15875-0.47625 0.1323-0.68791 0.15875-0.10584 0.44979-0.39688 0.42333-1.2965-0.0265-1.1377-0.68792-1.7462-1.561-1.7462" fill="none" stroke="#ccc" stroke-miterlimit="10" stroke-width=".26458"/>
 </g>
</svg>
