<?xml version="1.0" encoding="UTF-8"?>
<!-- Created with Inkscape (http://www.inkscape.org/) -->
<svg width="35.498mm" height="21.235mm" version="1.1" viewBox="0 0 35.498 21.235" xmlns="http://www.w3.org/2000/svg" xmlns:xlink="http://www.w3.org/1999/xlink">
 <defs>
  <linearGradient id="linearGradient8786-0-8" x1="87.956" x2="87.759" y1="89.928" y2="112.11" gradientUnits="userSpaceOnUse" xlink:href="#linearGradient8784"/>
  <linearGradient id="linearGradient8784">
   <stop stop-color="#1d1d1d" offset="0"/>
   <stop stop-color="#1d1d1d" stop-opacity="0" offset="1"/>
  </linearGradient>
  <linearGradient id="linearGradient1613" x1="87.956" x2="87.759" y1="89.928" y2="112.11" gradientTransform="matrix(.33029 0 0 1 97.736 36.727)" gradientUnits="userSpaceOnUse" xlink:href="#linearGradient8784"/>
  <linearGradient id="linearGradient1615" x1="87.956" x2="87.759" y1="89.928" y2="112.11" gradientTransform="matrix(.33029 0 0 1 117.54 36.727)" gradientUnits="userSpaceOnUse" xlink:href="#linearGradient8784"/>
  <linearGradient id="linearGradient1617" x1="87.956" x2="87.759" y1="89.928" y2="112.11" gradientTransform="matrix(1 0 0 2.0214 7.5024e-6 -69.828)" gradientUnits="userSpaceOnUse" xlink:href="#linearGradient8784"/>
  <linearGradient id="linearGradient1619" x1="87.956" x2="87.759" y1="89.928" y2="112.11" gradientTransform="matrix(.67299 0 0 1 77.562 0)" gradientUnits="userSpaceOnUse" xlink:href="#linearGradient8784"/>
  <linearGradient id="linearGradient1621" x1="87.956" x2="87.759" y1="89.928" y2="112.11" gradientTransform="matrix(.67299 0 0 1 77.562 18.598)" gradientUnits="userSpaceOnUse" xlink:href="#linearGradient8784"/>
  <linearGradient id="linearGradient1623" x1="87.956" x2="87.759" y1="89.928" y2="112.11" gradientTransform="matrix(1 0 0 3.0841 .00046915 -180.43)" gradientUnits="userSpaceOnUse" xlink:href="#linearGradient8784"/>
  <linearGradient id="linearGradient1627" x1="87.956" x2="87.759" y1="89.928" y2="112.11" gradientTransform="matrix(.67299 0 0 1 77.562 18.978)" gradientUnits="userSpaceOnUse" xlink:href="#linearGradient8784"/>
  <linearGradient id="linearGradient1629" x1="87.956" x2="87.759" y1="89.928" y2="112.11" gradientTransform="matrix(.33029 0 0 1 39.424 36.727)" gradientUnits="userSpaceOnUse" xlink:href="#linearGradient8784"/>
 </defs>
 <g transform="translate(-100.7 -81.458)">
  <g transform="matrix(.35714 0 0 .35714 80.062 51.911)">
   <g fill-rule="evenodd">
    <rect x="57.783" y="82.73" width="99.394" height="59.459" fill="#101010"/>
    <rect x="58.868" y="86.576" width="57.783" height="17.749" fill="url(#linearGradient8786-0-8)"/>
    <rect x="117.18" y="123.3" width="19.085" height="17.749" fill="url(#linearGradient1613)"/>
    <rect x="136.98" y="123.3" width="19.085" height="17.749" fill="url(#linearGradient1615)"/>
    <rect x="58.868" y="105.17" width="57.783" height="35.877" fill="url(#linearGradient1617)"/>
    <rect x="117.18" y="86.576" width="38.887" height="17.749" fill="url(#linearGradient1619)"/>
    <rect x="117.18" y="105.17" width="38.887" height="17.749" fill="url(#linearGradient1621)"/>
    <rect x="57.783" y="82.73" width="99.394" height="59.459" fill="#101010"/>
    <rect x="58.868" y="86.576" width="57.783" height="54.74" fill="url(#linearGradient1623)"/>
    <rect x="117.18" y="86.576" width="38.887" height="17.749" fill="url(#linearGradient1619)"/>
   </g>
   <g transform="translate(0 -.37943)">
    <rect x="117.18" y="105.55" width="38.887" height="17.749" fill="url(#linearGradient1627)" fill-rule="evenodd"/>
    <g transform="translate(3.7635e-6 18.978)" fill="#999" font-family="TrebuchetFlex" font-size="3.8806px" stroke-width=".26458">
     <g aria-label="123">
      <path d="m134.16 92.689v-2.1279l-0.56466 0.35244v-0.35433q0.21412-0.108 0.45476-0.29749 0.24254-0.18948 0.37517-0.36002h0.11369v2.7873z"/>
      <path d="m135.38 92.689v-0.07579l0.86972-1.3321q0.27286-0.41876 0.27286-0.71056 0-0.38465-0.43392-0.38465-0.15348 0-0.28801 0.08148-0.13453 0.07958-0.19517 0.20275l-0.24443-0.20085q0.0644-0.18569 0.25201-0.29559 0.18949-0.1099 0.45666-0.1099 0.3998 0 0.62529 0.18569 0.22548 0.1838 0.22548 0.52108 0 0.31265-0.29938 0.78825l-0.6234 0.9891h1.0876v0.34107z"/>
      <path d="m137.49 92.492 0.18191-0.2918q0.18569 0.20464 0.46991 0.20464 0.52676 0 0.52676-0.51539 0-0.23496-0.15348-0.38086-0.15348-0.1478-0.40738-0.1478h-0.0303v-0.30696h0.0171q0.48129 0 0.48129-0.42444 0-0.44339-0.45287-0.44339-0.24632 0-0.39222 0.16485l-0.16864-0.2577q0.17622-0.22927 0.58929-0.22927 0.3638 0 0.59308 0.19517 0.22927 0.19327 0.22927 0.49644 0 0.23117-0.12885 0.40928-0.12695 0.17811-0.29938 0.23875 0.23875 0.07769 0.37897 0.26528 0.14211 0.18569 0.14211 0.45097 0 0.38654-0.24444 0.59687-0.24443 0.21033-0.68592 0.21033-0.18569 0-0.36381-0.06821-0.17811-0.07011-0.28233-0.16674z"/>
      <path d="m134.16 96.887v-2.1279l-0.56466 0.35244v-0.35433q0.21412-0.108 0.45476-0.29749 0.24254-0.18948 0.37517-0.36002h0.11369v2.7873z"/>
      <path d="m135.38 96.887v-0.07579l0.86972-1.3321q0.27286-0.41876 0.27286-0.71056 0-0.38465-0.43392-0.38465-0.15348 0-0.28801 0.08148-0.13453 0.07958-0.19517 0.20275l-0.24443-0.20085q0.0644-0.18569 0.25201-0.29559 0.18949-0.1099 0.45666-0.1099 0.3998 0 0.62529 0.18569 0.22548 0.1838 0.22548 0.52108 0 0.31265-0.29938 0.78825l-0.6234 0.9891h1.0876v0.34107z"/>
      <path d="m137.49 96.689 0.18191-0.2918q0.18569 0.20464 0.46991 0.20464 0.52676 0 0.52676-0.51539 0-0.23496-0.15348-0.38086-0.15348-0.1478-0.40738-0.1478h-0.0303v-0.30696h0.0171q0.48129 0 0.48129-0.42444 0-0.44339-0.45287-0.44339-0.24632 0-0.39222 0.16485l-0.16864-0.2577q0.17622-0.22927 0.58929-0.22927 0.3638 0 0.59308 0.19517 0.22927 0.19327 0.22927 0.49644 0 0.23117-0.12885 0.40928-0.12695 0.17811-0.29938 0.23875 0.23875 0.07769 0.37897 0.26528 0.14211 0.18569 0.14211 0.45097 0 0.38654-0.24444 0.59687-0.24443 0.21032-0.68592 0.21032-0.18569 0-0.36381-0.06821-0.17811-0.07011-0.28233-0.16674z"/>
      <path d="m134.16 101.08v-2.1279l-0.56466 0.35244v-0.35433q0.21412-0.108 0.45476-0.29749 0.24254-0.18948 0.37517-0.36002h0.11369v2.7873z"/>
      <path d="m135.38 101.08v-0.0758l0.86972-1.3321q0.27286-0.41876 0.27286-0.71056 0-0.38465-0.43392-0.38465-0.15348 0-0.28801 0.08148-0.13453 0.07958-0.19517 0.20275l-0.24443-0.20085q0.0644-0.18569 0.25201-0.29559 0.18949-0.1099 0.45666-0.1099 0.3998 0 0.62529 0.18569 0.22548 0.1838 0.22548 0.52108 0 0.31265-0.29938 0.78825l-0.6234 0.9891h1.0876v0.34107z"/>
      <path d="m137.49 100.89 0.18191-0.2918q0.18569 0.20464 0.46991 0.20464 0.52676 0 0.52676-0.5154 0-0.23495-0.15348-0.38086-0.15348-0.1478-0.40738-0.1478h-0.0303v-0.30696h0.0171q0.48129 0 0.48129-0.42444 0-0.44339-0.45287-0.44339-0.24632 0-0.39222 0.16485l-0.16864-0.2577q0.17622-0.22927 0.58929-0.22927 0.3638 0 0.59308 0.19517 0.22927 0.19327 0.22927 0.49644 0 0.23117-0.12885 0.40928-0.12695 0.17811-0.29938 0.23875 0.23875 0.07769 0.37897 0.26528 0.14211 0.1857 0.14211 0.45097 0 0.38655-0.24444 0.59687-0.24443 0.21033-0.68592 0.21033-0.18569 0-0.36381-0.0682-0.17811-0.0701-0.28233-0.16674z"/>
     </g>
    </g>
   </g>
   <rect transform="translate(78.114)" x="58.868" y="123.3" width="19.085" height="17.749" fill="url(#linearGradient1629)" fill-rule="evenodd"/>
   <g transform="translate(101.17 74.204)" fill="none" stroke="#999" stroke-width=".26458px">
    <path d="m41.521 55.257v5.2991h7.7743"/>
    <path d="m41.556 59.179 2.4055-2.0743 2.4927 1.7431 2.7716-2.789"/>
   </g>
   <g transform="translate(58.312)">
    <rect x="58.868" y="123.3" width="19.085" height="17.749" fill="url(#linearGradient1629)" fill-rule="evenodd"/>
    <g transform="translate(-67.922 36.684)" fill="#999" font-family="TrebuchetFlex" font-size="3.8806px" stroke-width=".26458">
     <g aria-label="123">
      <path d="m134.16 92.689v-2.1279l-0.56466 0.35244v-0.35433q0.21412-0.108 0.45476-0.29749 0.24254-0.18948 0.37517-0.36002h0.11369v2.7873z"/>
      <path d="m135.38 92.689v-0.07579l0.86972-1.3321q0.27286-0.41876 0.27286-0.71056 0-0.38465-0.43392-0.38465-0.15348 0-0.28801 0.08148-0.13453 0.07958-0.19517 0.20275l-0.24443-0.20085q0.0644-0.18569 0.25201-0.29559 0.18949-0.1099 0.45666-0.1099 0.3998 0 0.62529 0.18569 0.22548 0.1838 0.22548 0.52108 0 0.31265-0.29938 0.78825l-0.6234 0.9891h1.0876v0.34107z"/>
      <path d="m137.49 92.492 0.18191-0.2918q0.18569 0.20464 0.46991 0.20464 0.52676 0 0.52676-0.51539 0-0.23496-0.15348-0.38086-0.15348-0.1478-0.40738-0.1478h-0.0303v-0.30696h0.0171q0.48129 0 0.48129-0.42444 0-0.44339-0.45287-0.44339-0.24632 0-0.39222 0.16485l-0.16864-0.2577q0.17622-0.22927 0.58929-0.22927 0.3638 0 0.59308 0.19517 0.22927 0.19327 0.22927 0.49644 0 0.23117-0.12885 0.40928-0.12695 0.17811-0.29938 0.23875 0.23875 0.07769 0.37897 0.26528 0.14211 0.18569 0.14211 0.45097 0 0.38654-0.24444 0.59687-0.24443 0.21033-0.68592 0.21033-0.18569 0-0.36381-0.06821-0.17811-0.07011-0.28233-0.16674z"/>
     </g>
     <g aria-label="Scvo2">
      <path d="m131.93 96.76 0.13832-0.34865q0.10611 0.07769 0.26338 0.13074 0.15917 0.05116 0.28422 0.05116 0.2217 0 0.35623-0.12127t0.13453-0.30886q0-0.14022-0.0758-0.25959-0.0739-0.12127-0.37517-0.26338l-0.22359-0.10422q-0.28423-0.13264-0.39792-0.31454-0.11179-0.1819-0.11179-0.4377 0-0.31075 0.2198-0.51539t0.56466-0.20464q0.46044 0 0.64045 0.14969l-0.1118 0.3297q-0.0758-0.05495-0.23117-0.10611t-0.28801-0.05116q-0.19327 0-0.30507 0.1099-0.1099 0.1099-0.1099 0.28233 0 0.10611 0.0398 0.19327 0.0398 0.08716 0.1099 0.1459 0.072 0.05874 0.29181 0.16485l0.22738 0.108q0.28422 0.13453 0.39791 0.32212 0.11558 0.18569 0.11558 0.47371 0 0.31265-0.25201 0.53055-0.25011 0.2179-0.67077 0.2179-0.36949 0-0.63097-0.17432z"/>
      <path d="m135.43 95.022-0.17811 0.25391q-0.0549-0.05495-0.19517-0.10422-0.13832-0.04927-0.27285-0.04927-0.2937 0-0.46613 0.20654-0.17243 0.20464-0.17243 0.56276 0 0.35623 0.17622 0.54381 0.17622 0.18569 0.48887 0.18569 0.24253 0 0.48886-0.18759l0.14211 0.30317q-0.28991 0.18759-0.71814 0.18759-0.41496 0-0.68592-0.27854t-0.27096-0.75414q0-0.48508 0.28043-0.77877 0.28233-0.2937 0.7712-0.2937 0.15727 0 0.34106 0.06632 0.1838 0.06632 0.27096 0.13643z"/>
      <path d="m136.55 96.924h-0.0947l-0.86973-2.0729h0.39413l0.53623 1.4211 0.54761-1.4211h0.37707z"/>
      <path d="m137.59 95.867q0-0.46992 0.25201-0.75793 0.25391-0.28991 0.66698-0.28991 0.43581 0 0.67645 0.27854 0.24064 0.27664 0.24064 0.7693 0 0.49076-0.24632 0.77498-0.24633 0.28233-0.67077 0.28233-0.43392 0-0.67645-0.28612-0.24254-0.28612-0.24254-0.77119zm0.37896 0q0 0.76361 0.54003 0.76361 0.25201 0 0.39412-0.20464 0.14401-0.20464 0.14401-0.55897 0-0.75414-0.53813-0.75414-0.24633 0-0.39413 0.20085-0.1459 0.20085-0.1459 0.55329z"/>
      <path d="m139.63 97.663v-0.04927l0.56532-0.86584q0.17736-0.27219 0.17736-0.46186 0-0.25002-0.28205-0.25002-0.0998 0-0.18721 0.05296-0.0874 0.05173-0.12686 0.13178l-0.15888-0.13055q0.0419-0.1207 0.16381-0.19214 0.12316-0.07143 0.29682-0.07143 0.25988 0 0.40644 0.1207 0.14657 0.11947 0.14657 0.3387 0 0.20322-0.1946 0.51236l-0.40521 0.64291h0.70696v0.2217z" baseline-shift="sub"/>
     </g>
     <g aria-label="123">
      <path d="m134.16 101.08v-2.1279l-0.56466 0.35244v-0.35433q0.21412-0.108 0.45476-0.29749 0.24254-0.18948 0.37517-0.36002h0.11369v2.7873z"/>
      <path d="m135.38 101.08v-0.0758l0.86972-1.3321q0.27286-0.41876 0.27286-0.71056 0-0.38465-0.43392-0.38465-0.15348 0-0.28801 0.08148-0.13453 0.07958-0.19517 0.20275l-0.24443-0.20085q0.0644-0.18569 0.25201-0.29559 0.18949-0.1099 0.45666-0.1099 0.3998 0 0.62529 0.18569 0.22548 0.1838 0.22548 0.52108 0 0.31265-0.29938 0.78825l-0.6234 0.9891h1.0876v0.34107z"/>
      <path d="m137.49 100.89 0.18191-0.2918q0.18569 0.20464 0.46991 0.20464 0.52676 0 0.52676-0.5154 0-0.23495-0.15348-0.38086-0.15348-0.1478-0.40738-0.1478h-0.0303v-0.30696h0.0171q0.48129 0 0.48129-0.42444 0-0.44339-0.45287-0.44339-0.24632 0-0.39222 0.16485l-0.16864-0.2577q0.17622-0.22927 0.58929-0.22927 0.3638 0 0.59308 0.19517 0.22927 0.19327 0.22927 0.49644 0 0.23117-0.12885 0.40928-0.12695 0.17811-0.29938 0.23875 0.23875 0.07769 0.37897 0.26528 0.14211 0.1857 0.14211 0.45097 0 0.38655-0.24444 0.59687-0.24443 0.21033-0.68592 0.21033-0.18569 0-0.36381-0.0682-0.17811-0.0701-0.28233-0.16674z"/>
     </g>
    </g>
   </g>
   <path d="m133.05 97.896s0.91035-5e-3 1.246-2.5537c0.6011-4.5645 1.4975-1.2214 1.4975-1.2214s0.2789 1.0459 0.94129 0.34863c0.66238-0.69725 1.2202 1.1853 1.2202 1.1853s1.2899 2.4055 2.2312 2.3009" fill="none" stroke="#999" stroke-width=".26458px"/>
   <g transform="translate(-2.9001 90.839)" fill="none" stroke="#999">
    <path transform="scale(.26458)" d="m340.08 48.682v3.3086c-2.8512 1.0706-4.7404 3.7962-4.7422 6.8418 2e-4 4.0385 3.274 7.3123 7.3125 7.3125 4.0385-1.96e-4 7.3123-3.274 7.3125-7.3125-7.5e-4 -3.2006-2.0828-6.0289-5.1387-6.9805v-3.1699" stroke-miterlimit="10"/>
    <g transform="translate(-.017312)" stroke-width=".26458px">
     <path d="m88.001 32.352h1.0735c0.34796 0.5129 0.936 0.84953 1.6025 0.84956 0.66649-3.2e-5 1.254-0.33666 1.602-0.84956h1.0735"/>
     <path d="m88.001 31.627h1.0735c0.34796-0.5129 0.936-0.84953 1.6025-0.84956 0.66649 3.2e-5 1.254 0.33666 1.602 0.84956h1.0735"/>
    </g>
    <g transform="translate(15.515 .59889)" stroke-miterlimit="10">
     <path transform="scale(.26458)" d="m271.96 118.55h-3.6563c-2.4076 0-4.3459-1.5528-4.3459-3.4815v-25.322c0-1.9288 1.9383-3.4815 4.3459-3.4815h3.6563" stroke-width="1.0292"/>
     <path transform="scale(.26458)" d="m295.15 86.266h5.3673c2.4076 0 4.3459 1.5528 4.3459 3.4815v25.322c0 1.9288-1.9383 3.4815-4.3459 3.4815h-5.3673" stroke-width="1.0292"/>
     <path transform="scale(.26458)" d="m271.96 81.761h-4.5118c-2.4076 0-4.3459-1.2283-4.3459-2.7541v-20.031c0-1.5257 1.9383-2.7541 4.3459-2.7541l4.5118-1e-6" stroke-width=".91535"/>
     <path transform="scale(.26458)" d="m295.15 56.221h4.5118c2.4076 0 4.3459 1.2283 4.3459 2.7541v20.031c0 1.5257-1.9383 2.7541-4.3459 2.7541l-4.5118-1e-6" stroke-width=".91535"/>
    </g>
    <path d="m91.372 25.306c0.15692 0.0061 0.30593-0.06902 0.39436-0.1988 0.14627-0.20364 0.23435-0.58022 0.23597-1.0061 2e-3 -0.42587-0.0848-0.8267-0.22627-1.0433-0.04597-0.07258-0.09644-0.14222-0.15112-0.20849 0 0-6e-3 -0.0065-6e-3 -0.0065v-0.0089c-0.01528-0.09781-0.02124-0.19684-0.0178-0.29577 6.71e-4 -0.08588 0.01655-0.17097 0.0469-0.25132 0.021-0.0493 0.0461-0.09293 0.11799-0.09293h8e-3l0.63114 0.02667s6e-3 -0.60285 6e-3 -0.60285c-0.0558-0.0089-0.11799-0.01454-0.18425-0.02102-0.14818-0.0047-0.29479-0.03197-0.43477-0.08081l-0.01-0.0048-5e-3 -0.0097c-0.04366-0.07277-0.0589-0.15911-0.0428-0.24243 0.0066-0.02076 0.02193-0.0376 0.042-0.04606 0.08035-0.02267 0.16398-0.03142 0.24728-0.02586 0.12688 0 0.27314 0.0081 0.37012 0.01374h5e-3v-0.17455c0-0.13496 0-0.2691 5e-3 -0.40406h-0.025c-0.61982 0-1.4764 0.08889-2.038 0.51557l-0.0339 0.02586-0.0129-0.04041c-0.0897-0.27556-0.29658-0.90993-0.33052-0.99802l-0.0186-0.04768h-0.0509c-0.0509 0-0.0986 0.0073-0.14546 0.01212-0.0614 0.0056-0.12525 0.01212-0.19313 0.01292 0.0687 0.72245 0.0743 1.2073-0.34426 1.7778-0.11081 0.13416-0.19922 0.28534-0.26183 0.44769-0.08081 0.27395-0.02586 0.62063 0.02262 0.9269v0.0065c0.0081 0.0501 0.01617 0.0994 0.02424 0.16162 0.01494 0.05568 0.04261 0.10713 0.08081 0.15031 0.03274 0.03938 0.0577 0.08463 0.07354 0.13334 0.0412 0.20607 0.18587 0.43396 0.4186 0.65861 0.24215 0.23229 0.52266 0.42094 0.82913 0.5576 0.0364 0.01535 0.0945 0.04687 0.16162 0.08081l6e-3 4e-3c0.25051 0.13657 0.54386 0.299 0.80811 0.29496l-0.0019 0.0033z" stroke-width=".242"/>
   </g>
  </g>
 </g>
</svg>
