<?xml version="1.0" encoding="UTF-8" standalone="no"?>
<!-- Created with Inkscape (http://www.inkscape.org/) -->

<svg
   width="35.498mm"
   height="21.235mm"
   version="1.1"
   viewBox="0 0 35.498 21.235"
   id="svg1432"
   xmlns:xlink="http://www.w3.org/1999/xlink"
   xmlns="http://www.w3.org/2000/svg"
   xmlns:svg="http://www.w3.org/2000/svg">
  <defs
     id="defs1372">
    <linearGradient
       id="linearGradient2466"
       x1="87.956"
       x2="87.759"
       y1="89.928"
       y2="112.11"
       gradientUnits="userSpaceOnUse"
       xlink:href="#linearGradient8784" />
    <linearGradient
       id="linearGradient8784">
      <stop
         stop-color="#1d1d1d"
         offset="0"
         id="stop1361" />
      <stop
         stop-color="#1d1d1d"
         stop-opacity="0"
         offset="1"
         id="stop1363" />
    </linearGradient>
    <linearGradient
       id="linearGradient2468"
       x1="87.956"
       x2="87.759"
       y1="89.928"
       y2="112.11"
       gradientTransform="matrix(.33029 0 0 1 97.736 36.727)"
       gradientUnits="userSpaceOnUse"
       xlink:href="#linearGradient8784" />
    <linearGradient
       id="linearGradient2470"
       x1="87.956"
       x2="87.759"
       y1="89.928"
       y2="112.11"
       gradientTransform="matrix(.33029 0 0 1 117.54 36.727)"
       gradientUnits="userSpaceOnUse"
       xlink:href="#linearGradient8784" />
    <linearGradient
       id="linearGradient2472"
       x1="87.956"
       x2="87.759"
       y1="89.928"
       y2="112.11"
       gradientTransform="matrix(1 0 0 2.0214 7.5024e-6 -69.828)"
       gradientUnits="userSpaceOnUse"
       xlink:href="#linearGradient8784" />
    <linearGradient
       id="linearGradient2474"
       x1="87.956"
       x2="87.759"
       y1="89.928"
       y2="112.11"
       gradientTransform="matrix(.67299 0 0 1 77.562 0)"
       gradientUnits="userSpaceOnUse"
       xlink:href="#linearGradient8784" />
    <linearGradient
       id="linearGradient2476"
       x1="87.956"
       x2="87.759"
       y1="89.928"
       y2="112.11"
       gradientTransform="matrix(.67299 0 0 1 77.562 18.598)"
       gradientUnits="userSpaceOnUse"
       xlink:href="#linearGradient8784" />
    <linearGradient
       id="linearGradient2789"
       x1="87.956"
       x2="87.759"
       y1="89.928"
       y2="112.11"
       gradientTransform="matrix(.65911 0 0 2.0214 77.85 -69.828)"
       gradientUnits="userSpaceOnUse"
       xlink:href="#linearGradient8784" />
  </defs>
  <g
     transform="translate(-146.68 -89.46)"
     id="g1430">
    <g
       transform="matrix(.35714 0 0 .35714 126.05 59.914)"
       id="g1428">
      <g
         fill-rule="evenodd"
         id="g1396">
        <rect
           x="57.783"
           y="82.73"
           width="99.394"
           height="59.459"
           fill="#101010"
           id="rect1374" />
        <rect
           x="58.868"
           y="86.576"
           width="57.783"
           height="17.749"
           fill="url(#linearGradient2466)"
           id="rect1376" />
        <rect
           x="117.18"
           y="123.3"
           width="19.085"
           height="17.749"
           fill="url(#linearGradient2468)"
           id="rect1378" />
        <rect
           x="136.98"
           y="123.3"
           width="19.085"
           height="17.749"
           fill="url(#linearGradient2470)"
           id="rect1380" />
        <rect
           x="58.868"
           y="105.17"
           width="57.783"
           height="35.877"
           fill="url(#linearGradient2472)"
           id="rect1382" />
        <rect
           x="117.18"
           y="86.576"
           width="38.887"
           height="17.749"
           fill="url(#linearGradient2474)"
           id="rect1384" />
        <rect
           x="117.18"
           y="105.17"
           width="38.887"
           height="17.749"
           fill="url(#linearGradient2476)"
           id="rect1386" />
        <rect
           x="57.783"
           y="82.73"
           width="99.394"
           height="59.459"
           fill="#101010"
           id="rect1388" />
        <rect
           x="58.868"
           y="86.576"
           width="57.783"
           height="17.749"
           fill="url(#linearGradient2466)"
           id="rect1390" />
        <rect
           x="58.868"
           y="105.17"
           width="57.783"
           height="35.877"
           fill="url(#linearGradient2472)"
           id="rect1392" />
        <rect
           x="117.18"
           y="86.576"
           width="38.887"
           height="17.749"
           fill="url(#linearGradient2474)"
           id="rect1394" />
      </g>
      <g
         fill="#999999"
         font-family="TrebuchetFlex"
         font-size="3.8806px"
         stroke-width=".26458"
         id="g1410">
        <g
           aria-label="123"
           id="text1400"
           style="line-height:1.25">
          <path
             d="m 134.15975,92.68924 v -2.127888 l -0.56466,0.352437 v -0.354332 q 0.21412,-0.108005 0.45476,-0.297487 0.24254,-0.189483 0.37517,-0.360017 h 0.11369 v 2.787287 z"
             style="font-size:3.8806px"
             id="path1525" />
          <path
             d="m 135.38191,92.68924 v -0.07579 l 0.86972,-1.332062 q 0.27286,-0.418756 0.27286,-0.710559 0,-0.384649 -0.43392,-0.384649 -0.15348,0 -0.28801,0.08148 -0.13453,0.07958 -0.19517,0.202746 l -0.24443,-0.200851 q 0.0644,-0.185693 0.25201,-0.295593 0.18949,-0.109899 0.45666,-0.109899 0.3998,0 0.62529,0.185692 0.22548,0.183798 0.22548,0.521077 0,0.312646 -0.29938,0.788247 l -0.6234,0.989098 h 1.08763 v 0.341069 z"
             style="font-size:3.8806px"
             id="path1527" />
          <path
             d="m 137.49274,92.492178 0.18191,-0.291803 q 0.18569,0.204641 0.46991,0.204641 0.52676,0 0.52676,-0.515392 0,-0.234959 -0.15348,-0.38086 -0.15348,-0.147796 -0.40738,-0.147796 h -0.0303 v -0.306962 h 0.0171 q 0.48129,0 0.48129,-0.42444 0,-0.443389 -0.45287,-0.443389 -0.24632,0 -0.39222,0.164849 l -0.16864,-0.257696 q 0.17622,-0.229273 0.58929,-0.229273 0.3638,0 0.59308,0.195167 0.22927,0.193272 0.22927,0.496443 0,0.231169 -0.12885,0.409282 -0.12695,0.178114 -0.29938,0.238748 0.23875,0.07769 0.37897,0.265276 0.14211,0.185692 0.14211,0.450968 0,0.386544 -0.24444,0.596869 -0.24443,0.210326 -0.68592,0.210326 -0.18569,0 -0.36381,-0.06821 -0.17811,-0.07011 -0.28233,-0.166744 z"
             style="font-size:3.8806px"
             id="path1529" />
        </g>
        <g
           aria-label="123"
           id="text1404"
           style="line-height:1.25">
          <path
             d="m 134.15975,96.886559 v -2.127888 l -0.56466,0.352437 v -0.354332 q 0.21412,-0.108005 0.45476,-0.297487 0.24254,-0.189483 0.37517,-0.360017 h 0.11369 v 2.787287 z"
             style="font-size:3.8806px"
             id="path1532" />
          <path
             d="m 135.38191,96.886559 v -0.07579 l 0.86972,-1.332062 q 0.27286,-0.418756 0.27286,-0.710559 0,-0.384649 -0.43392,-0.384649 -0.15348,0 -0.28801,0.08148 -0.13453,0.07958 -0.19517,0.202746 l -0.24443,-0.200851 q 0.0644,-0.185693 0.25201,-0.295593 0.18949,-0.109899 0.45666,-0.109899 0.3998,0 0.62529,0.185692 0.22548,0.183798 0.22548,0.521077 0,0.312646 -0.29938,0.788247 l -0.6234,0.989098 h 1.08763 v 0.341069 z"
             style="font-size:3.8806px"
             id="path1534" />
          <path
             d="m 137.49274,96.689497 0.18191,-0.291803 q 0.18569,0.204641 0.46991,0.204641 0.52676,0 0.52676,-0.515392 0,-0.234958 -0.15348,-0.38086 -0.15348,-0.147796 -0.40738,-0.147796 h -0.0303 v -0.306962 h 0.0171 q 0.48129,0 0.48129,-0.42444 0,-0.443389 -0.45287,-0.443389 -0.24632,0 -0.39222,0.164849 l -0.16864,-0.257696 q 0.17622,-0.229273 0.58929,-0.229273 0.3638,0 0.59308,0.195167 0.22927,0.193272 0.22927,0.496443 0,0.231169 -0.12885,0.409283 -0.12695,0.178113 -0.29938,0.238747 0.23875,0.07769 0.37897,0.265276 0.14211,0.185693 0.14211,0.450968 0,0.386544 -0.24444,0.59687 -0.24443,0.210325 -0.68592,0.210325 -0.18569,0 -0.36381,-0.06821 -0.17811,-0.07011 -0.28233,-0.166744 z"
             style="font-size:3.8806px"
             id="path1536" />
        </g>
        <g
           aria-label="123"
           id="text1408"
           style="line-height:1.25">
          <path
             d="m 134.15975,101.08387 v -2.127888 l -0.56466,0.352438 v -0.354332 q 0.21412,-0.108005 0.45476,-0.297488 0.24254,-0.189482 0.37517,-0.360016 h 0.11369 v 2.787286 z"
             style="font-size:3.8806px"
             id="path1539" />
          <path
             d="m 135.38191,101.08387 v -0.0758 l 0.86972,-1.332064 q 0.27286,-0.418757 0.27286,-0.71056 0,-0.384649 -0.43392,-0.384649 -0.15348,0 -0.28801,0.08148 -0.13453,0.07958 -0.19517,0.202746 l -0.24443,-0.200852 q 0.0644,-0.185692 0.25201,-0.295592 0.18949,-0.1099 0.45666,-0.1099 0.3998,0 0.62529,0.185693 0.22548,0.183798 0.22548,0.521076 0,0.312646 -0.29938,0.788247 l -0.6234,0.989097 h 1.08763 v 0.34107 z"
             style="font-size:3.8806px"
             id="path1541" />
          <path
             d="m 137.49274,100.88681 0.18191,-0.2918 q 0.18569,0.20464 0.46991,0.20464 0.52676,0 0.52676,-0.5154 0,-0.23495 -0.15348,-0.380856 -0.15348,-0.147796 -0.40738,-0.147796 h -0.0303 v -0.306961 h 0.0171 q 0.48129,0 0.48129,-0.424441 0,-0.443389 -0.45287,-0.443389 -0.24632,0 -0.39222,0.16485 l -0.16864,-0.257696 q 0.17622,-0.229274 0.58929,-0.229274 0.3638,0 0.59308,0.195167 0.22927,0.193272 0.22927,0.496444 0,0.231168 -0.12885,0.409282 -0.12695,0.178113 -0.29938,0.238748 0.23875,0.07769 0.37897,0.265275 0.14211,0.185697 0.14211,0.450967 0,0.38655 -0.24444,0.59687 -0.24443,0.21033 -0.68592,0.21033 -0.18569,0 -0.36381,-0.0682 -0.17811,-0.0701 -0.28233,-0.16674 z"
             style="font-size:3.8806px"
             id="path1543" />
        </g>
      </g>
      <path
         d="m84.308 98.113s0.91035-5e-3 1.246-2.5537c0.6011-4.5645 1.4975-1.2214 1.4975-1.2214s0.2789 1.0459 0.94128 0.34863c0.66238-0.69725 1.2202 1.1853 1.2202 1.1853s1.2899 2.4055 2.2312 2.3009"
         fill="none"
         stroke="#999"
         stroke-width=".26458px"
         id="path1412" />
      <g
         transform="translate(42.529 65.14)"
         fill="none"
         stroke="#999"
         stroke-width=".26458px"
         id="g1418">
        <path
           d="m41.521 55.257v5.2991h7.7743"
           id="path1414" />
        <path
           d="m41.556 59.179 2.4055-2.0743 2.4927 1.7431 2.7716-2.789"
           id="path1416" />
      </g>
      <g
         transform="matrix(1.0211 0 0 1 -1.9265 -.00030778)"
         id="g1426">
        <rect
           x="116.65"
           y="105.17"
           width="38.085"
           height="35.877"
           fill="url(#linearGradient2789)"
           fill-rule="evenodd"
           id="rect1420" />
        <g
           aria-label="CIPC"
           id="text1424"
           style="font-size:7.7611px;line-height:1.25;font-family:TrebuchetFlex;fill:#999999;stroke-width:0.26458">
          <path
             d="m 132.1175,120.54136 -0.25391,0.64803 q -0.3638,-0.26528 -1.14446,-0.26528 -0.73139,0 -1.17477,0.62908 -0.4396,0.62907 -0.4396,1.62195 0,0.9474 0.45097,1.53857 0.45475,0.58739 1.17098,0.58739 0.78066,0 1.20131,-0.55328 l 0.41685,0.57981 q -0.65939,0.6556 -1.69774,0.6556 -1.08761,0 -1.7129,-0.78445 -0.62528,-0.78445 -0.62528,-2.06912 0,-1.24299 0.66697,-2.06533 0.66697,-0.82234 1.72427,-0.82234 0.90571,0 1.41731,0.29937 z"
             style="text-align:center;text-anchor:middle"
             id="path1516" />
          <path
             d="m 133.34912,125.88849 v -5.55176 h 0.75792 v 5.55176 z"
             style="text-align:center;text-anchor:middle"
             id="path1518" />
          <path
             d="m 136.13447,123.75115 v 2.13734 h -0.75792 v -5.55176 q 0.86024,-0.0379 1.03835,-0.0379 2.41777,0 2.41777,1.61816 0,1.87206 -2.13734,1.87206 -0.12884,0 -0.56086,-0.0379 z m 0,-2.7323 v 2.05018 q 0.48128,0.0379 0.50781,0.0379 1.40973,0 1.40973,-1.11035 0,-1.01561 -1.50447,-1.01561 -0.15159,0 -0.41307,0.0379 z"
             style="text-align:center;text-anchor:middle"
             id="path1520" />
          <path
             d="m 143.24755,120.54136 -0.2539,0.64803 q -0.36381,-0.26528 -1.14446,-0.26528 -0.7314,0 -1.17478,0.62908 -0.43959,0.62907 -0.43959,1.62195 0,0.9474 0.45096,1.53857 0.45475,0.58739 1.17099,0.58739 0.78065,0 1.2013,-0.55328 l 0.41686,0.57981 q -0.65939,0.6556 -1.69774,0.6556 -1.08762,0 -1.7129,-0.78445 -0.62529,-0.78445 -0.62529,-2.06912 0,-1.24299 0.66697,-2.06533 0.66697,-0.82234 1.72427,-0.82234 0.90571,0 1.41731,0.29937 z"
             style="text-align:center;text-anchor:middle"
             id="path1522" />
        </g>
      </g>
    </g>
  </g>
</svg>
