<?xml version="1.0" encoding="UTF-8"?>
<!-- Created with Inkscape (http://www.inkscape.org/) -->
<svg width="35.498mm" height="21.235mm" version="1.1" viewBox="0 0 35.498 21.235" xmlns="http://www.w3.org/2000/svg" xmlns:xlink="http://www.w3.org/1999/xlink">
 <defs>
  <linearGradient id="linearGradient2979" x1="87.956" x2="87.759" y1="89.928" y2="112.11" gradientTransform="matrix(.35714 0 0 .35714 114.73 82.965)" gradientUnits="userSpaceOnUse" xlink:href="#linearGradient8784"/>
  <linearGradient id="linearGradient8784">
   <stop stop-color="#1d1d1d" offset="0"/>
   <stop stop-color="#1d1d1d" stop-opacity="0" offset="1"/>
  </linearGradient>
  <linearGradient id="linearGradient2981" x1="87.956" x2="87.759" y1="89.928" y2="112.11" gradientTransform="matrix(.11796 0 0 .35714 149.64 96.082)" gradientUnits="userSpaceOnUse" xlink:href="#linearGradient8784"/>
  <linearGradient id="linearGradient2983" x1="87.956" x2="87.759" y1="89.928" y2="112.11" gradientTransform="matrix(.11796 0 0 .35714 156.71 96.082)" gradientUnits="userSpaceOnUse" xlink:href="#linearGradient8784"/>
  <linearGradient id="linearGradient2985" x1="87.956" x2="87.759" y1="89.928" y2="112.11" gradientTransform="matrix(.35714 0 0 .72192 114.73 58.026)" gradientUnits="userSpaceOnUse" xlink:href="#linearGradient8784"/>
  <linearGradient id="linearGradient2987" x1="87.956" x2="87.759" y1="89.928" y2="112.11" gradientTransform="matrix(.24036 0 0 .35714 142.43 82.965)" gradientUnits="userSpaceOnUse" xlink:href="#linearGradient8784"/>
  <linearGradient id="linearGradient2989" x1="87.956" x2="87.759" y1="89.928" y2="112.11" gradientTransform="matrix(.24036 0 0 .35714 142.43 89.607)" gradientUnits="userSpaceOnUse" xlink:href="#linearGradient8784"/>
  <linearGradient id="linearGradient2991" x1="87.956" x2="87.759" y1="89.928" y2="112.11" gradientTransform="matrix(.2354 0 0 .72192 128.93 58.026)" gradientUnits="userSpaceOnUse" xlink:href="#linearGradient8784"/>
  <linearGradient id="linearGradient2993" x1="87.956" x2="87.759" y1="89.928" y2="112.11" gradientTransform="matrix(.11796 0 0 .35714 128.81 96.082)" gradientUnits="userSpaceOnUse" xlink:href="#linearGradient8784"/>
  <linearGradient id="linearGradient2995" x1="87.956" x2="87.759" y1="89.928" y2="112.11" gradientTransform="matrix(.11796 0 0 .35714 128.81 89.607)" gradientUnits="userSpaceOnUse" xlink:href="#linearGradient8784"/>
  <linearGradient id="linearGradient17781-0" x1="87.956" x2="87.759" y1="89.928" y2="112.11" gradientTransform="matrix(.65911 0 0 2.0214 77.85 -69.828)" gradientUnits="userSpaceOnUse" xlink:href="#linearGradient8784"/>
 </defs>
 <g transform="translate(-135.37 -112.51)">
  <g fill-rule="evenodd">
   <rect x="135.37" y="112.51" width="35.498" height="21.235" fill="#101010"/>
   <rect x="135.76" y="113.88" width="20.637" height="6.3389" fill="url(#linearGradient2979)"/>
   <rect x="156.58" y="127" width="6.8162" height="6.3389" fill="url(#linearGradient2981)"/>
   <rect x="163.66" y="127" width="6.8162" height="6.3389" fill="url(#linearGradient2983)"/>
   <rect x="135.76" y="120.53" width="20.637" height="12.813" fill="url(#linearGradient2985)"/>
   <rect x="156.58" y="113.88" width="13.888" height="6.3389" fill="url(#linearGradient2987)"/>
   <rect x="156.58" y="120.53" width="13.888" height="6.3389" fill="url(#linearGradient2989)"/>
   <rect x="135.37" y="112.51" width="35.498" height="21.235" fill="#101010"/>
   <rect x="142.79" y="120.53" width="13.602" height="12.813" fill="url(#linearGradient2991)"/>
   <rect x="135.76" y="113.88" width="20.637" height="6.3389" fill="url(#linearGradient2979)"/>
   <rect x="135.76" y="127" width="6.8162" height="6.3389" fill="url(#linearGradient2993)"/>
   <rect x="135.76" y="120.53" width="6.8162" height="6.3389" fill="url(#linearGradient2995)"/>
   <rect x="156.58" y="113.88" width="13.888" height="6.3389" fill="url(#linearGradient2987)"/>
  </g>
  <g fill="#999" font-family="TrebuchetFlex" stroke-width=".094494">
   <g font-size="1.3859px">
    <g aria-label="123">
     <path d="m162.65 116.07v-0.75994l-0.20166 0.12587v-0.12655q0.0765-0.0386 0.16241-0.10624 0.0866-0.0677 0.13399-0.12858h0.0406v0.99544z"/>
     <path d="m163.08 116.07v-0.0271l0.31061-0.47572q0.0975-0.14955 0.0975-0.25377 0-0.13737-0.15497-0.13737-0.0548 0-0.10286 0.0291-0.048 0.0284-0.0697 0.0724l-0.0873-0.0717q0.023-0.0663 0.09-0.10557 0.0677-0.0393 0.16308-0.0393 0.14279 0 0.22332 0.0663 0.0805 0.0656 0.0805 0.18609 0 0.11166-0.10692 0.28151l-0.22263 0.35325h0.38843v0.1218z"/>
     <path d="m163.84 116 0.065-0.10422q0.0663 0.0731 0.16782 0.0731 0.18813 0 0.18813-0.18407 0-0.0839-0.0548-0.13602-0.0548-0.0528-0.14549-0.0528h-0.0108v-0.10963h6e-3q0.17189 0 0.17189-0.15158 0-0.15835-0.16174-0.15835-0.088 0-0.14007 0.0589l-0.0602-0.092q0.0629-0.0819 0.21046-0.0819 0.12992 0 0.21181 0.0697 0.0819 0.069 0.0819 0.1773 0 0.0826-0.046 0.14617-0.0453 0.0636-0.10692 0.0853 0.0853 0.0277 0.13534 0.0947 0.0508 0.0663 0.0508 0.16106 0 0.13805-0.0873 0.21316-0.0873 0.0751-0.24497 0.0751-0.0663 0-0.12993-0.0244-0.0636-0.025-0.10083-0.0596z"/>
     <path d="m162.65 117.57v-0.75994l-0.20166 0.12587v-0.12655q0.0765-0.0386 0.16241-0.10624 0.0866-0.0677 0.13399-0.12858h0.0406v0.99544z"/>
     <path d="m163.08 117.57v-0.0271l0.31061-0.47572q0.0975-0.14956 0.0975-0.25377 0-0.13737-0.15497-0.13737-0.0548 0-0.10286 0.0291-0.048 0.0284-0.0697 0.0724l-0.0873-0.0717q0.023-0.0663 0.09-0.10556 0.0677-0.0392 0.16308-0.0392 0.14279 0 0.22332 0.0663 0.0805 0.0656 0.0805 0.18609 0 0.11166-0.10692 0.28151l-0.22263 0.35324h0.38843v0.12181z"/>
     <path d="m163.84 117.5 0.065-0.10421q0.0663 0.0731 0.16782 0.0731 0.18813 0 0.18813-0.18407 0-0.0839-0.0548-0.13602-0.0548-0.0528-0.14549-0.0528h-0.0108v-0.10963h6e-3q0.17189 0 0.17189-0.15158 0-0.15835-0.16174-0.15835-0.088 0-0.14007 0.0589l-0.0602-0.092q0.0629-0.0819 0.21046-0.0819 0.12992 0 0.21181 0.0697 0.0819 0.069 0.0819 0.1773 0 0.0826-0.046 0.14617-0.0453 0.0636-0.10692 0.0853 0.0853 0.0277 0.13534 0.0947 0.0508 0.0663 0.0508 0.16106 0 0.13805-0.0873 0.21316-0.0873 0.0751-0.24497 0.0751-0.0663 0-0.12993-0.0244-0.0636-0.025-0.10083-0.0596z"/>
     <path d="m162.65 119.07v-0.75995l-0.20166 0.12587v-0.12654q0.0765-0.0386 0.16241-0.10625 0.0866-0.0677 0.13399-0.12857h0.0406v0.99544z"/>
     <path d="m163.08 119.07v-0.0271l0.31061-0.47573q0.0975-0.14955 0.0975-0.25376 0-0.13737-0.15497-0.13737-0.0548 0-0.10286 0.0291-0.048 0.0284-0.0697 0.0724l-0.0873-0.0717q0.023-0.0663 0.09-0.10557 0.0677-0.0393 0.16308-0.0393 0.14279 0 0.22332 0.0663 0.0805 0.0656 0.0805 0.1861 0 0.11165-0.10692 0.28151l-0.22263 0.35324h0.38843v0.12181z"/>
     <path d="m163.84 119 0.065-0.10421q0.0663 0.0731 0.16782 0.0731 0.18813 0 0.18813-0.18406 0-0.0839-0.0548-0.13602-0.0548-0.0528-0.14549-0.0528h-0.0108v-0.10962h6e-3q0.17189 0 0.17189-0.15158 0-0.15835-0.16174-0.15835-0.088 0-0.14007 0.0589l-0.0602-0.092q0.0629-0.0819 0.21046-0.0819 0.12992 0 0.21181 0.0697 0.0819 0.069 0.0819 0.17729 0 0.0826-0.046 0.14617-0.0453 0.0636-0.10692 0.0853 0.0853 0.0277 0.13534 0.0947 0.0508 0.0663 0.0508 0.16105 0 0.13805-0.0873 0.21317-0.0873 0.0751-0.24497 0.0751-0.0663 0-0.12993-0.0244-0.0636-0.025-0.10083-0.0596z"/>
    </g>
   </g>
   <g aria-label="123">
    <path d="m148.04 127.93v-1.5199l-0.40332 0.25174v-0.25309q0.15294-0.0771 0.32482-0.21249 0.17324-0.13534 0.26798-0.25715h0.0812v1.9909z"/>
    <path d="m148.91 127.93v-0.0541l0.62121-0.95146q0.1949-0.2991 0.1949-0.50753 0-0.27474-0.30994-0.27474-0.10962 0-0.20572 0.0582-0.0961 0.0568-0.1394 0.14482l-0.17459-0.14346q0.046-0.13264 0.18001-0.21114 0.13534-0.0785 0.32617-0.0785 0.28557 0 0.44663 0.13263 0.16105 0.13128 0.16105 0.37219 0 0.22331-0.21384 0.56302l-0.44527 0.70649h0.77686v0.24361z"/>
    <path d="m150.42 127.79 0.12993-0.20843q0.13264 0.14617 0.33565 0.14617 0.37625 0 0.37625-0.36813 0-0.16782-0.10963-0.27204-0.10962-0.10556-0.29098-0.10556h-0.0217v-0.21926h0.0122q0.34377 0 0.34377-0.30316 0-0.3167-0.32347-0.3167-0.17594 0-0.28015 0.11774l-0.12046-0.18406q0.12587-0.16376 0.42092-0.16376 0.25985 0 0.42362 0.1394 0.16376 0.13805 0.16376 0.35459 0 0.16512-0.092 0.29234-0.0907 0.12722-0.21384 0.17053 0.17053 0.0555 0.27068 0.18948 0.10151 0.13264 0.10151 0.32211 0 0.2761-0.17459 0.42633-0.1746 0.15023-0.48994 0.15023-0.13264 0-0.25986-0.0487-0.12722-0.0501-0.20166-0.1191z"/>
   </g>
  </g>
  <g transform="matrix(.36466 0 0 .35714 114.05 82.965)">
   <rect x="116.65" y="105.17" width="38.085" height="35.877" fill="url(#linearGradient17781-0)" fill-rule="evenodd"/>
   <g fill="#999" stroke-width=".26458" aria-label="SVV">
    <path d="m129.46 125.63 0.27664-0.69729q0.21222 0.15537 0.52675 0.26148 0.31833 0.10232 0.56844 0.10232 0.44339 0 0.71245-0.24253 0.26906-0.24254 0.26906-0.61771 0-0.28043-0.15158-0.51917-0.1478-0.24254-0.75034-0.52676l-0.44718-0.20843q-0.56844-0.26527-0.79581-0.62907-0.22359-0.3638-0.22359-0.8754 0-0.62149 0.43959-1.0308 0.4396-0.40927 1.1293-0.40927 0.92088 0 1.2809 0.29937l-0.22359 0.65939q-0.15158-0.10989-0.46233-0.21221t-0.57602-0.10232q-0.38654 0-0.61012 0.21979-0.2198 0.2198-0.2198 0.56465 0 0.21222 0.0796 0.38654 0.0796 0.17433 0.2198 0.2918 0.144 0.11748 0.5836 0.3297l0.45475 0.21601q0.56844 0.26906 0.79581 0.64423 0.23117 0.37138 0.23117 0.9474 0 0.62528-0.50402 1.0611-0.50022 0.43581-1.3415 0.43581-0.73898 0-1.2619-0.34864z"/>
    <path d="m135.37 125.96h-0.38275l-2.0691-5.6276h0.84129l1.4287 4.089 1.3756-4.089h0.81476z"/>
    <path d="m139.93 125.96h-0.38275l-2.0691-5.6276h0.84129l1.4287 4.089 1.3756-4.089h0.81476z"/>
   </g>
  </g>
  <g fill="none" stroke="#999">
   <path d="m144.84 118.01s0.32513-2e-3 0.44499-0.91203c0.21468-1.6302 0.53483-0.43622 0.53483-0.43622s0.0996 0.37353 0.33617 0.12451c0.23657-0.24901 0.43578 0.42333 0.43578 0.42333s0.46068 0.85911 0.79685 0.82176" stroke-width=".094494px"/>
   <g transform="matrix(.35714 0 0 .35714 122.97 109.47)" stroke-width=".26458px">
    <path d="m41.521 55.257v5.2991h7.7743"/>
    <path d="m41.556 59.179 2.4055-2.0743 2.4927 1.7431 2.7716-2.789"/>
   </g>
   <g transform="matrix(.35714 0 0 .35714 122.97 102.99)" stroke-width=".26458px">
    <path d="m41.521 55.257v5.2991h7.7743"/>
    <path d="m41.556 59.179 2.4055-2.0743 2.4927 1.7431 2.7716-2.789"/>
   </g>
  </g>
 </g>
</svg>
