<?xml version="1.0" encoding="UTF-8" standalone="no"?>
<!-- Created with Inkscape (http://www.inkscape.org/) -->

<svg
   width="35.498mm"
   height="21.235mm"
   version="1.1"
   viewBox="0 0 35.498 21.235"
   id="svg44"
   sodipodi:docname="screen13.svg"
   inkscape:version="1.4 (86a8ad7, 2024-10-11)"
   xmlns:inkscape="http://www.inkscape.org/namespaces/inkscape"
   xmlns:sodipodi="http://sodipodi.sourceforge.net/DTD/sodipodi-0.dtd"
   xmlns:xlink="http://www.w3.org/1999/xlink"
   xmlns="http://www.w3.org/2000/svg"
   xmlns:svg="http://www.w3.org/2000/svg">
  <sodipodi:namedview
     id="namedview44"
     pagecolor="#ffffff"
     bordercolor="#000000"
     borderopacity="0.25"
     inkscape:showpageshadow="2"
     inkscape:pageopacity="0.0"
     inkscape:pagecheckerboard="0"
     inkscape:deskcolor="#d1d1d1"
     inkscape:document-units="mm"
     inkscape:zoom="24.109665"
     inkscape:cx="67.089277"
     inkscape:cy="40.129135"
     inkscape:window-width="3840"
     inkscape:window-height="2089"
     inkscape:window-x="3832"
     inkscape:window-y="-8"
     inkscape:window-maximized="1"
     inkscape:current-layer="g43" />
  <defs
     id="defs2">
    <rect
       x="52.966311"
       y="6.6363427"
       width="24.595945"
       height="69.723076"
       id="rect46" />
    <rect
       x="56.948116"
       y="15.636883"
       width="19.203917"
       height="22.853905"
       id="rect44" />
    <linearGradient
       id="linearGradient8786-0"
       x1="87.956"
       x2="87.759"
       y1="89.928"
       y2="112.11"
       gradientUnits="userSpaceOnUse"
       xlink:href="#linearGradient8784" />
    <linearGradient
       id="linearGradient8784">
      <stop
         stop-color="#1d1d1d"
         offset="0"
         id="stop1" />
      <stop
         stop-color="#1d1d1d"
         stop-opacity="0"
         offset="1"
         id="stop2" />
    </linearGradient>
    <linearGradient
       id="linearGradient3258"
       x1="87.956"
       x2="87.759"
       y1="89.928"
       y2="112.11"
       gradientTransform="matrix(.33029 0 0 1 97.736 36.727)"
       gradientUnits="userSpaceOnUse"
       xlink:href="#linearGradient8784" />
    <linearGradient
       id="linearGradient3260"
       x1="87.956"
       x2="87.759"
       y1="89.928"
       y2="112.11"
       gradientTransform="matrix(.33029 0 0 1 117.54 36.727)"
       gradientUnits="userSpaceOnUse"
       xlink:href="#linearGradient8784" />
    <linearGradient
       id="linearGradient3262"
       x1="87.956"
       x2="87.759"
       y1="89.928"
       y2="112.11"
       gradientTransform="matrix(1 0 0 2.0214 7.5024e-6 -69.828)"
       gradientUnits="userSpaceOnUse"
       xlink:href="#linearGradient8784" />
    <linearGradient
       id="linearGradient3264"
       x1="87.956"
       x2="87.759"
       y1="89.928"
       y2="112.11"
       gradientTransform="matrix(.67299 0 0 1 77.562 0)"
       gradientUnits="userSpaceOnUse"
       xlink:href="#linearGradient8784" />
    <linearGradient
       id="linearGradient3266"
       x1="87.956"
       x2="87.759"
       y1="89.928"
       y2="112.11"
       gradientTransform="matrix(.67299 0 0 1 77.562 18.598)"
       gradientUnits="userSpaceOnUse"
       xlink:href="#linearGradient8784" />
    <linearGradient
       id="linearGradient18638"
       x1="87.956"
       x2="87.759"
       y1="89.928"
       y2="112.11"
       gradientTransform="matrix(1 0 0 3.0841 .00046915 -180.43)"
       gradientUnits="userSpaceOnUse"
       xlink:href="#linearGradient8784" />
    <linearGradient
       id="linearGradient18196"
       x1="87.956"
       x2="87.759"
       y1="89.928"
       y2="112.11"
       gradientTransform="matrix(.67299 0 0 1 77.562 18.978)"
       gradientUnits="userSpaceOnUse"
       xlink:href="#linearGradient8784" />
    <linearGradient
       id="linearGradient3270"
       x1="87.956"
       x2="87.759"
       y1="89.928"
       y2="112.11"
       gradientTransform="matrix(.33029 0 0 1 39.424 36.727)"
       gradientUnits="userSpaceOnUse"
       xlink:href="#linearGradient8784" />
  </defs>
  <g
     transform="translate(-127.54 -94.142)"
     id="g44">
    <g
       transform="matrix(.35714 0 0 .35714 106.91 64.596)"
       id="g43">
      <g
         fill-rule="evenodd"
         id="g11">
        <rect
           x="57.783"
           y="82.73"
           width="99.394"
           height="59.459"
           fill="#101010"
           id="rect2" />
        <rect
           x="58.868"
           y="86.576"
           width="57.783"
           height="17.749"
           fill="url(#linearGradient8786-0)"
           id="rect3" />
        <rect
           x="117.18"
           y="123.3"
           width="19.085"
           height="17.749"
           fill="url(#linearGradient3258)"
           id="rect4" />
        <rect
           x="136.98"
           y="123.3"
           width="19.085"
           height="17.749"
           fill="url(#linearGradient3260)"
           id="rect5" />
        <rect
           x="58.868"
           y="105.17"
           width="57.783"
           height="35.877"
           fill="url(#linearGradient3262)"
           id="rect6" />
        <rect
           x="117.18"
           y="86.576"
           width="38.887"
           height="17.749"
           fill="url(#linearGradient3264)"
           id="rect7" />
        <rect
           x="117.18"
           y="105.17"
           width="38.887"
           height="17.749"
           fill="url(#linearGradient3266)"
           id="rect8" />
        <rect
           x="57.783"
           y="82.73"
           width="99.394"
           height="59.459"
           fill="#101010"
           id="rect9" />
        <rect
           x="58.868"
           y="86.576"
           width="57.783"
           height="54.74"
           fill="url(#linearGradient18638)"
           id="rect10" />
        <rect
           x="117.18"
           y="86.576"
           width="38.887"
           height="17.749"
           fill="url(#linearGradient3264)"
           id="rect11" />
      </g>
      <g
         transform="translate(0 -.37943)"
         id="g22">
        <rect
           x="117.18"
           y="105.55"
           width="38.887"
           height="17.749"
           fill="url(#linearGradient18196)"
           fill-rule="evenodd"
           id="rect12" />
        <g
           transform="translate(3.7635e-6 18.978)"
           fill="#999"
           id="g21">
          <g
             stroke-width=".26458"
             aria-label="123"
             id="g20">
            <path
               d="m134.16 92.689v-2.1279l-0.56465 0.35243v-0.35433q0.21411-0.108 0.45475-0.29748 0.24253-0.18948 0.37517-0.36001h0.11369v2.7873z"
               id="path12" />
            <path
               d="m135.38 92.689v-0.07579l0.86971-1.332q0.27285-0.41875 0.27285-0.71055 0-0.38464-0.43391-0.38464-0.15348 0-0.28801 0.08148-0.13453 0.07958-0.19516 0.20274l-0.24443-0.20085q0.0644-0.18569 0.25201-0.29559 0.18948-0.1099 0.45665-0.1099 0.3998 0 0.62528 0.18569 0.22548 0.1838 0.22548 0.52107 0 0.31264-0.29938 0.78824l-0.62339 0.98909h1.0876v0.34106z"
               id="path13" />
            <path
               d="m137.49 92.492 0.1819-0.2918q0.18569 0.20464 0.46991 0.20464 0.52676 0 0.52676-0.51539 0-0.23496-0.15348-0.38086-0.15348-0.1478-0.40738-0.1478h-0.0303v-0.30696h0.017q0.48128 0 0.48128-0.42444 0-0.44338-0.45286-0.44338-0.24632 0-0.39222 0.16485l-0.16864-0.25769q0.17622-0.22927 0.58929-0.22927 0.3638 0 0.59307 0.19516 0.22927 0.19327 0.22927 0.49644 0 0.23117-0.12885 0.40928-0.12695 0.17811-0.29937 0.23875 0.23874 0.07769 0.37896 0.26527 0.14211 0.18569 0.14211 0.45096 0 0.38654-0.24443 0.59686-0.24443 0.21032-0.68592 0.21032-0.18569 0-0.3638-0.06821-0.17812-0.07011-0.28233-0.16674z"
               id="path14" />
            <path
               d="m134.16 96.887v-2.1279l-0.56465 0.35243v-0.35433q0.21411-0.108 0.45475-0.29748 0.24253-0.18948 0.37517-0.36001h0.11369v2.7873z"
               id="path15" />
            <path
               d="m135.38 96.887v-0.07579l0.86971-1.332q0.27285-0.41875 0.27285-0.71055 0-0.38464-0.43391-0.38464-0.15348 0-0.28801 0.08148-0.13453 0.07958-0.19516 0.20274l-0.24443-0.20085q0.0644-0.18569 0.25201-0.29559 0.18948-0.1099 0.45665-0.1099 0.3998 0 0.62528 0.18569 0.22548 0.1838 0.22548 0.52107 0 0.31264-0.29938 0.78824l-0.62339 0.98909h1.0876v0.34106z"
               id="path16" />
            <path
               d="m137.49 96.689 0.1819-0.2918q0.18569 0.20464 0.46991 0.20464 0.52676 0 0.52676-0.51539 0-0.23496-0.15348-0.38086-0.15348-0.1478-0.40738-0.1478h-0.0303v-0.30696h0.017q0.48128 0 0.48128-0.42444 0-0.44338-0.45286-0.44338-0.24632 0-0.39222 0.16485l-0.16864-0.25769q0.17622-0.22927 0.58929-0.22927 0.3638 0 0.59307 0.19516 0.22927 0.19327 0.22927 0.49644 0 0.23117-0.12885 0.40928-0.12695 0.17811-0.29937 0.23875 0.23874 0.07769 0.37896 0.26527 0.14211 0.18569 0.14211 0.45096 0 0.38654-0.24443 0.59686-0.24443 0.21032-0.68592 0.21032-0.18569 0-0.3638-0.06821-0.17812-0.07011-0.28233-0.16674z"
               id="path17" />
            <path
               d="m134.16 101.08v-2.1279l-0.56465 0.35243v-0.35433q0.21411-0.108 0.45475-0.29748 0.24253-0.18948 0.37517-0.36001h0.11369v2.7873z"
               id="path18" />
            <path
               d="m135.38 101.08v-0.0758l0.86971-1.332q0.27285-0.41875 0.27285-0.71055 0-0.38464-0.43391-0.38464-0.15348 0-0.28801 0.08148-0.13453 0.07958-0.19516 0.20274l-0.24443-0.20085q0.0644-0.18569 0.25201-0.29559 0.18948-0.1099 0.45665-0.1099 0.3998 0 0.62528 0.18569 0.22548 0.1838 0.22548 0.52107 0 0.31264-0.29938 0.78824l-0.62339 0.98909h1.0876v0.34106z"
               id="path19" />
            <path
               d="m137.49 100.89 0.1819-0.2918q0.18569 0.20464 0.46991 0.20464 0.52676 0 0.52676-0.51539 0-0.23495-0.15348-0.38085-0.15348-0.1478-0.40738-0.1478h-0.0303v-0.30696h0.017q0.48128 0 0.48128-0.42444 0-0.44338-0.45286-0.44338-0.24632 0-0.39222 0.16485l-0.16864-0.25769q0.17622-0.22927 0.58929-0.22927 0.3638 0 0.59307 0.19516 0.22927 0.19327 0.22927 0.49644 0 0.23117-0.12885 0.40928-0.12695 0.17811-0.29937 0.23874 0.23874 0.07769 0.37896 0.26527 0.14211 0.18569 0.14211 0.45096 0 0.38654-0.24443 0.59686-0.24443 0.21033-0.68592 0.21033-0.18569 0-0.3638-0.0682-0.17812-0.0701-0.28233-0.16674z"
               id="path20" />
          </g>
        </g>
      </g>
      <rect
         transform="translate(78.114)"
         x="58.868"
         y="123.3"
         width="19.085"
         height="17.749"
         fill="url(#linearGradient3270)"
         fill-rule="evenodd"
         id="rect22" />
      <g
         transform="translate(101.17 74.204)"
         fill="none"
         stroke="#999"
         stroke-width=".26458px"
         id="g23">
        <path
           d="m41.521 55.257v5.2991h7.7743"
           id="path22" />
        <path
           d="m41.556 59.179 2.4055-2.0743 2.4927 1.7431 2.7716-2.789"
           id="path23" />
      </g>
      <g
         transform="translate(58.312)"
         id="g34">
        <rect
           x="58.868"
           y="123.3"
           width="19.085"
           height="17.749"
           fill="url(#linearGradient3270)"
           fill-rule="evenodd"
           id="rect23" />
        <g
           transform="translate(-67.922 36.684)"
           fill="#999"
           stroke-width=".26458"
           id="g33">
          <g
             aria-label="123"
             id="g26">
            <path
               d="m134.16 92.689v-2.1279l-0.56465 0.35243v-0.35433q0.21411-0.108 0.45475-0.29748 0.24253-0.18948 0.37517-0.36001h0.11369v2.7873z"
               id="path24" />
            <path
               d="m135.38 92.689v-0.07579l0.86971-1.332q0.27285-0.41875 0.27285-0.71055 0-0.38464-0.43391-0.38464-0.15348 0-0.28801 0.08148-0.13453 0.07958-0.19516 0.20274l-0.24443-0.20085q0.0644-0.18569 0.25201-0.29559 0.18948-0.1099 0.45665-0.1099 0.3998 0 0.62528 0.18569 0.22548 0.1838 0.22548 0.52107 0 0.31264-0.29938 0.78824l-0.62339 0.98909h1.0876v0.34106z"
               id="path25" />
            <path
               d="m137.49 92.492 0.1819-0.2918q0.18569 0.20464 0.46991 0.20464 0.52676 0 0.52676-0.51539 0-0.23496-0.15348-0.38086-0.15348-0.1478-0.40738-0.1478h-0.0303v-0.30696h0.017q0.48128 0 0.48128-0.42444 0-0.44338-0.45286-0.44338-0.24632 0-0.39222 0.16485l-0.16864-0.25769q0.17622-0.22927 0.58929-0.22927 0.3638 0 0.59307 0.19516 0.22927 0.19327 0.22927 0.49644 0 0.23117-0.12885 0.40928-0.12695 0.17811-0.29937 0.23875 0.23874 0.07769 0.37896 0.26527 0.14211 0.18569 0.14211 0.45096 0 0.38654-0.24443 0.59686-0.24443 0.21032-0.68592 0.21032-0.18569 0-0.3638-0.06821-0.17812-0.07011-0.28233-0.16674z"
               id="path26" />
          </g>
          <g
             aria-label="SVV"
             id="g29">
            <path
               d="m133.22 96.76 0.13832-0.34864q0.10611 0.07769 0.26338 0.13074 0.15917 0.05116 0.28422 0.05116 0.2217 0 0.35623-0.12127 0.13453-0.12127 0.13453-0.30885 0-0.14022-0.0758-0.25959-0.0739-0.12127-0.37518-0.26338l-0.22358-0.10421q-0.28422-0.13264-0.39791-0.31454-0.1118-0.1819-0.1118-0.4377 0-0.31075 0.2198-0.51539 0.2198-0.20464 0.56465-0.20464 0.46044 0 0.64045 0.14969l-0.1118 0.3297q-0.0758-0.05495-0.23116-0.10611-0.15538-0.05116-0.28801-0.05116-0.19327 0-0.30507 0.1099-0.10989 0.1099-0.10989 0.28233 0 0.10611 0.0398 0.19327 0.0398 0.08716 0.1099 0.1459 0.072 0.05874 0.2918 0.16485l0.22737 0.108q0.28422 0.13453 0.39791 0.32212 0.11558 0.18569 0.11558 0.4737 0 0.31264-0.25201 0.53054-0.25011 0.2179-0.67076 0.2179-0.36948 0-0.63097-0.17432z"
               id="path27" />
            <path
               d="m136.17 96.924h-0.19137l-1.0346-2.8138h0.42064l0.71434 2.0445 0.68782-2.0445h0.40738z"
               id="path28" />
            <path
               d="m138.45 96.924h-0.19137l-1.0346-2.8138h0.42064l0.71434 2.0445 0.68782-2.0445h0.40738z"
               id="path29" />
          </g>
          <g
             aria-label="123"
             id="g32">
            <path
               d="m134.16 101.08v-2.1279l-0.56465 0.35243v-0.35433q0.21411-0.108 0.45475-0.29748 0.24253-0.18948 0.37517-0.36001h0.11369v2.7873z"
               id="path30" />
            <path
               d="m135.38 101.08v-0.0758l0.86971-1.332q0.27285-0.41875 0.27285-0.71055 0-0.38464-0.43391-0.38464-0.15348 0-0.28801 0.08148-0.13453 0.07958-0.19516 0.20274l-0.24443-0.20085q0.0644-0.18569 0.25201-0.29559 0.18948-0.1099 0.45665-0.1099 0.3998 0 0.62528 0.18569 0.22548 0.1838 0.22548 0.52107 0 0.31264-0.29938 0.78824l-0.62339 0.98909h1.0876v0.34106z"
               id="path31" />
            <path
               d="m137.49 100.89 0.1819-0.2918q0.18569 0.20464 0.46991 0.20464 0.52676 0 0.52676-0.51539 0-0.23495-0.15348-0.38085-0.15348-0.1478-0.40738-0.1478h-0.0303v-0.30696h0.017q0.48128 0 0.48128-0.42444 0-0.44338-0.45286-0.44338-0.24632 0-0.39222 0.16485l-0.16864-0.25769q0.17622-0.22927 0.58929-0.22927 0.3638 0 0.59307 0.19516 0.22927 0.19327 0.22927 0.49644 0 0.23117-0.12885 0.40928-0.12695 0.17811-0.29937 0.23874 0.23874 0.07769 0.37896 0.26527 0.14211 0.18569 0.14211 0.45096 0 0.38654-0.24443 0.59686-0.24443 0.21033-0.68592 0.21033-0.18569 0-0.3638-0.0682-0.17812-0.0701-0.28233-0.16674z"
               id="path32" />
          </g>
        </g>
      </g>
      <path
         d="m133.05 97.896s0.91035-5e-3 1.246-2.5537c0.6011-4.5645 1.4975-1.2214 1.4975-1.2214s0.2789 1.0459 0.94129 0.34863c0.66238-0.69725 1.2202 1.1853 1.2202 1.1853s1.2899 2.4055 2.2312 2.3009"
         fill="none"
         stroke="#999"
         stroke-width=".26458px"
         id="path34" />
      <g
         transform="matrix(2.7885612,0,0,2.5327475,-171.78864,55.437064)"
         fill="none"
         stroke="#999999"
         id="g42">
        <path
           transform="scale(0.26458)"
           d="m 340.08,48.682 v 3.3086 c -2.8512,1.0706 -4.7404,3.7962 -4.7422,6.8418 2e-4,4.0385 3.274,7.3123 7.3125,7.3125 4.0385,-1.96e-4 7.3123,-3.274 7.3125,-7.3125 -7.5e-4,-3.2006 -2.0828,-6.0289 -5.1387,-6.9805 V 48.682"
           stroke-miterlimit="10"
           id="path35" />
        <g
           transform="translate(-0.017312)"
           stroke-width="0.26458px"
           id="g37">
          <path
             d="m 88.001,32.352 h 1.0735 c 0.34796,0.5129 0.936,0.84953 1.6025,0.84956 0.66649,-3.2e-5 1.254,-0.33666 1.602,-0.84956 h 1.0735"
             id="path36" />
          <path
             d="m 88.001,31.627 h 1.0735 c 0.34796,-0.5129 0.936,-0.84953 1.6025,-0.84956 0.66649,3.2e-5 1.254,0.33666 1.602,0.84956 h 1.0735"
             id="path37" />
        </g>
        <g
           transform="translate(15.515,0.59889)"
           stroke-miterlimit="10"
           id="g41" />
        <path
           transform="matrix(0.26458,0,0,0.26458,15.515,0.59889028)"
           d="m 271.96,118.55 h -3.6563 c -2.4076,0 -4.3459,-1.5528 -4.3459,-3.4815 v -25.322 c 0,-1.9288 1.9383,-3.4815 4.3459,-3.4815 h 3.6563"
           stroke-width="1.0292"
           id="path38" />
        <path
           transform="matrix(0.26458,0,0,0.26458,15.515,0.59889028)"
           d="m 295.15,86.266 h 5.3673 c 2.4076,0 4.3459,1.5528 4.3459,3.4815 v 25.322 c 0,1.9288 -1.9383,3.4815 -4.3459,3.4815 H 295.15"
           stroke-width="1.0292"
           id="path39" />
        <path
           transform="matrix(0.26458,0,0,0.26458,15.515,0.59889028)"
           d="m 271.96,81.761 h -4.5118 c -2.4076,0 -4.3459,-1.2283 -4.3459,-2.7541 v -20.031 c 0,-1.5257 1.9383,-2.7541 4.3459,-2.7541 l 4.5118,-1e-6"
           stroke-width="0.91535"
           id="path40" />
        <path
           transform="matrix(0.26458,0,0,0.26458,15.515,0.59889028)"
           d="m 295.15,56.221 h 4.5118 c 2.4076,0 4.3459,1.2283 4.3459,2.7541 v 20.031 c 0,1.5257 -1.9383,2.7541 -4.3459,2.7541 l -4.5118,-10e-7"
           stroke-width="0.91535"
           id="path41" />
        <path
           d="m 91.372,25.306 c 0.15692,0.0061 0.30593,-0.06902 0.39436,-0.1988 0.14627,-0.20364 0.23435,-0.58022 0.23597,-1.0061 0.002,-0.42587 -0.0848,-0.8267 -0.22627,-1.0433 -0.04597,-0.07258 -0.09644,-0.14222 -0.15112,-0.20849 0,0 -0.006,-0.0065 -0.006,-0.0065 v -0.0089 c -0.01528,-0.09781 -0.02124,-0.19684 -0.0178,-0.29577 6.71e-4,-0.08588 0.01655,-0.17097 0.0469,-0.25132 0.021,-0.0493 0.0461,-0.09293 0.11799,-0.09293 h 0.008 l 0.63114,0.02667 c 0,0 0.006,-0.60285 0.006,-0.60285 -0.0558,-0.0089 -0.11799,-0.01454 -0.18425,-0.02102 -0.14818,-0.0047 -0.29479,-0.03197 -0.43477,-0.08081 l -0.01,-0.0048 -0.005,-0.0097 c -0.04366,-0.07277 -0.0589,-0.15911 -0.0428,-0.24243 0.0066,-0.02076 0.02193,-0.0376 0.042,-0.04606 0.08035,-0.02267 0.16398,-0.03142 0.24728,-0.02586 0.12688,0 0.27314,0.0081 0.37012,0.01374 h 0.005 v -0.17455 c 0,-0.13496 0,-0.2691 0.005,-0.40406 h -0.025 c -0.61982,0 -1.4764,0.08889 -2.038,0.51557 l -0.0339,0.02586 -0.0129,-0.04041 c -0.0897,-0.27556 -0.29658,-0.90993 -0.33052,-0.99802 l -0.0186,-0.04768 h -0.0509 c -0.0509,0 -0.0986,0.0073 -0.14546,0.01212 -0.0614,0.0056 -0.12525,0.01212 -0.19313,0.01292 0.0687,0.72245 0.0743,1.2073 -0.34426,1.7778 -0.11081,0.13416 -0.19922,0.28534 -0.26183,0.44769 -0.08081,0.27395 -0.02586,0.62063 0.02262,0.9269 v 0.0065 c 0.0081,0.0501 0.01617,0.0994 0.02424,0.16162 0.01494,0.05568 0.04261,0.10713 0.08081,0.15031 0.03274,0.03938 0.0577,0.08463 0.07354,0.13334 0.0412,0.20607 0.18587,0.43396 0.4186,0.65861 0.24215,0.23229 0.52266,0.42094 0.82913,0.5576 0.0364,0.01535 0.0945,0.04687 0.16162,0.08081 l 0.006,0.004 c 0.25051,0.13657 0.54386,0.299 0.80811,0.29496 l -0.0019,0.0033 z"
           stroke-width="0.242"
           id="path42" />
      </g>
      <text
         xml:space="preserve"
         transform="matrix(0.97045635,0,0,0.95881559,47.0632,80.923859)"
         id="text46"
         style="font-size:5.33333px;line-height:1.45;text-align:start;letter-spacing:0.02px;word-spacing:0.02px;writing-mode:lr-tb;direction:ltr;white-space:pre;shape-inside:url(#rect46);fill:#808080;stroke:#ffffff;stroke-width:0"><tspan
           x="52.966797"
           y="12.022717"
           id="tspan2"><tspan
             dx="0 0 0 0 -0.020000257"
             style="font-family:'Trebuchet Flex';-inkscape-font-specification:'Trebuchet Flex'"
             id="tspan1">CIPC
</tspan></tspan><tspan
           x="52.966797"
           y="19.769335"
           id="tspan4"><tspan
             dx="0 0 0 -0.019999541"
             style="font-family:'Trebuchet Flex';-inkscape-font-specification:'Trebuchet Flex'"
             id="tspan3">PPV
</tspan></tspan><tspan
           x="52.966797"
           y="27.515953"
           id="tspan6"><tspan
             dx="0 0 0 -0.019999541"
             style="font-family:'Trebuchet Flex';-inkscape-font-specification:'Trebuchet Flex'"
             id="tspan5">SVV
</tspan></tspan><tspan
           x="52.966797"
           y="35.262571"
           id="tspan8"><tspan
             dx="0 0 0 0 0 -0.01999978"
             style="font-family:'Trebuchet Flex';-inkscape-font-specification:'Trebuchet Flex'"
             id="tspan7">EAdyn
</tspan></tspan><tspan
           x="52.966797"
           y="43.00919"
           id="tspan10"><tspan
             style="font-family:'Trebuchet Flex';-inkscape-font-specification:'Trebuchet Flex'"
             id="tspan9">
</tspan></tspan><tspan
           x="52.966797"
           y="50.75581"
           id="tspan12"><tspan
             dx="0 0 0 -0.020000137"
             style="font-family:'Trebuchet Flex';-inkscape-font-specification:'Trebuchet Flex'"
             id="tspan11">CPI
</tspan></tspan><tspan
           x="52.966797"
           y="58.50243"
           id="tspan14"><tspan
             style="font-family:'Trebuchet Flex';-inkscape-font-specification:'Trebuchet Flex'"
             id="tspan13">dpmx</tspan></tspan></text>
    </g>
  </g>
</svg>
