<?xml version="1.0" encoding="UTF-8"?>
<!-- Created with Inkscape (http://www.inkscape.org/) -->
<svg width="9.3015mm" height="5.5932mm" version="1.1" viewBox="0 0 9.3015 5.5932" xmlns="http://www.w3.org/2000/svg">
 <g transform="translate(-91.107 -102.74)" stroke-width=".26458">
  <path class="cls-18" d="m92.947 107.84a4.5773 4.5773 0 0 0 1.8521-0.99748c0.79375-0.75671 0.5424-1.5505 1.1404-1.5505 0.68792 0 0.57415 0.79375 1.5452 1.6166a6.1436 6.1436 0 0 0 1.8071 1.0372" fill="none" opacity=".8" stroke="#999" stroke-miterlimit="10"/>
  <path class="cls-19" d="m91.156 108.07a4.3894 4.3894 0 0 0 1.8521-1.3891c0.79375-1.0583 0.52917-2.1537 1.1377-2.1537 0.68792 0 0.57679 1.0901 1.5478 2.2437a6.059 6.059 0 0 0 1.8045 1.4446" fill="none" opacity=".8" stroke="#f2f2f2" stroke-miterlimit="10"/>
  <path class="cls-20" d="m100.14 104.3-1.0795 1.1086a0.32544 0.32544 0 0 1-0.46567 0l-1.0954-1.1086a0.91968 0.91968 0 1 1 1.3229-1.2779 0.91968 0.91968 0 1 1 1.3229 1.2779zm-0.26459-1.1456a0.62971 0.62971 0 0 0-0.84667 0.0661l-0.21696 0.22225-0.21696-0.22225a0.62971 0.62971 0 0 0-0.84667-0.0635 0.63765 0.63765 0 0 0-0.03704 0.94457l1.0848 1.098a0.026458 0.026458 0 0 0 0.04233 0l1.0901-1.098a0.64294 0.64294 0 0 0-0.04498-0.94721z" fill="#f2f2f2"/>
 </g>
</svg>
