<?xml version="1.0" encoding="UTF-8" standalone="no"?>
<!DOCTYPE svg PUBLIC "-//W3C//DTD SVG 1.1//EN" "http://www.w3.org/Graphics/SVG/1.1/DTD/svg11.dtd">
<svg width="100%" height="100%" viewBox="0 0 480 109" version="1.1" xmlns="http://www.w3.org/2000/svg" xmlns:xlink="http://www.w3.org/1999/xlink" xml:space="preserve" xmlns:serif="http://www.serif.com/" style="fill-rule:evenodd;clip-rule:evenodd;stroke-linecap:round;stroke-miterlimit:10;">
    <g transform="matrix(1.011851,0,0,1.248834,-1073.11056,-25.788075)">
        <g id="arrhythmias">
            <path d="M1060.542,96.924L1060.671,96.924C1061.171,88.204 1062.105,91.415 1064.021,76.261C1065.903,61.376 1068.823,57.926 1069.563,57.926C1072.579,58.007 1076.734,82.32 1078.927,82.455C1080.49,82.56 1080.666,79.262 1082.887,79.103C1088.975,78.583 1090.983,96.718 1107.073,96.718C1116.779,96.718 1117.871,96.924 1122.174,96.924L1122.303,96.924C1122.803,88.204 1123.737,75.4 1125.652,60.246C1128.641,36.506 1130.455,34.704 1131.195,34.704C1134.211,34.785 1138.366,66.305 1140.558,66.44C1142.122,66.545 1142.298,63.247 1144.519,63.088C1150.607,62.568 1152.615,96.718 1168.705,96.718C1178.411,96.718 1179.503,96.924 1183.805,96.924L1183.935,96.924C1184.434,88.204 1185.369,91.415 1187.284,76.261C1190.273,52.521 1192.086,50.719 1192.827,50.719C1195.843,50.8 1199.997,82.32 1202.19,82.455C1203.754,82.56 1203.93,79.262 1206.15,79.103C1212.239,78.583 1214.246,96.718 1230.337,96.718C1240.043,96.718 1241.135,96.924 1245.437,96.924L1229.284,96.718C1238.99,96.718 1240.081,96.924 1244.384,96.924L1244.513,96.924C1245.013,88.204 1245.947,67.393 1247.863,52.239C1250.851,28.499 1252.665,26.697 1253.405,26.697C1256.421,26.778 1260.576,58.298 1262.769,58.433C1264.332,58.538 1264.508,55.24 1266.729,55.081C1272.817,54.561 1274.825,96.718 1290.915,96.718C1300.621,96.718 1301.713,96.924 1306.016,96.924L1306.145,96.924C1306.645,88.204 1307.579,83.407 1309.495,68.253C1312.483,44.513 1314.297,42.711 1315.037,42.711C1318.053,42.792 1322.208,74.312 1324.401,74.447C1325.964,74.552 1326.14,71.254 1328.361,71.095C1334.449,70.575 1336.457,96.718 1352.547,96.718C1362.253,96.718 1363.345,96.924 1367.648,96.924L1367.777,96.924C1367.44,96.211 1370.673,90.934 1371.126,84.268C1372.743,60.45 1375.928,58.726 1376.669,58.726C1379.685,58.807 1383.839,90.327 1386.032,90.462C1387.596,90.567 1387.772,87.269 1389.992,87.11C1396.08,86.59 1396.2,96.968 1412.291,96.968C1412.791,88.235 1413.725,75.417 1415.641,60.249C1418.629,36.51 1420.443,34.707 1421.183,34.707C1424.199,34.788 1428.354,66.309 1430.547,66.444C1432.11,66.548 1432.286,63.25 1434.507,63.091C1440.595,62.571 1442.603,96.722 1458.693,96.722C1468.399,96.722 1459.761,96.81 1459.761,96.81L1458.058,96.718C1467.765,96.718 1468.856,96.924 1473.159,96.924L1473.288,96.924C1473.788,88.204 1474.722,91.415 1476.638,76.261C1478.52,61.376 1481.44,57.926 1482.18,57.926C1485.196,58.007 1489.351,82.32 1491.544,82.455C1493.107,82.56 1493.283,79.262 1495.504,79.103C1501.592,78.583 1503.6,96.718 1519.69,96.718C1524.869,96.718 1527.595,96.777 1529.666,96.831C1531.476,96.879 1532.784,96.924 1534.791,96.924L1534.92,96.924" style="fill:none;stroke:rgb(229,37,33);stroke-width:1.26px;"/>
        </g>
    </g>
</svg>
