<?xml version="1.0" encoding="UTF-8" standalone="no"?>
<!DOCTYPE svg PUBLIC "-//W3C//DTD SVG 1.1//EN" "http://www.w3.org/Graphics/SVG/1.1/DTD/svg11.dtd">
<svg width="100%" height="100%" viewBox="0 0 480 109" version="1.1" xmlns="http://www.w3.org/2000/svg" xmlns:xlink="http://www.w3.org/1999/xlink" xml:space="preserve" xmlns:serif="http://www.serif.com/" style="fill-rule:evenodd;clip-rule:evenodd;stroke-linecap:round;stroke-miterlimit:10;">
    <g id="arrhythmias" transform="matrix(0.957304,0,0,1.248834,-1011.45279,-25.788075)">
        <path d="M1047.144,96.81L1045.441,96.718C1055.148,96.718 1056.239,96.924 1060.542,96.924L1060.671,96.924C1061.171,88.204 1062.105,91.415 1064.021,76.261C1065.903,61.376 1068.823,57.926 1069.563,57.926C1072.579,58.007 1076.734,82.32 1078.927,82.455C1080.49,82.56 1080.666,79.262 1082.887,79.103C1088.975,78.583 1090.983,96.718 1107.073,96.718C1116.779,96.718 1117.871,96.924 1122.174,96.924L1122.303,96.924C1122.803,88.204 1123.737,75.4 1125.652,60.246C1128.641,36.506 1130.455,34.704 1131.195,34.704C1134.211,34.785 1138.366,66.305 1140.558,66.44C1142.122,66.545 1142.298,63.247 1144.519,63.088C1150.607,62.568 1152.615,96.718 1168.705,96.718C1178.411,96.718 1179.503,96.924 1183.805,96.924L1183.935,96.924C1184.434,88.204 1185.369,91.415 1187.284,76.261C1190.273,52.521 1192.086,50.719 1192.827,50.719C1195.843,50.8 1199.997,82.32 1202.19,82.455C1203.754,82.56 1203.93,79.262 1206.15,79.103C1212.239,78.583 1214.246,96.718 1230.337,96.718C1240.043,96.718 1241.135,96.924 1245.437,96.924L1291.96,96.718C1301.666,96.718 1302.757,96.924 1307.06,96.924L1307.189,96.924C1307.689,88.204 1308.623,67.393 1310.539,52.239C1313.527,28.499 1315.341,26.697 1316.081,26.697C1319.097,26.778 1323.252,58.298 1325.445,58.433C1327.008,58.538 1327.184,55.24 1329.405,55.081C1335.493,54.561 1337.501,96.718 1353.591,96.718C1363.297,96.718 1364.389,96.924 1368.692,96.924L1368.821,96.924C1369.321,88.204 1370.255,83.407 1372.171,68.253C1375.159,44.513 1376.973,42.711 1377.713,42.711C1380.729,42.792 1384.884,74.312 1387.077,74.447C1388.64,74.552 1388.816,71.254 1391.037,71.095C1397.125,70.575 1399.133,96.718 1415.223,96.718C1424.929,96.718 1426.021,96.924 1430.324,96.924L1430.453,96.924C1430.116,96.211 1433.349,90.934 1433.802,84.268C1435.419,60.45 1438.604,58.726 1439.345,58.726C1442.361,58.807 1446.515,90.327 1448.708,90.462C1450.272,90.567 1450.448,87.269 1452.668,87.11C1458.756,86.59 1458.876,96.968 1474.967,96.968C1475.467,88.235 1476.401,75.417 1478.317,60.249C1481.305,36.51 1483.119,34.707 1483.859,34.707C1486.875,34.788 1491.03,66.309 1493.223,66.444C1494.786,66.548 1494.962,63.25 1497.183,63.091C1503.271,62.571 1505.279,96.722 1521.369,96.722C1531.075,96.722 1553.059,96.928 1557.362,96.928" style="fill:none;stroke:rgb(229,37,33);stroke-width:1.26px;"/>
    </g>
</svg>
