<?xml version="1.0" encoding="UTF-8" standalone="no"?>
<!DOCTYPE svg PUBLIC "-//W3C//DTD SVG 1.1//EN" "http://www.w3.org/Graphics/SVG/1.1/DTD/svg11.dtd">
<svg width="100%" height="100%" viewBox="0 0 60 109" version="1.1" xmlns="http://www.w3.org/2000/svg" xmlns:xlink="http://www.w3.org/1999/xlink" xml:space="preserve" xmlns:serif="http://www.serif.com/" style="fill-rule:evenodd;clip-rule:evenodd;stroke-linecap:round;stroke-linejoin:round;stroke-miterlimit:1.5;">
    <g id="low-dicrotic" transform="matrix(0.231718,0,0,0.478328,0.291376,-34.093732)">
        <path d="M0.924,271.89C0.924,271.89 17.581,272.538 21.229,270.279C24.873,268.016 84.349,226.344 111.051,187.975C134.537,154.226 144.535,83.685 156.509,83.685C168.484,83.685 179.496,248.965 185.224,251.225C190.951,253.488 200.244,252.084 201.346,247.83C202.364,243.887 208.895,242.479 214.648,242.546C220.91,242.617 227.543,245.983 226.756,258.315C226.38,264.132 228.953,271.886 243.532,271.886C243.532,271.886 260.194,272.534 263.837,270.275" style="fill:none;stroke:rgb(229,37,33);stroke-width:3.73px;"/>
    </g>
</svg>
