<?xml version="1.0" encoding="UTF-8" standalone="no"?>
<!DOCTYPE svg PUBLIC "-//W3C//DTD SVG 1.1//EN" "http://www.w3.org/Graphics/SVG/1.1/DTD/svg11.dtd">
<svg width="100%" height="100%" viewBox="0 0 60 109" version="1.1" xmlns="http://www.w3.org/2000/svg" xmlns:xlink="http://www.w3.org/1999/xlink" xml:space="preserve" xmlns:serif="http://www.serif.com/" style="fill-rule:evenodd;clip-rule:evenodd;stroke-linecap:square;stroke-miterlimit:10;">
    <g id="spike-dictoric" transform="matrix(0.623316,0,0,1.411101,0.516699,-40.965847)">
        <path d="M95.43,96.47C95.43,96.47 75.403,96.947 65.991,94.175C54.256,90.399 51.436,78.681 48.611,78.542C45.787,78.404 44.818,84.737 42.075,84.81C38.293,84.948 34.57,73.177 31.29,61.316C25.454,40.887 23.563,29.513 21.416,29.554C18.731,29.611 18.264,47.593 15.486,47.642C12.709,47.691 10.864,29.668 8.74,29.668C6.616,29.668 6.511,45.683 4.655,64.844C3.348,78.38 1.632,89.183 0.36,96.532" style="fill:none;stroke:rgb(229,37,33);stroke-width:1.31px;"/>
    </g>
</svg>
