<?xml version="1.0" encoding="UTF-8" standalone="no"?>
<!-- Created with Inkscape (http://www.inkscape.org/) -->

<svg
   width="35.498mm"
   height="21.235mm"
   version="1.1"
   viewBox="0 0 35.498 21.235"
   id="svg107"
   sodipodi:docname="screen12.svg"
   inkscape:version="1.4 (86a8ad7, 2024-10-11)"
   xmlns:inkscape="http://www.inkscape.org/namespaces/inkscape"
   xmlns:sodipodi="http://sodipodi.sourceforge.net/DTD/sodipodi-0.dtd"
   xmlns:xlink="http://www.w3.org/1999/xlink"
   xmlns="http://www.w3.org/2000/svg"
   xmlns:svg="http://www.w3.org/2000/svg">
  <sodipodi:namedview
     id="namedview109"
     pagecolor="#ffffff"
     bordercolor="#666666"
     borderopacity="1.0"
     inkscape:pageshadow="2"
     inkscape:pageopacity="0.0"
     inkscape:pagecheckerboard="0"
     inkscape:document-units="mm"
     showgrid="false"
     inkscape:zoom="8.7429219"
     inkscape:cx="-23.39035"
     inkscape:cy="61.592681"
     inkscape:window-width="3840"
     inkscape:window-height="2089"
     inkscape:window-x="3832"
     inkscape:window-y="-8"
     inkscape:window-maximized="1"
     inkscape:current-layer="g103"
     inkscape:showpageshadow="2"
     inkscape:deskcolor="#d1d1d1" />
  <defs
     id="defs11">
    <rect
       x="84.754274"
       y="8.9215025"
       width="47.238212"
       height="69.084456"
       id="rect2" />
    <linearGradient
       id="linearGradient8786-7"
       x1="87.956"
       x2="87.759"
       y1="89.928"
       y2="112.11"
       gradientUnits="userSpaceOnUse"
       xlink:href="#linearGradient8784"
       gradientTransform="matrix(1,0,0,0.74145613,0,22.383693)" />
    <linearGradient
       id="linearGradient8784">
      <stop
         stop-color="#1d1d1d"
         offset="0"
         id="stop3" />
      <stop
         stop-color="#1d1d1d"
         stop-opacity="0"
         offset="1"
         id="stop5" />
    </linearGradient>
    <linearGradient
       id="linearGradient8150"
       x1="87.956"
       x2="87.759"
       y1="89.928"
       y2="112.11"
       gradientTransform="matrix(1,0,0,2.0214,-67.110817,-59.913901)"
       gradientUnits="userSpaceOnUse"
       xlink:href="#linearGradient8784" />
    <linearGradient
       id="linearGradient8152"
       x1="87.956"
       x2="87.759"
       y1="89.928"
       y2="112.11"
       gradientTransform="matrix(.67299 0 0 1 77.562 0)"
       gradientUnits="userSpaceOnUse"
       xlink:href="#linearGradient8784" />
    <linearGradient
       id="linearGradient8154"
       x1="87.956"
       x2="87.759"
       y1="89.928"
       y2="112.11"
       gradientTransform="matrix(0.67299,0,0,3.0595827,78.239887,-178.29821)"
       gradientUnits="userSpaceOnUse"
       xlink:href="#linearGradient8784" />
    <linearGradient
       inkscape:collect="always"
       xlink:href="#linearGradient8784"
       id="linearGradient1584"
       gradientUnits="userSpaceOnUse"
       x1="87.956"
       y1="89.928"
       x2="87.759"
       y2="112.11"
       gradientTransform="matrix(1,0,0,0.74145613,0,36.153992)" />
    <linearGradient
       inkscape:collect="always"
       xlink:href="#linearGradient8784"
       id="linearGradient1615"
       gradientUnits="userSpaceOnUse"
       x1="87.956"
       y1="89.928"
       x2="87.759"
       y2="112.11"
       gradientTransform="matrix(1,0,0,0.74145613,0,49.924289)" />
    <linearGradient
       inkscape:collect="always"
       xlink:href="#linearGradient8784"
       id="linearGradient1665"
       gradientUnits="userSpaceOnUse"
       gradientTransform="matrix(1.0000281,0,0,0.74145613,-0.00282173,63.697554)"
       x1="87.956"
       y1="89.928"
       x2="87.759"
       y2="112.11" />
  </defs>
  <g
     transform="translate(-64.656 -103.6)"
     id="g105">
    <g
       transform="matrix(.35714 0 0 .35714 44.019 74.056)"
       id="g103">
      <g
         fill-rule="evenodd"
         id="g21">
        <rect
           x="57.783"
           y="82.73"
           width="99.394"
           height="59.459"
           fill="#101010"
           id="rect13" />
      </g>
      <rect
         x="58.868"
         y="100.3463"
         width="57.783001"
         height="13.160106"
         fill="url(#linearGradient8786-7)"
         id="rect15-3"
         style="fill:url(#linearGradient1584);stroke-width:0.861078" />
      <rect
         x="58.868"
         y="86.575996"
         width="57.783001"
         height="13.160106"
         fill="url(#linearGradient8786-7)"
         id="rect15"
         style="fill:url(#linearGradient8786-7);stroke-width:0.861078" />
      <rect
         x="58.868"
         y="114.11659"
         width="57.783001"
         height="13.160106"
         fill="url(#linearGradient8786-7)"
         id="rect15-9"
         style="fill:url(#linearGradient1615);stroke-width:0.861078" />
      <rect
         x="58.86747"
         y="127.88689"
         width="57.784061"
         height="13.160106"
         fill="url(#linearGradient8154)"
         fill-rule="evenodd"
         id="rect77-7"
         style="fill:url(#linearGradient1665);stroke-width:1.04965" />
      <g
         id="g4">
        <g
           id="g3">
          <path
             d="m 84.184469,95.601821 c 0,0 0.91035,-0.005 1.246,-2.5537 0.6011,-4.564501 1.4975,-1.2214 1.4975,-1.2214 0,0 0.2789,1.0459 0.94128,0.348629 0.66238,-0.697249 1.2202,1.1853 1.2202,1.1853 0,0 1.2899,2.4055 2.2312,2.300901"
             fill="none"
             stroke="#999999"
             stroke-width="0.26458px"
             id="path45-7-8-9" />
          <path
             d="m 91.197691,95.70356 c 0,0 0.91035,-0.005 1.246,-2.5537 0.6011,-4.564501 1.4975,-1.2214 1.4975,-1.2214 0,0 0.2789,1.0459 0.94128,0.348629 0.66238,-0.697249 1.2202,1.1853 1.2202,1.1853 0,0 1.2899,2.4055 2.2312,2.300901"
             fill="none"
             stroke="#999999"
             stroke-width="0.26458px"
             id="path45-7-8-9-4" />
        </g>
        <g
           id="g3-8"
           transform="translate(13.988151,0.23004221)">
          <path
             d="m 84.184469,95.601821 c 0,0 0.91035,-0.005 1.246,-2.5537 0.6011,-4.564501 1.4975,-1.2214 1.4975,-1.2214 0,0 0.2789,1.0459 0.94128,0.348629 0.66238,-0.697249 1.2202,1.1853 1.2202,1.1853 0,0 1.2899,2.4055 2.2312,2.300901"
             fill="none"
             stroke="#999999"
             stroke-width="0.26458px"
             id="path45-7-8-9-8" />
          <path
             d="m 91.197691,95.70356 c 0,0 0.91035,-0.005 1.246,-2.5537 0.6011,-4.564501 1.4975,-1.2214 1.4975,-1.2214 0,0 0.2789,1.0459 0.94128,0.348629 0.66238,-0.697249 1.2202,1.1853 1.2202,1.1853 0,0 1.2899,2.4055 2.2312,2.300901"
             fill="none"
             stroke="#999999"
             stroke-width="0.26458px"
             id="path45-7-8-9-4-2" />
        </g>
        <g
           id="g3-8-4"
           transform="translate(-14.013461,-0.11849391)">
          <path
             d="m 84.184469,95.601821 c 0,0 0.91035,-0.005 1.246,-2.5537 0.6011,-4.564501 1.4975,-1.2214 1.4975,-1.2214 0,0 0.2789,1.0459 0.94128,0.348629 0.66238,-0.697249 1.2202,1.1853 1.2202,1.1853 0,0 1.2899,2.4055 2.2312,2.300901"
             fill="none"
             stroke="#999999"
             stroke-width="0.26458px"
             id="path45-7-8-9-8-5" />
          <path
             d="m 91.197691,95.70356 c 0,0 0.91035,-0.005 1.246,-2.5537 0.6011,-4.564501 1.4975,-1.2214 1.4975,-1.2214 0,0 0.2789,1.0459 0.94128,0.348629 0.66238,-0.697249 1.2202,1.1853 1.2202,1.1853 0,0 1.2899,2.4055 2.2312,2.300901"
             fill="none"
             stroke="#999999"
             stroke-width="0.26458px"
             id="path45-7-8-9-4-2-5" />
        </g>
      </g>
      <g
         id="g4-1"
         transform="translate(-0.09212679,13.899085)">
        <g
           id="g3-7">
          <path
             d="m 84.184469,95.601821 c 0,0 0.91035,-0.005 1.246,-2.5537 0.6011,-4.564501 1.4975,-1.2214 1.4975,-1.2214 0,0 0.2789,1.0459 0.94128,0.348629 0.66238,-0.697249 1.2202,1.1853 1.2202,1.1853 0,0 1.2899,2.4055 2.2312,2.300901"
             fill="none"
             stroke="#999999"
             stroke-width="0.26458px"
             id="path45-7-8-9-1" />
          <path
             d="m 91.197691,95.70356 c 0,0 0.91035,-0.005 1.246,-2.5537 0.6011,-4.564501 1.4975,-1.2214 1.4975,-1.2214 0,0 0.2789,1.0459 0.94128,0.348629 0.66238,-0.697249 1.2202,1.1853 1.2202,1.1853 0,0 1.2899,2.4055 2.2312,2.300901"
             fill="none"
             stroke="#999999"
             stroke-width="0.26458px"
             id="path45-7-8-9-4-1" />
        </g>
        <g
           id="g3-8-5"
           transform="translate(13.988151,0.23004221)">
          <path
             d="m 84.184469,95.601821 c 0,0 0.91035,-0.005 1.246,-2.5537 0.6011,-4.564501 1.4975,-1.2214 1.4975,-1.2214 0,0 0.2789,1.0459 0.94128,0.348629 0.66238,-0.697249 1.2202,1.1853 1.2202,1.1853 0,0 1.2899,2.4055 2.2312,2.300901"
             fill="none"
             stroke="#999999"
             stroke-width="0.26458px"
             id="path45-7-8-9-8-2" />
          <path
             d="m 91.197691,95.70356 c 0,0 0.91035,-0.005 1.246,-2.5537 0.6011,-4.564501 1.4975,-1.2214 1.4975,-1.2214 0,0 0.2789,1.0459 0.94128,0.348629 0.66238,-0.697249 1.2202,1.1853 1.2202,1.1853 0,0 1.2899,2.4055 2.2312,2.300901"
             fill="none"
             stroke="#999999"
             stroke-width="0.26458px"
             id="path45-7-8-9-4-2-7" />
        </g>
        <g
           id="g3-8-4-6"
           transform="translate(-14.013461,-0.11849391)">
          <path
             d="m 84.184469,95.601821 c 0,0 0.91035,-0.005 1.246,-2.5537 0.6011,-4.564501 1.4975,-1.2214 1.4975,-1.2214 0,0 0.2789,1.0459 0.94128,0.348629 0.66238,-0.697249 1.2202,1.1853 1.2202,1.1853 0,0 1.2899,2.4055 2.2312,2.300901"
             fill="none"
             stroke="#999999"
             stroke-width="0.26458px"
             id="path45-7-8-9-8-5-1" />
          <path
             d="m 91.197691,95.70356 c 0,0 0.91035,-0.005 1.246,-2.5537 0.6011,-4.564501 1.4975,-1.2214 1.4975,-1.2214 0,0 0.2789,1.0459 0.94128,0.348629 0.66238,-0.697249 1.2202,1.1853 1.2202,1.1853 0,0 1.2899,2.4055 2.2312,2.300901"
             fill="none"
             stroke="#999999"
             stroke-width="0.26458px"
             id="path45-7-8-9-4-2-5-4" />
        </g>
      </g>
      <g
         id="g4-1-2"
         transform="translate(0.64151386,27.616703)">
        <g
           id="g3-7-3">
          <path
             d="m 84.184469,95.601821 c 0,0 0.91035,-0.005 1.246,-2.5537 0.6011,-4.564501 1.4975,-1.2214 1.4975,-1.2214 0,0 0.2789,1.0459 0.94128,0.348629 0.66238,-0.697249 1.2202,1.1853 1.2202,1.1853 0,0 1.2899,2.4055 2.2312,2.300901"
             fill="none"
             stroke="#999999"
             stroke-width="0.26458px"
             id="path45-7-8-9-1-2" />
          <path
             d="m 91.197691,95.70356 c 0,0 0.91035,-0.005 1.246,-2.5537 0.6011,-4.564501 1.4975,-1.2214 1.4975,-1.2214 0,0 0.2789,1.0459 0.94128,0.348629 0.66238,-0.697249 1.2202,1.1853 1.2202,1.1853 0,0 1.2899,2.4055 2.2312,2.300901"
             fill="none"
             stroke="#999999"
             stroke-width="0.26458px"
             id="path45-7-8-9-4-1-2" />
        </g>
        <g
           id="g3-8-5-1"
           transform="translate(13.988151,0.23004221)">
          <path
             d="m 84.184469,95.601821 c 0,0 0.91035,-0.005 1.246,-2.5537 0.6011,-4.564501 1.4975,-1.2214 1.4975,-1.2214 0,0 0.2789,1.0459 0.94128,0.348629 0.66238,-0.697249 1.2202,1.1853 1.2202,1.1853 0,0 1.2899,2.4055 2.2312,2.300901"
             fill="none"
             stroke="#999999"
             stroke-width="0.26458px"
             id="path45-7-8-9-8-2-6" />
          <path
             d="m 91.197691,95.70356 c 0,0 0.91035,-0.005 1.246,-2.5537 0.6011,-4.564501 1.4975,-1.2214 1.4975,-1.2214 0,0 0.2789,1.0459 0.94128,0.348629 0.66238,-0.697249 1.2202,1.1853 1.2202,1.1853 0,0 1.2899,2.4055 2.2312,2.300901"
             fill="none"
             stroke="#999999"
             stroke-width="0.26458px"
             id="path45-7-8-9-4-2-7-8" />
        </g>
        <g
           id="g3-8-4-6-5"
           transform="translate(-14.013461,-0.11849391)">
          <path
             d="m 84.184469,95.601821 c 0,0 0.91035,-0.005 1.246,-2.5537 0.6011,-4.564501 1.4975,-1.2214 1.4975,-1.2214 0,0 0.2789,1.0459 0.94128,0.348629 0.66238,-0.697249 1.2202,1.1853 1.2202,1.1853 0,0 1.2899,2.4055 2.2312,2.300901"
             fill="none"
             stroke="#999999"
             stroke-width="0.26458px"
             id="path45-7-8-9-8-5-1-7" />
          <path
             d="m 91.197691,95.70356 c 0,0 0.91035,-0.005 1.246,-2.5537 0.6011,-4.564501 1.4975,-1.2214 1.4975,-1.2214 0,0 0.2789,1.0459 0.94128,0.348629 0.66238,-0.697249 1.2202,1.1853 1.2202,1.1853 0,0 1.2899,2.4055 2.2312,2.300901"
             fill="none"
             stroke="#999999"
             stroke-width="0.26458px"
             id="path45-7-8-9-4-2-5-4-6" />
        </g>
      </g>
      <rect
         x="117.85789"
         y="86.575996"
         width="38.887001"
         height="54.304539"
         fill="url(#linearGradient8154)"
         fill-rule="evenodd"
         id="rect53"
         style="fill:url(#linearGradient8154);stroke-width:1.74917" />
      <g
         id="g4900-3"
         transform="translate(-50.099979,1.7489044)">
        <path
           d="m 136.11624,136.05328 -0.76455,-1.9647 h -2.51589 l -0.75565,1.9647 h -0.809 l 2.48033,-6.37418 h 0.72009 l 2.47144,6.37418 z m -1.71579,-4.59616 q -0.0267,-0.0711 -0.0889,-0.25781 -0.0622,-0.1867 -0.12446,-0.38228 -0.0533,-0.20447 -0.0889,-0.31115 -0.0622,0.27559 -0.14224,0.54229 -0.08,0.25782 -0.13335,0.40895 l -0.7201,1.92025 h 2.00916 z m 5.22736,-1.75135 q 1.19127,0 1.7958,0.35561 0.61341,0.34671 0.61341,1.21794 0,0.56007 -0.31115,0.93345 -0.31115,0.3645 -0.8979,0.47118 v 0.0444 q 0.40006,0.0622 0.7201,0.23114 0.32893,0.16891 0.51562,0.48006 0.18669,0.31116 0.18669,0.809 0,0.86234 -0.59563,1.33351 -0.58674,0.47117 -1.6091,0.47117 h -2.23141 v -6.34751 z m 0.16003,2.70259 q 0.81788,0 1.12014,-0.25782 0.30227,-0.2667 0.30227,-0.78232 0,-0.52452 -0.37339,-0.74677 -0.36449,-0.23114 -1.17349,-0.23114 h -1.04902 v 2.01805 z m -1.17349,0.66675 v 2.30253 h 1.28017 q 0.84455,0 1.17349,-0.32893 0.32893,-0.32894 0.32893,-0.86234 0,-0.49784 -0.34671,-0.80011 -0.33783,-0.31115 -1.21794,-0.31115 z m 6.65865,-3.36934 q 1.24461,0 1.81358,0.48896 0.56896,0.48895 0.56896,1.37796 0,0.52451 -0.24003,0.9868 -0.23114,0.45339 -0.79121,0.73787 -0.55119,0.28448 -1.50243,0.28448 h -0.72898 v 2.47144 h -0.80011 v -6.34751 z m -0.0711,0.68454 h -0.80899 v 2.507 h 0.64008 q 0.90679,0 1.35129,-0.29337 0.44451,-0.29338 0.44451,-0.99569 0,-0.61342 -0.39117,-0.91568 -0.39116,-0.30226 -1.23572,-0.30226 z"
           id="text1"
           style="font-size:8.89007px;fill:#808080;stroke:#ffffff;stroke-width:0"
           aria-label="ABP" />
      </g>
      <path
         d="m 123.36467,91.67499 q 1.43704,0 2.09398,0.49613 0.65694,0.49613 0.65694,1.398185 0,0.532213 -0.27715,1.001281 -0.26688,0.460049 -0.91355,0.748706 -0.63641,0.288658 -1.73472,0.288658 h -0.8417 v 2.507712 h -0.92382 V 91.67499 Z m -0.0821,0.694582 h -0.93408 v 2.543796 h 0.73905 q 1.047,0 1.56023,-0.297678 0.51323,-0.297679 0.51323,-1.010303 0,-0.622417 -0.45164,-0.929116 -0.45165,-0.306699 -1.42679,-0.306699 z m 8.45678,5.74609 -0.88276,-1.993541 h -2.90489 l -0.87249,1.993541 h -0.93409 l 2.86384,-6.467734 h 0.83143 l 2.85357,6.467734 z m -1.98108,-4.663624 q -0.0308,-0.07216 -0.10264,-0.261596 -0.0719,-0.189432 -0.14371,-0.387883 -0.0616,-0.207473 -0.10264,-0.31572 -0.0719,0.279637 -0.16424,0.550254 -0.0924,0.261596 -0.15397,0.414945 l -0.83143,1.948439 h 2.3198 z m 5.90089,-1.777048 q 1.43704,0 2.09397,0.49613 0.65694,0.49613 0.65694,1.398185 0,0.532213 -0.27714,1.001281 -0.26688,0.460049 -0.91356,0.748706 -0.6364,0.288658 -1.73472,0.288658 h -0.8417 v 2.507712 h -0.92381 V 91.67499 Z m -0.0821,0.694582 h -0.93408 v 2.543796 h 0.73905 q 1.047,0 1.56023,-0.297678 0.51323,-0.297679 0.51323,-1.010303 0,-0.622417 -0.45165,-0.929116 -0.45164,-0.306699 -1.42678,-0.306699 z m -12.21238,12.385218 q 1.43704,0 2.09398,0.49613 0.65694,0.49613 0.65694,1.39818 0,0.53222 -0.27715,1.00129 -0.26688,0.46004 -0.91355,0.7487 -0.63641,0.28866 -1.73472,0.28866 h -0.8417 v 2.50771 h -0.92382 v -6.44067 z m -0.0821,0.69458 h -0.93408 v 2.5438 h 0.73905 q 1.047,0 1.56023,-0.29768 0.51323,-0.29768 0.51323,-1.0103 0,-0.62242 -0.45164,-0.92912 -0.45165,-0.3067 -1.42679,-0.3067 z m 8.45678,5.74609 -0.88276,-1.99354 h -2.90489 l -0.87249,1.99354 h -0.93409 l 2.86384,-6.46773 h 0.83143 l 2.85357,6.46773 z m -1.98108,-4.66362 q -0.0308,-0.0722 -0.10264,-0.2616 -0.0719,-0.18943 -0.14371,-0.38788 -0.0616,-0.20748 -0.10264,-0.31572 -0.0719,0.27964 -0.16424,0.55025 -0.0924,0.2616 -0.15397,0.41495 l -0.83143,1.94844 h 2.3198 z m 11.96727,-1.77705 -1.95028,6.44067 h -0.93409 l -1.42678,-4.22162 q -0.0821,-0.26159 -0.16423,-0.52319 -0.0821,-0.26159 -0.13344,-0.46005 -0.0513,-0.20747 -0.0719,-0.28865 -0.0103,0.11726 -0.11291,0.50515 -0.0924,0.37886 -0.23609,0.79381 l -1.38572,4.19455 h -0.93409 l -1.94001,-6.44067 h 0.96488 l 1.13937,3.93296 q 0.12317,0.41494 0.20529,0.80283 0.0924,0.38788 0.14371,0.73066 0.0513,-0.3518 0.15397,-0.76674 0.10264,-0.41495 0.23608,-0.81185 l 1.29334,-3.88786 h 0.95462 l 1.34466,3.91492 q 0.14371,0.41494 0.24635,0.82989 0.10265,0.40592 0.15397,0.72164 0.0513,-0.33376 0.14371,-0.72164 0.0924,-0.39691 0.21556,-0.82087 l 1.12911,-3.92394 z m 3.08837,0 q 1.43705,0 2.09399,0.49613 0.65693,0.49613 0.65693,1.39818 0,0.53222 -0.27714,1.00129 -0.26689,0.46004 -0.91356,0.7487 -0.6364,0.28866 -1.73472,0.28866 h -0.8417 v 2.50771 h -0.92381 v -6.44067 z m -0.0821,0.69458 h -0.93408 v 2.5438 h 0.73905 q 1.047,0 1.56023,-0.29768 0.51324,-0.29768 0.51324,-1.0103 0,-0.62242 -0.45165,-0.92912 -0.45164,-0.3067 -1.42679,-0.3067 z m -21.28502,12.38522 q 1.3652,0 2.01187,0.46005 0.65694,0.45102 0.65694,1.37112 0,0.51417 -0.21556,0.85695 -0.21556,0.34278 -0.55429,0.55025 -0.32847,0.19846 -0.698,0.31572 l 2.01187,2.88658 h -1.07778 l -1.77578,-2.66106 h -1.45758 v 2.66106 h -0.92382 v -6.44067 z m -0.0513,0.7036 h -1.04699 v 2.39045 h 1.09832 q 0.89302,0 1.3036,-0.3067 0.41059,-0.31572 0.41059,-0.9201 0,-0.63144 -0.43112,-0.89303 -0.43111,-0.27062 -1.3344,-0.27062 z m 9.03159,5.73707 -0.88276,-1.99354 h -2.90489 l -0.87249,1.99354 h -0.93408 l 2.86383,-6.46773 h 0.83143 l 2.85357,6.46773 z m -1.98108,-4.66362 q -0.0308,-0.0722 -0.10264,-0.2616 -0.0719,-0.18943 -0.14371,-0.38788 -0.0616,-0.20748 -0.10264,-0.31572 -0.0719,0.27963 -0.16424,0.55025 -0.0924,0.2616 -0.15397,0.41495 l -0.83143,1.94843 h 2.3198 z m 5.90088,-1.77705 q 1.43705,0 2.09399,0.49613 0.65693,0.49613 0.65693,1.39818 0,0.53222 -0.27715,1.00128 -0.26687,0.46005 -0.91354,0.74871 -0.63641,0.28866 -1.73472,0.28866 h -0.8417 v 2.50771 h -0.92382 v -6.44067 z m -0.0821,0.69458 h -0.93408 v 2.54379 h 0.73905 q 1.04699,0 1.56022,-0.29767 0.51323,-0.29768 0.51323,-1.0103 0,-0.62242 -0.45164,-0.92912 -0.45165,-0.3067 -1.42678,-0.3067 z m -11.69914,13.00763 q -1.18044,0 -1.8579,0.69459 -0.67747,0.69458 -0.67747,1.90333 0,1.19974 0.62615,1.90334 0.6364,0.69458 1.89895,0.69458 0.48244,0 0.91355,-0.0722 0.43112,-0.0722 0.8417,-0.18041 v 0.7036 q -0.41058,0.13531 -0.85196,0.19845 -0.43111,0.0632 -1.03673,0.0632 -1.11884,0 -1.86816,-0.40593 -0.74932,-0.40592 -1.12911,-1.15463 -0.36953,-0.7487 -0.36953,-1.759 0,-0.97422 0.40032,-1.71391 0.41059,-0.7487 1.20097,-1.16365 0.79037,-0.42396 1.91948,-0.42396 1.1599,0 2.02213,0.37886 l -0.36952,0.68556 q -0.33874,-0.13531 -0.75959,-0.24355 -0.41058,-0.10825 -0.90328,-0.10825 z m 5.4287,5.81826 h -2.64827 v -0.46907 l 0.86223,-0.17139 v -5.15073 l -0.86223,-0.18042 v -0.46906 h 2.64827 v 0.46906 l -0.86223,0.18042 v 5.15073 l 0.86223,0.17139 z"
         id="text2"
         style="font-size:10.6667px;line-height:1.45;letter-spacing:0.02px;word-spacing:0.02px;white-space:pre;fill:#808080;stroke:#ffffff;stroke-width:0"
         aria-label="PAP&#10;PAWP&#10;RAP&#10;CI" />
    </g>
  </g>
</svg>
