<?xml version="1.0" encoding="UTF-8"?>
<!-- Created with Inkscape (http://www.inkscape.org/) -->
<svg width="35.498mm" height="21.235mm" version="1.1" viewBox="0 0 35.498 21.235" xmlns="http://www.w3.org/2000/svg" xmlns:xlink="http://www.w3.org/1999/xlink">
 <defs>
  <linearGradient id="linearGradient2736" x1="87.956" x2="87.759" y1="89.928" y2="112.11" gradientUnits="userSpaceOnUse" xlink:href="#linearGradient8784"/>
  <linearGradient id="linearGradient8784">
   <stop stop-color="#1d1d1d" offset="0"/>
   <stop stop-color="#1d1d1d" stop-opacity="0" offset="1"/>
  </linearGradient>
  <linearGradient id="linearGradient9241-7" x1="87.956" x2="87.759" y1="89.928" y2="112.11" gradientTransform="matrix(.33029 0 0 1 97.736 36.727)" gradientUnits="userSpaceOnUse" xlink:href="#linearGradient8784"/>
  <linearGradient id="linearGradient9277-7" x1="87.956" x2="87.759" y1="89.928" y2="112.11" gradientTransform="matrix(.33029 0 0 1 117.54 36.727)" gradientUnits="userSpaceOnUse" xlink:href="#linearGradient8784"/>
  <linearGradient id="linearGradient9205-3" x1="87.956" x2="87.759" y1="89.928" y2="112.11" gradientTransform="matrix(1 0 0 2.0214 7.5024e-6 -69.828)" gradientUnits="userSpaceOnUse" xlink:href="#linearGradient8784"/>
  <linearGradient id="linearGradient2738" x1="87.956" x2="87.759" y1="89.928" y2="112.11" gradientTransform="matrix(.67299 0 0 1 77.562 0)" gradientUnits="userSpaceOnUse" xlink:href="#linearGradient8784"/>
  <linearGradient id="linearGradient9313-4" x1="87.956" x2="87.759" y1="89.928" y2="112.11" gradientTransform="matrix(.67299 0 0 1 77.562 18.598)" gradientUnits="userSpaceOnUse" xlink:href="#linearGradient8784"/>
  <linearGradient id="linearGradient17498" x1="87.956" x2="87.759" y1="89.928" y2="112.11" gradientTransform="matrix(.65911 0 0 2.0214 39.765 -69.828)" gradientUnits="userSpaceOnUse" xlink:href="#linearGradient8784"/>
  <linearGradient id="linearGradient17256" x1="87.956" x2="87.759" y1="89.928" y2="112.11" gradientTransform="matrix(.33029 0 0 1 39.424 36.727)" gradientUnits="userSpaceOnUse" xlink:href="#linearGradient8784"/>
  <linearGradient id="linearGradient17260" x1="87.956" x2="87.759" y1="89.928" y2="112.11" gradientTransform="matrix(.33029 0 0 1 39.424 18.598)" gradientUnits="userSpaceOnUse" xlink:href="#linearGradient8784"/>
  <linearGradient id="linearGradient17781" x1="87.956" x2="87.759" y1="89.928" y2="112.11" gradientTransform="matrix(.65911 0 0 2.0214 77.85 -69.828)" gradientUnits="userSpaceOnUse" xlink:href="#linearGradient8784"/>
 </defs>
 <g transform="translate(-141.13 -101.84)">
  <g transform="matrix(.35714 0 0 .35714 120.49 72.292)">
   <g fill-rule="evenodd">
    <rect x="57.783" y="82.73" width="99.394" height="59.459" fill="#101010"/>
    <rect x="58.868" y="86.576" width="57.783" height="17.749" fill="url(#linearGradient2736)"/>
    <rect x="117.18" y="123.3" width="19.085" height="17.749" fill="url(#linearGradient9241-7)"/>
    <rect x="136.98" y="123.3" width="19.085" height="17.749" fill="url(#linearGradient9277-7)"/>
    <rect x="58.868" y="105.17" width="57.783" height="35.877" fill="url(#linearGradient9205-3)"/>
    <rect x="117.18" y="86.576" width="38.887" height="17.749" fill="url(#linearGradient2738)"/>
    <rect x="117.18" y="105.17" width="38.887" height="17.749" fill="url(#linearGradient9313-4)"/>
    <rect x="57.783" y="82.73" width="99.394" height="59.459" fill="#101010"/>
    <rect x="78.565" y="105.17" width="38.085" height="35.877" fill="url(#linearGradient17498)"/>
    <rect x="58.868" y="86.576" width="57.783" height="17.749" fill="url(#linearGradient2736)"/>
    <rect x="58.868" y="123.3" width="19.085" height="17.749" fill="url(#linearGradient17256)"/>
    <rect x="58.868" y="105.17" width="19.085" height="17.749" fill="url(#linearGradient17260)"/>
    <rect x="117.18" y="86.576" width="38.887" height="17.749" fill="url(#linearGradient2738)"/>
   </g>
   <g fill="#999" font-family="TrebuchetFlex" stroke-width=".26458">
    <g font-size="3.8806px">
     <g aria-label="123">
      <path d="m134.16 92.689v-2.1279l-0.56466 0.35244v-0.35433q0.21412-0.108 0.45476-0.29749 0.24254-0.18948 0.37517-0.36002h0.11369v2.7873z"/>
      <path d="m135.38 92.689v-0.07579l0.86972-1.3321q0.27286-0.41876 0.27286-0.71056 0-0.38465-0.43392-0.38465-0.15348 0-0.28801 0.08148-0.13453 0.07958-0.19517 0.20275l-0.24443-0.20085q0.0644-0.18569 0.25201-0.29559 0.18949-0.1099 0.45666-0.1099 0.3998 0 0.62529 0.18569 0.22548 0.1838 0.22548 0.52108 0 0.31265-0.29938 0.78825l-0.6234 0.9891h1.0876v0.34107z"/>
      <path d="m137.49 92.492 0.18191-0.2918q0.18569 0.20464 0.46991 0.20464 0.52676 0 0.52676-0.51539 0-0.23496-0.15348-0.38086-0.15348-0.1478-0.40738-0.1478h-0.0303v-0.30696h0.0171q0.48129 0 0.48129-0.42444 0-0.44339-0.45287-0.44339-0.24632 0-0.39222 0.16485l-0.16864-0.2577q0.17622-0.22927 0.58929-0.22927 0.3638 0 0.59308 0.19517 0.22927 0.19327 0.22927 0.49644 0 0.23117-0.12885 0.40928-0.12695 0.17811-0.29938 0.23875 0.23875 0.07769 0.37897 0.26528 0.14211 0.18569 0.14211 0.45097 0 0.38654-0.24444 0.59687-0.24443 0.21033-0.68592 0.21033-0.18569 0-0.36381-0.06821-0.17811-0.07011-0.28233-0.16674z"/>
      <path d="m134.16 96.887v-2.1279l-0.56466 0.35244v-0.35433q0.21412-0.108 0.45476-0.29749 0.24254-0.18948 0.37517-0.36002h0.11369v2.7873z"/>
      <path d="m135.38 96.887v-0.07579l0.86972-1.3321q0.27286-0.41876 0.27286-0.71056 0-0.38465-0.43392-0.38465-0.15348 0-0.28801 0.08148-0.13453 0.07958-0.19517 0.20275l-0.24443-0.20085q0.0644-0.18569 0.25201-0.29559 0.18949-0.1099 0.45666-0.1099 0.3998 0 0.62529 0.18569 0.22548 0.1838 0.22548 0.52108 0 0.31265-0.29938 0.78825l-0.6234 0.9891h1.0876v0.34107z"/>
      <path d="m137.49 96.689 0.18191-0.2918q0.18569 0.20464 0.46991 0.20464 0.52676 0 0.52676-0.51539 0-0.23496-0.15348-0.38086-0.15348-0.1478-0.40738-0.1478h-0.0303v-0.30696h0.0171q0.48129 0 0.48129-0.42444 0-0.44339-0.45287-0.44339-0.24632 0-0.39222 0.16485l-0.16864-0.2577q0.17622-0.22927 0.58929-0.22927 0.3638 0 0.59308 0.19517 0.22927 0.19327 0.22927 0.49644 0 0.23117-0.12885 0.40928-0.12695 0.17811-0.29938 0.23875 0.23875 0.07769 0.37897 0.26528 0.14211 0.18569 0.14211 0.45097 0 0.38654-0.24444 0.59687-0.24443 0.21032-0.68592 0.21032-0.18569 0-0.36381-0.06821-0.17811-0.07011-0.28233-0.16674z"/>
      <path d="m134.16 101.08v-2.1279l-0.56466 0.35244v-0.35433q0.21412-0.108 0.45476-0.29749 0.24254-0.18948 0.37517-0.36002h0.11369v2.7873z"/>
      <path d="m135.38 101.08v-0.0758l0.86972-1.3321q0.27286-0.41876 0.27286-0.71056 0-0.38465-0.43392-0.38465-0.15348 0-0.28801 0.08148-0.13453 0.07958-0.19517 0.20275l-0.24443-0.20085q0.0644-0.18569 0.25201-0.29559 0.18949-0.1099 0.45666-0.1099 0.3998 0 0.62529 0.18569 0.22548 0.1838 0.22548 0.52108 0 0.31265-0.29938 0.78825l-0.6234 0.9891h1.0876v0.34107z"/>
      <path d="m137.49 100.89 0.18191-0.2918q0.18569 0.20464 0.46991 0.20464 0.52676 0 0.52676-0.5154 0-0.23495-0.15348-0.38086-0.15348-0.1478-0.40738-0.1478h-0.0303v-0.30696h0.0171q0.48129 0 0.48129-0.42444 0-0.44339-0.45287-0.44339-0.24632 0-0.39222 0.16485l-0.16864-0.2577q0.17622-0.22927 0.58929-0.22927 0.3638 0 0.59308 0.19517 0.22927 0.19327 0.22927 0.49644 0 0.23117-0.12885 0.40928-0.12695 0.17811-0.29938 0.23875 0.23875 0.07769 0.37897 0.26528 0.14211 0.1857 0.14211 0.45097 0 0.38655-0.24444 0.59687-0.24443 0.21033-0.68592 0.21033-0.18569 0-0.36381-0.0682-0.17811-0.0701-0.28233-0.16674z"/>
     </g>
    </g>
    <g aria-label="123">
     <path d="m93.263 125.9v-4.2557l-1.1293 0.70486v-0.70865q0.42822-0.21601 0.9095-0.59497 0.48507-0.37896 0.75034-0.72002h0.22738v5.5745z"/>
     <path d="m95.707 125.9v-0.15159l1.7394-2.6641q0.5457-0.8375 0.5457-1.4211 0-0.76928-0.86782-0.76928-0.30696 0-0.57602 0.16295-0.26906 0.15916-0.39033 0.40549l-0.48886-0.4017q0.12885-0.37138 0.50402-0.59118 0.37896-0.2198 0.91329-0.2198 0.79961 0 1.2506 0.37138 0.45096 0.3676 0.45096 1.0421 0 0.62529-0.59876 1.5765l-1.2468 1.9782h2.1752v0.68213z"/>
     <path d="m99.929 125.51 0.3638-0.5836q0.37138 0.40928 0.93982 0.40928 1.0535 0 1.0535-1.0308 0-0.46991-0.30696-0.76171-0.30696-0.29559-0.81477-0.29559h-0.0606v-0.61392h0.0341q0.96256 0 0.96256-0.84887 0-0.88676-0.90572-0.88676-0.49265 0-0.78445 0.32969l-0.33727-0.51538q0.35243-0.45855 1.1786-0.45855 0.72761 0 1.1862 0.39033 0.45854 0.38654 0.45854 0.99288 0 0.46233-0.25769 0.81855-0.2539 0.35622-0.59876 0.47749 0.47749 0.15537 0.75792 0.53054 0.28422 0.37139 0.28422 0.90193 0 0.77308-0.48886 1.1937-0.48886 0.42065-1.3718 0.42065-0.37138 0-0.72761-0.13643-0.35622-0.14021-0.56464-0.33348z"/>
    </g>
   </g>
   <g transform="matrix(1.0211 0 0 1 -1.9263 0)">
    <rect x="116.65" y="105.17" width="38.085" height="35.877" fill="url(#linearGradient17781)" fill-rule="evenodd"/>
    <g fill="#999" stroke-width=".26458" aria-label="SVRI">
     <path d="m128.73 125.63 0.27664-0.69729q0.21222 0.15537 0.52675 0.26148 0.31833 0.10232 0.56844 0.10232 0.44339 0 0.71245-0.24253 0.26906-0.24254 0.26906-0.61771 0-0.28043-0.15159-0.51917-0.14779-0.24254-0.75034-0.52676l-0.44717-0.20843q-0.56844-0.26527-0.79581-0.62907-0.22359-0.3638-0.22359-0.8754 0-0.62149 0.43959-1.0308 0.4396-0.40927 1.1293-0.40927 0.92088 0 1.2809 0.29937l-0.22359 0.65939q-0.15158-0.10989-0.46233-0.21221t-0.57602-0.10232q-0.38654 0-0.61012 0.21979-0.2198 0.2198-0.2198 0.56465 0 0.21222 0.0796 0.38654 0.0796 0.17433 0.2198 0.2918 0.144 0.11748 0.5836 0.3297l0.45475 0.21601q0.56844 0.26906 0.79581 0.64423 0.23117 0.37138 0.23117 0.9474 0 0.62528-0.50402 1.0611-0.50023 0.43581-1.3415 0.43581-0.73897 0-1.2619-0.34864z"/>
     <path d="m134.64 125.96h-0.38275l-2.0691-5.6276h0.84129l1.4287 4.089 1.3756-4.089h0.81476z"/>
     <path d="m140.35 125.89-1.4817-2.3837q-0.25391 0-0.8034-0.0379v2.4216h-0.75792v-5.5518q0.0417 0 0.58739-0.0265 0.54949-0.0303 0.7996-0.0303 2.0009 0 2.0009 1.5916 0 0.52297-0.32211 0.94361-0.32212 0.41686-0.7655 0.51918l1.6106 2.5542zm-2.2851-4.8696v1.8038q0.27285 0.0379 0.53054 0.0379 0.68213 0 0.99288-0.2198 0.31075-0.21979 0.31075-0.78445 0-0.46612-0.33349-0.67075-0.33348-0.20464-1.0535-0.20464-0.11368 0-0.44717 0.0379z"/>
     <path d="m141.92 125.89v-5.5518h0.75792v5.5518z"/>
    </g>
   </g>
   <g fill="none" stroke="#999" stroke-width=".26458px">
    <path d="m84.308 98.113s0.91035-5e-3 1.246-2.5537c0.6011-4.5645 1.4975-1.2214 1.4975-1.2214s0.2789 1.0459 0.94128 0.34863c0.66238-0.69725 1.2202 1.1853 1.2202 1.1853s1.2899 2.4055 2.2312 2.3009"/>
    <g transform="translate(23.056 74.204)">
     <path d="m41.521 55.257v5.2991h7.7743"/>
     <path d="m41.556 59.179 2.4055-2.0743 2.4927 1.7431 2.7716-2.789"/>
    </g>
    <g transform="translate(23.056 56.076)">
     <path d="m41.521 55.257v5.2991h7.7743"/>
     <path d="m41.556 59.179 2.4055-2.0743 2.4927 1.7431 2.7716-2.789"/>
    </g>
   </g>
  </g>
 </g>
</svg>
